<svg width="82" height="80" viewBox="0 0 82 80" fill="none" xmlns="http://www.w3.org/2000/svg">
<path d="M73.2015 62.2299C74.7218 59.9912 76.135 56.6378 76.135 56.6378C80.3119 47.5937 80.955 37.3143 77.9379 27.8201C74.9207 18.3259 68.4616 10.3035 59.83 5.32974C51.1984 0.355948 41.0186 -1.20952 31.2915 0.941017C21.5643 3.09156 12.9932 8.80257 7.26289 16.9516C1.53256 25.1006 -0.942589 35.0982 0.323924 44.9794C1.59044 54.8607 6.50701 63.9109 14.1073 70.3512C21.7076 76.7916 31.4419 80.1564 41.3971 79.7842C51.3522 79.4119 60.8081 75.3297 67.9062 68.3398V68.3604C67.9062 68.3604 71.5351 64.6836 73.2015 62.2299Z" fill="#FAFAFA"/>
<path d="M19.4492 74.2644L60.5106 74.1992C60.5106 74.1992 50.6944 80.7136 38.9102 79.9353C28.662 79.2702 19.4492 74.2644 19.4492 74.2644Z" fill="#455A64"/>
<path d="M37.4326 46.7187L39.7743 55.2904L48.3288 43.7393L46.3128 74.0279H34.0999L30.541 74.1993C30.541 74.1993 31.069 69.4266 31.285 66.7283C31.4169 64.5744 31.7801 62.4409 32.3685 60.3647C34.1925 54.4332 37.4326 46.7187 37.4326 46.7187Z" fill="#FAFAFA"/>
<path d="M40.189 60.1247C40.2198 60.1624 38.8381 61.2733 37.1032 62.607C35.3683 63.9408 33.9454 64.9865 33.9146 64.9488C33.8837 64.9111 35.262 63.7968 37.0003 62.4665C38.7387 61.1362 40.1581 60.0836 40.189 60.1247Z" fill="#263238"/>
<path d="M61.4502 42.5426L54.7986 39.3436L52.1894 36.2441L48.5002 40.0774L38.7148 73.9421H55.4946L57.6444 68.1305L61.4502 45.6935V42.5426Z" fill="#03BFB6"/>
<path d="M31.5185 74.4221L31.0693 67.222L51.336 63.7933C51.336 63.7933 54.799 47.0684 56.9316 44.3289C58.903 41.7986 61.4677 42.6763 61.4677 42.6763C61.4677 42.6763 63.782 44.2603 63.23 50.3256C62.9386 53.504 61.7762 64.5168 61.358 68.4974C61.2552 69.4505 60.9388 70.3682 60.4322 71.182C59.8616 72.0984 59.0671 72.8543 58.1235 73.3786C57.18 73.9028 56.1184 74.1782 55.039 74.1787L31.5185 74.4221Z" fill="#03BFB6"/>
<path d="M54.6478 67.9867C54.6169 67.9867 54.5895 67.6678 54.442 67.1775C54.2529 66.5373 53.9332 65.9432 53.503 65.4328C53.0728 64.9223 52.5415 64.5066 51.9426 64.2118C51.4831 63.982 51.1677 63.9032 51.178 63.8689C51.462 63.8911 51.7391 63.968 51.994 64.0952C52.6302 64.3667 53.1939 64.7836 53.6398 65.3123C54.0858 65.8411 54.4017 66.467 54.5621 67.1398C54.6443 67.4141 54.6734 67.7015 54.6478 67.9867Z" fill="#263238"/>
<g opacity="0.2">
<path opacity="0.2" d="M54.2774 39.8306C54.0859 41.9473 53.6804 44.0392 53.0671 46.0741L51.5448 45.6284C51.8339 46.0938 52.0234 46.6141 52.1013 47.1564C52.1792 47.6988 52.1438 48.2514 51.9974 48.7793C51.7001 49.8324 51.2569 50.8388 50.6808 51.7691C48.1664 56.2972 45.6452 60.8276 43.1172 65.3602L50.7425 48.0456L50.5436 44.8432L52.0111 44.5312L54.2774 39.8306Z" fill="black"/>
</g>
<g opacity="0.2">
<path opacity="0.2" d="M51.2702 63.6117C52.2009 63.5581 53.1215 63.8274 53.8767 64.374C54.6319 64.9205 55.1754 65.7109 55.4154 66.6117C55.486 66.8231 55.486 67.0518 55.4154 67.2632C55.3772 67.367 55.3013 67.4525 55.2028 67.5028C55.1042 67.553 54.9904 67.5641 54.884 67.534C54.7403 67.4436 54.6352 67.3031 54.5891 67.1397C54.2515 66.3845 53.7655 65.7048 53.16 65.1412C52.5545 64.5775 51.8419 64.1413 51.0645 63.8585" fill="black"/>
</g>
<path d="M43.1719 65.1956C43.2 65.1009 43.2344 65.0081 43.2747 64.9179L43.6176 64.1327L44.8485 61.2698L48.9834 51.8445C49.5731 50.5073 50.1423 49.2181 50.6772 48.0113V48.049C50.612 46.9107 50.5469 45.8409 50.4886 44.8501V44.7815H50.5503L52.0212 44.4763L51.9732 44.514L53.8007 40.8145L54.3115 39.8031L54.4521 39.5425C54.4668 39.5115 54.484 39.4817 54.5035 39.4534C54.498 39.4872 54.4864 39.5197 54.4692 39.5494L54.3492 39.8202C54.2327 40.0705 54.0749 40.4168 53.8727 40.8488L52.1001 44.5758V44.6066H52.0658L50.5983 44.9255L50.66 44.8466C50.7217 45.8375 50.7903 46.9038 50.8657 48.0456V48.0661V48.0867C50.3309 49.297 49.7651 50.5862 49.1754 51.9233L44.9959 61.3281C44.4576 62.5144 44.0222 63.4813 43.7102 64.1705L43.3673 64.9385C43.3088 65.029 43.2434 65.115 43.1719 65.1956Z" fill="#263238"/>
<path d="M31.5005 74.1959C31.492 74.1564 31.4863 74.1163 31.4834 74.0759C31.4834 73.9868 31.4834 73.8702 31.456 73.733C31.432 73.4107 31.3977 72.9582 31.3565 72.3616C31.2777 71.1787 31.1645 69.4815 31.0137 67.3935V67.3352H31.0685L45.7328 64.6403L51.1398 63.6597L51.0712 63.7248C52.261 59.2093 53.2896 55.2904 54.0301 52.4857C54.4004 51.1143 54.7159 49.9931 54.9044 49.2182C55.0107 48.8445 55.0896 48.5531 55.1479 48.3439L55.213 48.1177L55.2404 48.0457C55.245 48.0717 55.245 48.0984 55.2404 48.1245L55.189 48.3508C55.1376 48.5634 55.0656 48.8582 54.973 49.232L54.1467 52.5132C53.4233 55.3212 52.4118 59.247 51.2495 63.766V63.8208H51.1947L45.774 64.822L31.1062 67.4621L31.1611 67.3935C31.2742 69.485 31.3668 71.1821 31.432 72.3684C31.4594 72.9479 31.48 73.397 31.4937 73.7227C31.4937 73.8702 31.4937 73.9868 31.4937 74.0656C31.5004 74.1087 31.5027 74.1524 31.5005 74.1959Z" fill="#263238"/>
<path d="M60.4283 41.9838C60.4283 42.0147 60.0854 42.0661 59.5711 42.2581C58.8972 42.5107 58.2798 42.894 57.7543 43.3859C57.2289 43.8778 56.8058 44.4686 56.5093 45.1244C56.2831 45.6285 56.2111 45.9713 56.1665 45.961C56.1219 45.9507 56.1665 45.8753 56.1905 45.7176C56.2329 45.4984 56.2961 45.2837 56.3791 45.0764C56.6534 44.3859 57.0769 43.7645 57.6192 43.2566C58.1615 42.7487 58.8093 42.3667 59.5163 42.1381C59.7286 42.0698 59.9466 42.0204 60.1677 41.9907C60.3391 41.9735 60.4249 41.9701 60.4283 41.9838Z" fill="#263238"/>
<path d="M22.1098 34.362C22.7098 33.2545 22.4527 28.7836 23.3681 28.9413C24.551 29.1436 23.4573 33.8443 23.3681 34.2728C23.279 34.7014 23.9133 34.8043 23.9579 34.4169C24.0264 33.858 24.7122 28.3893 25.8745 28.6979C26.5191 28.8659 26.2173 30.0419 26.2173 30.0419C26.2173 30.0419 25.2162 35.3426 25.7716 35.4694C26.327 35.5963 26.7488 32.5414 26.9956 31.4305C27.2425 30.3196 27.9282 29.9048 28.1922 30.4671C28.5762 31.2899 27.8494 33.9608 27.6162 35.0306C27.3831 36.1003 26.8413 39.2032 28.3465 37.9895C29.8517 36.7758 31.4323 36.3986 31.95 36.594C32.4677 36.7895 32.3375 37.5541 31.7614 37.7049C31.1515 37.9331 30.5749 38.2422 30.0471 38.6238C29.6282 38.9358 29.2463 39.2948 28.9088 39.6935C28.4595 40.1876 28.0956 40.753 27.8322 41.3667C27.6185 41.8514 27.3044 42.2853 26.9109 42.6399C26.5173 42.9945 26.0531 43.2617 25.5487 43.4239L24.671 47.6L18.9863 46.3828L20.2515 41.9633C20.7144 39.0592 20.4606 35.1574 20.4641 33.3917C20.4641 30.5596 20.8378 30.5391 21.1498 30.6145C21.9075 30.7619 21.5235 35.442 22.1098 34.362Z" fill="#FFD1BD"/>
<path d="M21.9482 38.161C22.2077 38.2593 22.4608 38.3738 22.706 38.5038C23.2835 38.86 23.7326 39.3908 23.9883 40.0193C24.0623 40.2129 24.1196 40.4125 24.1597 40.6159L24.1769 40.7119L24.2591 40.6673C24.7145 40.3996 25.2118 40.2107 25.73 40.1084C26.1175 40.033 26.3575 40.0262 26.3575 40.0056C26.1453 39.9693 25.9285 39.9693 25.7163 40.0056C25.1793 40.0828 24.6616 40.2608 24.1906 40.5302L24.29 40.5816C24.2543 40.3657 24.1956 40.1542 24.1151 39.9507C23.966 39.592 23.7548 39.2623 23.4911 38.977C23.2748 38.7486 23.0251 38.5544 22.7505 38.401C22.5687 38.3011 22.3752 38.224 22.1745 38.1713C22.1002 38.1553 22.0237 38.1518 21.9482 38.161Z" fill="#CC8F75"/>
<path d="M21.1943 42.138C22.0146 42.6967 22.9825 42.9987 23.975 43.0054C23.975 42.9643 23.327 42.8889 22.5589 42.6454C21.7909 42.402 21.2115 42.1003 21.1943 42.138Z" fill="#CC8F75"/>
<path d="M41.7733 38.0238L37.4326 46.7188L39.7744 55.287L46.0111 48.6972L52.1586 37.2764L41.7733 38.0238Z" fill="#FFD1BD"/>
<path d="M37.6866 38.8397C37.6866 38.8397 31.515 41.034 31.515 41.4421C30.4247 42.2958 26.7938 51.0765 25.6383 52.736L22.3331 57.6218L25.1034 46.8079L19.0107 45.0181C19.0107 45.0181 13.8061 57.5738 13.1752 60.3647C12.7938 62.0218 12.8291 63.7476 13.2781 65.3877L13.3123 65.3603C13.703 66.6128 14.5083 67.695 15.5958 68.4289C18.1776 70.0849 20.5914 70.3969 23.06 68.5729C24.4589 67.5443 26.0566 66.2929 27.5172 65.1271L27.9012 74.2062H31.2647C31.2647 73.6953 31.1619 67.4757 31.1619 67.4757C31.6035 66.0041 31.9471 64.5047 32.1904 62.9876C32.4956 60.8482 37.5083 46.7976 37.5083 46.7976L41.3929 39.3026L41.4855 36.5288L37.6866 38.8397Z" fill="#03BFB6"/>
<path d="M27.8293 74.1273C27.8128 74.0344 27.8037 73.9404 27.8019 73.8461C27.7881 73.645 27.771 73.3741 27.7504 73.0336C27.7127 72.3067 27.6613 71.2849 27.5961 70.0232C27.4796 67.4552 27.3218 63.9202 27.1436 59.9567V59.9361C27.2156 59.5624 27.2944 59.1613 27.3733 58.7567C28.1859 54.5943 28.9264 50.8228 29.4647 48.0765L30.1196 44.8467C30.195 44.4764 30.2602 44.185 30.3048 43.969L30.3562 43.7427C30.3618 43.7168 30.3698 43.6916 30.3802 43.6672C30.3855 43.6933 30.3855 43.7201 30.3802 43.7461L30.3425 43.9758L30.1882 44.8604L29.5916 48.1039C29.067 50.8468 28.347 54.6183 27.5344 58.7944C27.459 59.1956 27.3801 59.5967 27.3081 59.9704V59.9499C27.4658 63.9134 27.6064 67.4517 27.7059 70.0163C27.747 71.2815 27.7813 72.3033 27.8053 73.0301C27.8053 73.373 27.8053 73.6439 27.8259 73.8461C27.8345 73.9396 27.8356 74.0336 27.8293 74.1273Z" fill="#263238"/>
<path d="M31.2812 66.0699C31.2824 65.9743 31.2927 65.879 31.3121 65.7853C31.343 65.5865 31.3807 65.3156 31.4321 64.9762C31.5521 64.2562 31.7167 63.2619 31.919 62.0001C32.3476 59.4766 32.9476 56.0206 33.5853 52.1976C34.0207 49.6982 34.4287 47.353 34.7785 45.3404V45.3198C35.6356 43.3792 36.3522 41.7574 36.8597 40.602C37.1099 40.0465 37.3122 39.6042 37.4562 39.2819L37.6174 38.9391C37.6342 38.8977 37.6561 38.8585 37.6825 38.8225C37.6736 38.8651 37.6598 38.9065 37.6414 38.9459C37.6037 39.0419 37.5591 39.1585 37.5008 39.2888C37.3637 39.6111 37.1785 40.0602 36.9454 40.6225C36.4482 41.7849 35.7522 43.4169 34.9225 45.3678C34.5796 47.3667 34.1819 49.7153 33.7533 52.2251C33.0676 56.0446 32.4778 59.4972 32.039 62.0207C31.8127 63.2584 31.631 64.2665 31.4973 64.983L31.343 65.7888C31.3289 65.8838 31.3082 65.9777 31.2812 66.0699Z" fill="#263238"/>
<path d="M19.4488 65.062C19.4248 65.0448 19.6888 64.6677 20.0591 64.0334C20.5416 63.1874 20.9566 62.3046 21.3002 61.3933C21.6422 60.4982 21.9262 59.582 22.1505 58.6504C22.322 57.927 22.4008 57.4744 22.4283 57.4778C22.4456 57.5857 22.4456 57.6956 22.4283 57.8035C22.4077 58.0127 22.3631 58.311 22.2911 58.6778C22.1033 59.6352 21.8338 60.5746 21.4854 61.4859C21.1383 62.3986 20.7043 63.2758 20.1894 64.1054C19.9871 64.4242 19.8156 64.6711 19.6854 64.8357C19.5551 65.0002 19.4488 65.0722 19.4488 65.062Z" fill="#263238"/>
<g opacity="0.2">
<path opacity="0.2" d="M19.9186 64.5615C19.8629 64.5735 19.8107 64.598 19.7659 64.6331C19.721 64.6682 19.6847 64.713 19.6596 64.7641C19.6345 64.8152 19.6214 64.8714 19.6211 64.9283C19.6208 64.9853 19.6335 65.0416 19.658 65.0929C19.7168 65.1929 19.805 65.2722 19.9105 65.3201C20.0161 65.3679 20.1339 65.382 20.2478 65.3604C20.4755 65.3133 20.6843 65.2 20.8478 65.0346C21.3445 64.5246 21.6991 63.8933 21.8764 63.2038C22.401 61.5511 22.425 59.7751 22.4455 58.0608C21.9666 60.324 21.1175 62.4926 19.9323 64.4792" fill="black"/>
</g>
<g opacity="0.2">
<path opacity="0.2" d="M27.4136 65.3671C26.4163 63.696 25.9802 61.7496 26.169 59.8127C26.3541 57.1727 27.6364 54.7589 28.593 52.2937C28.0445 54.8858 27.729 57.4607 27.2216 59.9533C27.2216 59.9533 27.4856 63.6596 27.4924 65.302" fill="black"/>
</g>
<g opacity="0.2">
<path opacity="0.2" d="M31.6719 63.7145C31.9393 59.7647 32.2102 55.8081 32.9062 51.9132C33.6118 47.9265 34.9547 44.0795 36.8834 40.5198C36.3863 42.0832 34.8537 45.3679 34.8537 45.3679C34.8537 45.3679 32.6422 57.0253 31.6822 62.9088" fill="black"/>
</g>
<path d="M31.1747 68.2506L31.7267 74.3742H28.8364L26.2786 74.333C25.3041 74.4387 24.3224 74.464 23.3437 74.4085C23.2965 74.4099 23.2496 74.4006 23.2066 74.381C23.0547 74.3593 22.9054 74.3226 22.7609 74.2713C22.5003 74.1753 22.2328 74.0073 22.274 73.7193C22.4008 72.8416 22.922 72.7696 22.922 72.7696H23.1826L23.2031 72.6941C22.8089 72.6941 22.4728 72.6941 22.298 72.6633C22.2157 72.6633 22.1677 72.6461 22.1608 72.6324C22.154 72.6187 21.1322 72.5124 21.2145 71.9707C21.3277 71.0655 21.8488 70.9935 21.8488 70.9935L22.6923 70.9387C22.2843 70.9387 21.9346 70.9387 21.7563 70.9078C21.674 70.9078 21.626 70.8907 21.6191 70.877C21.6123 70.8632 20.5905 70.757 20.6728 70.2152C20.7997 69.3375 21.3208 69.2655 21.3208 69.2655L22.0066 69.2175C21.6637 69.2175 21.3997 69.2175 21.2454 69.1901C21.1631 69.1901 21.1151 69.1729 21.1082 69.1592C21.1014 69.1455 20.0797 69.0392 20.1619 68.4975C20.3025 67.6163 20.8202 67.5649 20.8202 67.5649C20.8202 67.5649 22.4317 67.4483 23.5392 67.4037C23.5392 67.4037 24.7975 66.2723 25.2912 66.3237C26.0318 66.4026 30.3313 67.99 30.3313 67.99L31.1747 68.2506Z" fill="#FFD1BD"/>
<path d="M25.7511 72.581C25.281 72.6867 24.7995 72.7328 24.3179 72.7181C23.8447 72.7619 23.3679 72.7469 22.8984 72.6736C23.3684 72.5671 23.8499 72.5198 24.3316 72.533C24.8048 72.4872 25.282 72.5033 25.7511 72.581Z" fill="#CC8F75"/>
<path d="M25.7579 70.8426C25.0855 70.9605 24.4038 71.0168 23.7212 71.0106C23.0363 71.0652 22.3478 71.0583 21.6641 70.99C22.3364 70.8723 23.0182 70.8172 23.7007 70.8255C24.3855 70.7688 25.0741 70.7745 25.7579 70.8426Z" fill="#CC8F75"/>
<g opacity="0.78">
<path opacity="0.78" d="M25.6212 69.0804C24.9418 69.1967 24.2533 69.2518 23.564 69.245C22.8791 69.3014 22.1905 69.2945 21.5068 69.2244C22.1795 69.1092 22.861 69.0541 23.5434 69.0598C24.2352 69.0022 24.9308 69.0091 25.6212 69.0804Z" fill="#CC8F75"/>
</g>
<path d="M23.084 67.4208C23.2974 67.4623 23.5147 67.4796 23.732 67.4723L25.2989 67.5237L26.8658 67.582C27.0824 67.6041 27.3006 67.6041 27.5172 67.582C27.3075 67.521 27.0909 67.4865 26.8726 67.4791C26.4715 67.4414 25.916 67.4003 25.3023 67.3797C24.6886 67.3591 24.1366 67.3591 23.732 67.3797C23.5151 67.3677 23.2976 67.3815 23.084 67.4208Z" fill="#CC8F75"/>
<path d="M54.9974 17.5443C55.7243 15.7786 58.0215 14.9729 59.8181 15.6312C61.6147 16.2895 62.8079 18.1272 63.0239 20.0267C63.1724 20.964 62.9776 21.9233 62.4753 22.7285C62.1746 23.1218 61.797 23.4498 61.3655 23.6926C60.9341 23.9355 60.4578 24.088 59.9655 24.1411C59.0862 24.2638 58.1902 24.1505 57.3691 23.8128C56.5481 23.475 55.8316 22.925 55.2932 22.2191C54.7548 21.5132 54.4138 20.6768 54.3052 19.7957C54.1966 18.9146 54.3242 18.0204 54.6751 17.2049" fill="#263238"/>
<path d="M62.3071 17.7775C62.3071 17.7775 62.2728 17.8701 62.1768 18.0141C62.0401 18.2144 61.8864 18.4025 61.7174 18.5764C61.1554 19.1587 60.4634 19.5993 59.6981 19.8622C58.9328 20.125 58.1161 20.2026 57.315 20.0884C57.0744 20.054 56.8371 20.0001 56.6053 19.9273C56.5171 19.9074 56.4334 19.8713 56.3584 19.821C56.3584 19.7901 56.7287 19.9067 57.3287 19.9616C58.1091 20.0374 58.8967 19.945 59.6383 19.6907C60.38 19.4363 61.0585 19.026 61.6282 18.4873C62.0568 18.0724 62.2728 17.7604 62.3071 17.7775Z" fill="#455A64"/>
<path d="M63.0578 19.7937C63.0578 19.7937 62.9961 19.8692 62.8624 19.9789C62.6724 20.1348 62.4732 20.2791 62.2658 20.4109C61.5824 20.8544 60.8254 21.1725 60.0303 21.3503C59.5893 21.4389 59.1391 21.4734 58.6897 21.4532C58.3241 21.435 57.9618 21.3752 57.6097 21.2749C57.3732 21.212 57.1435 21.1258 56.924 21.0178C56.7697 20.9423 56.684 20.8943 56.6908 20.884C56.6977 20.8738 57.0543 21.0143 57.6474 21.1549C57.9942 21.2344 58.3478 21.2804 58.7034 21.2921C59.1395 21.3002 59.5752 21.2612 60.0029 21.1755C60.7785 20.9995 61.5221 20.7046 62.2075 20.3012C62.7321 19.996 63.0407 19.7697 63.0578 19.7937Z" fill="#455A64"/>
<path d="M36.4553 22.8212C32.2106 13.485 42.3079 8.79801 47.8143 10.3512C52.9916 11.8152 55.1996 14.3901 56.0431 17.8531C56.8865 21.316 56.8557 25.0532 55.4979 28.3687C54.8122 29.9939 53.6225 31.6499 51.8739 31.8522" fill="#263238"/>
<path d="M41.526 45.8925C41.4505 41.4353 41.3991 35.3049 41.3991 35.3323C41.3991 35.3597 37.5659 34.6946 36.7704 29.6922C36.3761 27.2064 36.4996 23.1263 36.7087 19.7937C36.9007 16.7902 38.8859 13.1113 41.8791 13.4267L51.2153 15.7925C51.6538 15.8388 52.0589 16.0481 52.3503 16.3789C52.6418 16.7097 52.7984 17.138 52.789 17.5788L52.1787 36.8889" fill="#FFD1BD"/>
<path d="M38.9923 23.3354C38.9894 23.5015 39.051 23.6621 39.1642 23.7836C39.2774 23.9052 39.4333 23.978 39.5992 23.9869C39.6802 23.9944 39.7619 23.9856 39.8394 23.9611C39.917 23.9366 39.9889 23.8968 40.0509 23.8441C40.1128 23.7913 40.1636 23.7268 40.2003 23.6542C40.237 23.5815 40.2587 23.5023 40.2643 23.4211C40.2681 23.2549 40.2067 23.0937 40.0934 22.972C39.98 22.8503 39.8236 22.7777 39.6574 22.7697C39.5764 22.7622 39.4947 22.771 39.4172 22.7955C39.3396 22.82 39.2677 22.8598 39.2057 22.9125C39.1438 22.9652 39.093 23.0298 39.0563 23.1024C39.0196 23.175 38.9979 23.2543 38.9923 23.3354Z" fill="#263238"/>
<path d="M45.9181 23.3354C45.9144 23.5017 45.9757 23.6629 46.0891 23.7846C46.2024 23.9063 46.3589 23.9789 46.525 23.9869C46.606 23.9944 46.6877 23.9856 46.7653 23.9611C46.8428 23.9366 46.9147 23.8968 46.9767 23.8441C47.0387 23.7913 47.0895 23.7268 47.1261 23.6542C47.1628 23.5815 47.1846 23.5023 47.1902 23.4211C47.1931 23.2551 47.1314 23.0944 47.0182 22.9729C46.905 22.8514 46.7491 22.7785 46.5833 22.7697C46.5023 22.7622 46.4206 22.771 46.343 22.7955C46.2654 22.82 46.1936 22.8598 46.1316 22.9125C46.0696 22.9652 46.0188 23.0298 45.9822 23.1024C45.9455 23.175 45.9237 23.2543 45.9181 23.3354Z" fill="#263238"/>
<path d="M41.78 26.8874C41.4157 26.7754 41.0393 26.7074 40.6588 26.6851C40.4805 26.668 40.316 26.6337 40.2851 26.5137C40.2695 26.331 40.3102 26.148 40.4017 25.9891L40.9228 24.6485C41.6463 22.7353 42.1709 21.165 42.0954 21.1376C42.02 21.1101 41.3686 22.6359 40.6451 24.5456C40.4703 25.0154 40.3023 25.4645 40.1445 25.8965C40.0335 26.1069 40.0006 26.3499 40.052 26.5823C40.0776 26.645 40.1171 26.7011 40.1676 26.7462C40.2181 26.7914 40.2782 26.8244 40.3434 26.8428C40.4409 26.8682 40.541 26.882 40.6417 26.884C41.0193 26.935 41.4021 26.9362 41.78 26.8874Z" fill="#263238"/>
<path d="M41.3926 35.3527C43.7484 35.388 46.0677 34.7684 48.0921 33.563C48.0921 33.563 46.395 37.0499 41.3926 36.5768V35.3527Z" fill="#CC8F75"/>
<path d="M51.833 23.8806C51.9085 23.8464 54.5108 22.6943 54.5417 25.6875C54.5725 28.6807 51.5587 28.0876 51.5519 28.0122C51.545 27.9367 51.833 23.8806 51.833 23.8806Z" fill="#FFD1BD"/>
<path d="M52.4567 26.8668C52.4567 26.8668 52.5082 26.9011 52.5973 26.9423C52.7226 26.9933 52.8629 26.9933 52.9882 26.9423C53.3036 26.8223 53.5642 26.3183 53.5745 25.78C53.5788 25.5225 53.5261 25.2672 53.4202 25.0325C53.391 24.9394 53.3395 24.8548 53.2701 24.7861C53.2008 24.7174 53.1158 24.6666 53.0225 24.6382C52.9628 24.6228 52.8996 24.6288 52.8439 24.6551C52.7881 24.6814 52.7434 24.7264 52.7173 24.7822C52.6762 24.8679 52.6967 24.9262 52.6796 24.9331C52.6625 24.9399 52.6145 24.8816 52.6385 24.7582C52.6554 24.6842 52.6964 24.6179 52.755 24.5696C52.8371 24.507 52.9404 24.4787 53.043 24.4908C53.1661 24.5142 53.2811 24.5687 53.3771 24.6491C53.4732 24.7295 53.547 24.8332 53.5916 24.9502C53.7238 25.2076 53.7886 25.4942 53.7802 25.7834C53.7802 26.3868 53.4648 26.9525 53.0327 27.0828C52.9528 27.1077 52.8683 27.1138 52.7857 27.1007C52.703 27.0876 52.6245 27.0557 52.5562 27.0074C52.4636 26.9388 52.4465 26.8737 52.4567 26.8668Z" fill="#CC8F75"/>
<path d="M41.9826 28.8212C42.0696 29.0821 42.1956 29.3284 42.3564 29.5515C42.4359 29.663 42.5381 29.7564 42.6563 29.8255C42.7745 29.8946 42.9059 29.938 43.0421 29.9527C43.1919 29.9536 43.3395 29.9163 43.4709 29.8443C43.6022 29.7723 43.7131 29.668 43.793 29.5412C43.9463 29.2903 44.0182 28.9981 43.9987 28.7046C43.9987 28.4406 43.865 28.1252 43.6044 28.0943C43.4937 28.0907 43.3839 28.1155 43.2855 28.1663L41.9141 28.7218" fill="#CC8F75"/>
<path d="M42.5307 29.9493C42.7799 29.9683 43.0304 29.938 43.2678 29.8601C43.5083 29.7655 43.7058 29.5862 43.8233 29.3561C43.8863 29.2142 43.9189 29.0606 43.9189 28.9053C43.9189 28.7499 43.8863 28.5963 43.8233 28.4544C43.7914 28.3814 43.7511 28.3124 43.7033 28.2487C43.6484 28.1904 43.6587 28.1938 43.6004 28.2041C43.5421 28.2144 43.453 28.2624 43.3776 28.2898L43.1513 28.3824C42.8564 28.5024 42.589 28.6053 42.3661 28.691C42.13 28.8066 41.8762 28.8819 41.6152 28.9138C41.8222 28.7505 42.0536 28.6209 42.301 28.5298C42.517 28.4235 42.7775 28.3035 43.0656 28.187L43.2884 28.0875C43.371 28.0484 43.4557 28.0141 43.5421 27.9847C43.6077 27.9625 43.6788 27.9625 43.7444 27.9847C43.8047 28.0117 43.8577 28.0529 43.8987 28.1047C43.9594 28.187 44.0111 28.2755 44.053 28.3687C44.1278 28.5439 44.1626 28.7336 44.1549 28.924C44.1472 29.1144 44.0972 29.3007 44.0084 29.4693C43.863 29.7405 43.6167 29.9437 43.3227 30.035C43.1296 30.0964 42.9235 30.1047 42.7261 30.059C42.5924 30.011 42.5273 29.963 42.5307 29.9493Z" fill="#263238"/>
<path d="M55.1929 21.8302C54.8843 21.8096 52.4122 22.1285 52.6077 26.7263C52.7894 31.0224 55.7997 30.0761 56.7632 28.4612C57.6718 26.9286 58.1929 22.0428 55.1929 21.8302Z" fill="#455A64"/>
<path d="M56.7217 22.3755C56.7182 22.3356 56.7182 22.2954 56.7217 22.2555C56.7217 22.1629 56.7217 22.0498 56.7217 21.9126C56.7217 21.5972 56.7011 21.1549 56.684 20.6029C56.6634 19.4749 56.6325 17.908 56.5948 16.0942L56.6497 16.1491H55.3468L55.4051 16.0908C55.4051 16.4337 55.4257 16.7937 55.4325 17.1605C55.4771 18.8748 55.5182 20.4897 55.5491 21.8372V21.8749H55.508C54.9861 21.9963 54.5222 22.2943 54.1948 22.7184C53.9484 23.0505 53.7701 23.428 53.6702 23.8292C53.6044 24.0869 53.5597 24.3495 53.5365 24.6144C53.5365 24.707 53.5365 24.7755 53.5365 24.8235C53.5365 24.8715 53.5365 24.8955 53.5365 24.8955C53.5321 24.8717 53.5321 24.8473 53.5365 24.8235C53.5365 24.7755 53.5365 24.707 53.5365 24.611C53.5495 24.3431 53.5862 24.0769 53.6462 23.8155C53.7388 23.4035 53.9151 23.0149 54.1639 22.6738C54.502 22.2239 54.9875 21.9072 55.5354 21.7789L55.4977 21.8269C55.46 20.4829 55.412 18.8783 55.364 17.1537C55.364 16.7868 55.3434 16.4234 55.3365 16.0805V16.0222H56.7251V16.0771C56.7457 17.8874 56.7628 19.4577 56.7766 20.5857C56.7766 21.1377 56.7766 21.58 56.7766 21.8955V22.2383C56.7623 22.2856 56.744 22.3315 56.7217 22.3755Z" fill="#455A64"/>
<path d="M55.1931 16.0838C54.2654 14.1395 52.728 12.5515 50.8147 11.5614C49.6366 10.9732 48.3986 10.5134 47.1221 10.19C47.1221 10.19 48.9221 9.76484 51.833 11.0574C53.153 11.6472 54.4868 12.4289 55.368 13.5603C55.9268 14.2906 56.6263 15.7135 56.6228 16.0804L55.1931 16.0838Z" fill="#455A64"/>
<path d="M54.864 29.7435C54.833 29.7412 54.8028 29.7331 54.7749 29.7195C54.695 29.6861 54.6182 29.646 54.5451 29.5995C54.2783 29.425 54.0563 29.1901 53.8971 28.9138C53.6715 28.4975 53.536 28.0384 53.4994 27.5664C53.4481 26.9961 53.4481 26.4223 53.4994 25.852C53.5479 25.2806 53.643 24.7141 53.784 24.1583C53.8827 23.6975 54.0491 23.2538 54.2777 22.8417C54.4379 22.5651 54.6611 22.3301 54.9291 22.156C55.0013 22.1089 55.0783 22.0699 55.1589 22.0394C55.1868 22.0258 55.2171 22.0177 55.248 22.0154C55.248 22.0154 55.1349 22.0668 54.9531 22.1937C54.7039 22.3759 54.4969 22.6098 54.3463 22.8794C54.1342 23.2894 53.9796 23.7267 53.8868 24.1789C53.7531 24.7311 53.6614 25.2927 53.6126 25.8589C53.5664 26.4237 53.5664 26.9913 53.6126 27.5561C53.6427 28.0162 53.7663 28.4654 53.976 28.8761C54.1239 29.1465 54.33 29.3808 54.5794 29.5618C54.7646 29.6921 54.8674 29.7333 54.864 29.7435Z" fill="#263238"/>
<path d="M44.9464 29.05L42.5778 29.5147C42.2619 29.5767 42.0561 29.883 42.1181 30.1989L42.1531 30.3772C42.215 30.6931 42.5214 30.899 42.8372 30.837L45.2059 30.3723C45.5217 30.3103 45.7276 30.004 45.6656 29.6881L45.6306 29.5098C45.5686 29.1939 45.2623 28.9881 44.9464 29.05Z" fill="#455A64"/>
<path d="M45.3359 29.3973L55.8447 26.0989C55.9075 26.0781 55.9738 26.0699 56.0398 26.0749C56.1058 26.0798 56.1701 26.0978 56.2291 26.1278C56.2881 26.1578 56.3405 26.1991 56.3834 26.2495C56.4263 26.2999 56.4588 26.3582 56.479 26.4212C56.4994 26.4851 56.5067 26.5525 56.5004 26.6193C56.494 26.6861 56.4743 26.7509 56.4422 26.8098C56.4102 26.8688 56.3666 26.9206 56.314 26.9623C56.2614 27.0039 56.2009 27.0345 56.1362 27.0521L45.3874 29.9562L45.3359 29.3973Z" fill="#455A64"/>
<path d="M53.1016 27.9469C53.2133 27.8999 53.3278 27.8598 53.4445 27.8269L54.4045 27.532C54.8091 27.4086 55.3028 27.2783 55.8274 27.1068C55.9552 27.0605 56.0719 26.9881 56.1702 26.8943C56.266 26.7963 56.319 26.6644 56.3177 26.5274C56.3176 26.4609 56.2968 26.396 56.2581 26.3419C56.2193 26.2878 56.1646 26.2471 56.1017 26.2257C55.958 26.1866 55.8065 26.1866 55.6628 26.2257L52.5119 27.2543L51.5518 27.5526C51.4398 27.5913 51.3253 27.6223 51.209 27.6451C51.3197 27.591 51.4343 27.5452 51.5518 27.508L52.5016 27.1651C53.3039 26.8943 54.4079 26.5137 55.6491 26.1365C55.8134 26.0867 55.9888 26.0867 56.1531 26.1365C56.2378 26.1651 56.3114 26.2195 56.3637 26.2921C56.416 26.3646 56.4442 26.4517 56.4445 26.5411C56.4456 26.6238 56.4301 26.7059 56.3989 26.7824C56.3677 26.859 56.3214 26.9285 56.2628 26.9868C56.1534 27.0925 56.0224 27.1732 55.8788 27.2234C55.3371 27.3948 54.8502 27.5114 54.4422 27.628L53.4719 27.8851C53.3507 27.9176 53.2267 27.9383 53.1016 27.9469Z" fill="#263238"/>
<path d="M47.5882 21.8782C47.5059 22.0051 46.7859 21.6142 45.8944 21.7719C45.003 21.9296 44.451 22.5331 44.3344 22.4405C44.2761 22.4028 44.3344 22.1799 44.5744 21.9091C44.8988 21.5584 45.3306 21.3257 45.8019 21.2473C46.2699 21.163 46.7527 21.2379 47.1733 21.4599C47.499 21.6211 47.6293 21.8234 47.5882 21.8782Z" fill="#CC8F75"/>
<path d="M47.4851 21.9913C47.3193 21.9605 47.1555 21.9192 46.9948 21.8679C46.6041 21.7814 46.1992 21.7814 45.8085 21.8679C45.4203 21.9592 45.0566 22.1335 44.7422 22.3788C44.4988 22.5708 44.3719 22.7216 44.3513 22.7011C44.3308 22.6805 44.4268 22.5091 44.6599 22.2828C44.9704 21.9903 45.3538 21.7866 45.77 21.6931C46.1862 21.5996 46.6199 21.6197 47.0257 21.7513C47.3343 21.8473 47.4954 21.9639 47.4851 21.9913Z" fill="#263238"/>
<path d="M47.948 19.9788C47.8726 20.2188 47.108 20.2016 46.1994 20.2462C45.2908 20.2908 44.5228 20.3422 44.4371 20.1091C44.396 19.9925 44.5537 19.8176 44.8657 19.6599C45.6938 19.2861 46.6354 19.2516 47.4886 19.5639C47.8109 19.6976 47.9789 19.8622 47.948 19.9788Z" fill="#263238"/>
<path d="M40.4089 22.4063C40.3403 22.444 40.2066 22.3171 39.9872 22.1663C39.7164 21.976 39.4056 21.8505 39.0786 21.7994C38.3037 21.6725 37.6797 22.0291 37.5906 21.9023C37.5494 21.8508 37.6557 21.6725 37.9334 21.5011C38.3045 21.2835 38.7394 21.2012 39.1643 21.268C39.5969 21.3284 39.9891 21.5546 40.2581 21.8988C40.4501 22.1663 40.4672 22.3754 40.4089 22.4063Z" fill="#CC8F75"/>
<path d="M40.4943 22.7767C40.4703 22.7767 40.3537 22.6224 40.1103 22.4064C39.7989 22.1246 39.4192 21.9295 39.0088 21.8405C38.5985 21.7514 38.172 21.7716 37.7719 21.8989C37.4634 21.9949 37.2851 22.1012 37.2713 22.0772C37.2576 22.0532 37.4119 21.9126 37.7308 21.7789C38.149 21.6124 38.6074 21.5742 39.0474 21.6692C39.4879 21.7641 39.8895 21.99 40.1994 22.3172C40.3382 22.4402 40.4403 22.5992 40.4943 22.7767Z" fill="#263238"/>
<path d="M40.8025 20.2804C40.7579 20.5239 40.0276 20.5959 39.1636 20.6062C38.2996 20.6164 37.5659 20.5513 37.5179 20.3044C37.4699 20.0576 38.2036 19.7181 39.1567 19.7113C40.1099 19.7044 40.8505 20.0404 40.8025 20.2804Z" fill="#263238"/>
<path d="M48.8775 13.1867C48.2949 13.9746 47.8327 14.8447 47.5061 15.7685C47.3457 16.2316 47.2887 16.7242 47.3391 17.2117C47.3894 17.6992 47.5459 18.1697 47.7975 18.5903C48.3255 19.3617 49.2272 19.7697 50.0501 20.2189C50.873 20.668 51.713 21.2852 51.9187 22.1972C51.9804 22.4818 51.8604 23.4829 52.073 23.6818C52.3679 23.9527 52.8856 23.7847 53.1016 23.4521C53.3176 23.1195 53.4719 22.0189 53.4788 21.6178L53.5302 17.8805C53.5302 16.8245 53.5302 15.7308 53.0742 14.7948C52.433 13.4644 51.1096 13.0393 49.1758 13.1353" fill="#263238"/>
<path d="M36.5924 20.6885C36.7393 19.4165 37.23 18.2087 38.0118 17.1947C38.8021 16.1819 39.9413 15.4998 41.2073 15.2815C42.469 15.0895 43.7445 15.4392 45.02 15.5112C46.2954 15.5832 47.7423 15.2712 48.4075 14.1843C48.6166 13.8415 48.7126 13.3683 48.4486 13.0734C48.3415 12.9674 48.2145 12.8835 48.0749 12.8266C46.3832 12.0053 44.4876 11.6989 42.6233 11.9454C40.7523 12.2042 39.0473 13.1577 37.8472 14.6163C37.2585 15.3492 36.844 16.2062 36.6349 17.1226C36.4259 18.0391 36.4277 18.9911 36.6404 19.9067" fill="#263238"/>
<path d="M35.8348 18.8096C35.8083 18.7587 35.7887 18.7045 35.7765 18.6484C35.73 18.489 35.6956 18.3262 35.6737 18.1616C35.5997 17.5506 35.6581 16.9308 35.8451 16.3444C36.1229 15.4678 36.645 14.6887 37.3503 14.0986C38.2138 13.3776 39.2564 12.9037 40.3675 12.7272C41.4704 12.5577 42.596 12.6078 43.6795 12.8746C44.1449 12.9856 44.6029 13.1253 45.051 13.2929C45.4796 13.4506 45.8602 13.6358 46.227 13.7215C46.805 13.8788 47.4064 13.9322 48.0031 13.8792C48.218 13.8343 48.4183 13.7365 48.5859 13.5946C48.5542 13.644 48.5149 13.6879 48.4694 13.7249C48.3395 13.8338 48.1855 13.9102 48.0202 13.9478C47.4099 14.0319 46.7891 13.9958 46.1927 13.8415C45.8156 13.7489 45.4247 13.5809 45.003 13.4335C44.5543 13.2734 44.0963 13.1406 43.6315 13.0357C42.5679 12.7826 41.4654 12.7372 40.3846 12.902C39.3069 13.0702 38.2931 13.5209 37.4463 14.2083C36.7586 14.7749 36.2422 15.5216 35.9548 16.365C35.7599 16.9331 35.6851 17.5356 35.7354 18.1341C35.7834 18.5764 35.852 18.8061 35.8348 18.8096Z" fill="#455A64"/>
<path d="M41.3682 10.9444C41.4694 10.9074 41.5759 10.8866 41.6836 10.8827C41.9743 10.8529 42.2672 10.8529 42.5579 10.8827C43.5282 10.975 44.4517 11.3439 45.2185 11.9455C45.6608 12.2884 46.0311 12.6827 46.4254 12.9467C46.7757 13.1775 47.1685 13.336 47.5809 13.413C47.8568 13.4791 48.1419 13.4988 48.4243 13.4713C48.6232 13.4473 48.7226 13.3924 48.7329 13.4061C48.6498 13.4786 48.5473 13.5251 48.438 13.5398C48.1469 13.5954 47.848 13.5954 47.5569 13.5398C47.1214 13.4773 46.7042 13.323 46.3328 13.0873C45.918 12.8164 45.5374 12.4324 45.1088 12.0895C44.3644 11.5093 43.4795 11.1366 42.5442 11.0095C41.8242 10.9101 41.3716 10.9924 41.3682 10.9444Z" fill="#455A64"/>
<path d="M56.5098 20.1261C56.5098 20.1261 56.4412 20.0096 56.2972 19.8176C56.0847 19.5526 55.812 19.3421 55.5018 19.2038C55.0421 19.0008 54.5435 18.9013 54.0412 18.9124C53.4193 18.947 52.8013 19.0318 52.1931 19.1661C51.5711 19.3034 50.9327 19.3519 50.2971 19.3101C49.7788 19.2654 49.2703 19.1429 48.7885 18.9467C48.4644 18.8154 48.1552 18.6498 47.8662 18.453C47.7518 18.3835 47.6498 18.2954 47.5645 18.1924C47.9697 18.4301 48.3913 18.6387 48.8262 18.8164C49.3019 18.989 49.7992 19.0951 50.3039 19.1318C50.9241 19.1641 51.5458 19.1122 52.152 18.9775C52.7697 18.84 53.3985 18.7585 54.0309 18.7341C54.5569 18.729 55.0769 18.8464 55.5498 19.077C55.8704 19.2333 56.1455 19.4694 56.3486 19.7627C56.3994 19.8433 56.443 19.9282 56.4789 20.0164C56.5064 20.0919 56.5166 20.1261 56.5098 20.1261Z" fill="#455A64"/>
<path d="M55.9676 17.7262C55.9676 17.7262 55.9025 17.6097 55.755 17.4245C55.539 17.1742 55.2646 16.9811 54.9561 16.8622C54.4941 16.6918 53.9969 16.6388 53.5093 16.7079C52.9573 16.7628 52.3572 16.9308 51.7092 17.0508C51.0955 17.1916 50.4568 17.1822 49.8475 17.0234C49.3532 16.871 48.9068 16.5934 48.5514 16.2176C48.3114 15.9706 48.1175 15.6826 47.9789 15.3673C47.949 15.2822 47.9249 15.1951 47.9069 15.1067C47.9008 15.075 47.9008 15.0425 47.9069 15.0107C48.0971 15.4255 48.3569 15.8047 48.6749 16.1319C49.026 16.4755 49.4555 16.7285 49.9263 16.8691C50.5134 17.0103 51.1256 17.0103 51.7127 16.8691C52.347 16.7491 52.9538 16.5845 53.5298 16.5262C54.0417 16.4628 54.5613 16.5325 55.0384 16.7285C55.3604 16.8632 55.6392 17.0838 55.8442 17.3662C55.9157 17.4736 55.9582 17.5976 55.9676 17.7262Z" fill="#455A64"/>
<path d="M43.1064 52.0161L43.1716 51.9612L43.3602 51.8104C43.6003 51.613 43.8292 51.4023 44.0459 51.1795C44.3981 50.8192 44.7268 50.4367 45.0299 50.0343C45.3728 49.568 45.7739 49.0057 46.1956 48.3817C47.0391 47.1337 48.0265 45.6114 49.0757 43.8593C49.6003 42.9816 50.142 42.0456 50.6872 41.0581C50.8243 40.8113 50.958 40.561 51.0986 40.3107C51.2305 40.0469 51.3878 39.7965 51.5683 39.5633C51.7563 39.3226 52.0082 39.1396 52.2952 39.0352C52.4421 38.9769 52.602 38.9591 52.7581 38.9838C52.8405 39.0037 52.9162 39.0451 52.9775 39.1038C53.0332 39.1698 53.0742 39.247 53.0975 39.3301V39.3472C53.0644 39.4524 53.0095 39.5493 52.9364 39.6318C52.8576 39.7163 52.7498 39.7678 52.6346 39.7758C52.4195 39.7754 52.2107 39.703 52.0415 39.5701C51.8649 39.4437 51.734 39.2634 51.6685 39.0563C51.603 38.8493 51.6063 38.6265 51.6781 38.4215C51.7529 38.2054 51.9091 38.027 52.1135 37.9244C52.3127 37.8207 52.5413 37.7881 52.7615 37.8318C52.8773 37.8495 52.9867 37.8967 53.0791 37.9687C53.1716 38.0407 53.244 38.1352 53.2895 38.2432C53.3131 38.3047 53.3186 38.3716 53.3052 38.436C53.2919 38.5005 53.2602 38.5597 53.2141 38.6067C53.1284 38.6897 53.0217 38.7478 52.9055 38.7747C52.7108 38.8191 52.507 38.7982 52.3254 38.7151C52.1438 38.6321 51.9946 38.4916 51.9009 38.3152C51.8074 38.1332 51.7854 37.9229 51.8392 37.7255C51.8918 37.5334 51.999 37.3607 52.1478 37.2283C52.2936 37.0968 52.4828 37.0235 52.6792 37.0226C52.7786 37.0235 52.8764 37.0479 52.9646 37.0938C53.0528 37.1397 53.1288 37.2058 53.1867 37.2866C53.2464 37.3763 53.2686 37.4859 53.2484 37.5918C53.2392 37.6438 53.2196 37.6934 53.1907 37.7376C53.1618 37.7817 53.1243 37.8196 53.0804 37.8489C53.0001 37.9041 52.9077 37.9391 52.811 37.9511C52.7143 37.963 52.6162 37.9515 52.5249 37.9175C52.4367 37.8792 52.3576 37.8228 52.2926 37.7519C52.2276 37.681 52.1783 37.5973 52.1478 37.5061C52.0885 37.3306 52.0606 37.1461 52.0655 36.9609C52.0552 36.5992 52.1492 36.2421 52.3363 35.9323C52.4356 35.7767 52.5878 35.6622 52.7649 35.61C52.8531 35.5906 52.9442 35.5888 53.033 35.6047C53.1219 35.6206 53.2067 35.6539 53.2827 35.7026C53.3646 35.7481 53.4323 35.8155 53.4783 35.8972C53.5243 35.9789 53.5468 36.0718 53.5432 36.1655C53.5317 36.2582 53.4931 36.3455 53.432 36.4163C53.371 36.487 53.2904 36.5382 53.2004 36.5632C53.1162 36.5916 53.0264 36.5992 52.9387 36.5855C52.851 36.5717 52.7678 36.5371 52.6964 36.4843C52.5607 36.3728 52.4704 36.2155 52.4426 36.042C52.4156 35.8752 52.4309 35.7042 52.4872 35.5449C52.5263 35.3883 52.5826 35.2365 52.6552 35.0923C52.7296 34.9498 52.8425 34.8311 52.9809 34.7494C53.1148 34.6659 53.2662 34.6143 53.4232 34.5986C53.5045 34.5869 53.5875 34.5976 53.6632 34.6294C53.735 34.6691 53.797 34.7241 53.845 34.7906C53.8931 34.856 53.927 34.9307 53.9444 35.01C53.9673 35.0939 53.9575 35.1834 53.917 35.2603C53.8715 35.328 53.8063 35.3801 53.7303 35.4096C53.6542 35.439 53.571 35.4443 53.4918 35.4249C53.3438 35.3992 53.2073 35.3286 53.1009 35.2226C52.8948 35.0169 52.7726 34.7419 52.7581 34.4511C52.7385 34.1724 52.8121 33.895 52.9672 33.6626C53.0441 33.5517 53.1434 33.4583 53.2587 33.3883C53.3732 33.3245 53.5013 33.2892 53.6324 33.2854C53.7638 33.277 53.894 33.3159 53.9992 33.3951C54.0501 33.4361 54.0906 33.4885 54.1175 33.5481C54.1443 33.6077 54.1566 33.6727 54.1535 33.738C54.1355 33.8612 54.0774 33.975 53.9881 34.0618C53.8988 34.1485 53.7834 34.2035 53.6598 34.218C53.5454 34.2245 53.4314 34.1979 53.3317 34.1413C53.232 34.0848 53.1507 34.0007 53.0975 33.8991C52.989 33.7162 52.9399 33.5042 52.9569 33.2923C53.0301 32.9328 53.1561 32.5862 53.3307 32.2637L53.7044 31.4134C53.9272 30.9059 54.1055 30.5116 54.2255 30.2408L54.3627 29.9356C54.378 29.9005 54.3952 29.8661 54.4141 29.8328C54.4029 29.8691 54.3891 29.9046 54.373 29.9391L54.2461 30.2476L53.7455 31.4305L53.3924 32.25C53.2294 32.5746 53.114 32.921 53.0495 33.2786C53.0339 33.4765 53.0806 33.6743 53.1832 33.8443C53.2311 33.9333 53.3031 34.007 53.3911 34.0568C53.4791 34.1065 53.5794 34.1303 53.6804 34.1254C53.7851 34.1115 53.8825 34.0643 53.9584 33.9909C54.0343 33.9174 54.0847 33.8216 54.1021 33.7174C54.1044 33.6639 54.0941 33.6106 54.0721 33.5618C54.05 33.5129 54.0169 33.47 53.9752 33.4363C53.8838 33.3732 53.7742 33.3419 53.6632 33.3471C53.543 33.3521 53.4257 33.3849 53.3204 33.4431C53.2165 33.5081 53.1267 33.5932 53.0564 33.6934C52.9138 33.909 52.8475 34.1661 52.8678 34.4237C52.8794 34.691 52.9907 34.9442 53.1798 35.1334C53.2728 35.2264 53.3928 35.2876 53.5227 35.3083C53.5848 35.327 53.6513 35.3257 53.7127 35.3049C53.7742 35.284 53.8276 35.2444 53.8655 35.1917C53.8843 35.1337 53.8882 35.0719 53.8768 35.012C53.8654 34.952 53.8391 34.896 53.8004 34.8489C53.7616 34.7949 53.7112 34.7504 53.6529 34.7186C53.5921 34.6942 53.5259 34.6859 53.4609 34.6946C53.3169 34.7063 53.1783 34.7547 53.0583 34.8351C52.9383 34.9155 52.8408 35.0253 52.7752 35.154C52.7062 35.2907 52.6522 35.4344 52.6141 35.5826C52.5644 35.7269 52.5514 35.8812 52.5764 36.0317C52.5992 36.1789 52.6762 36.3122 52.7924 36.4055C52.8499 36.4487 52.9172 36.4773 52.9883 36.4886C53.0594 36.5 53.1322 36.4938 53.2004 36.4706C53.2702 36.4521 53.333 36.4132 53.3806 36.3588C53.4283 36.3045 53.4586 36.2372 53.4678 36.1655C53.4685 36.0918 53.4491 36.0193 53.4116 35.9559C53.3742 35.8924 53.3201 35.8404 53.2552 35.8055C53.1258 35.7236 52.9697 35.6954 52.8198 35.7266C52.6699 35.7757 52.5416 35.875 52.4564 36.0078C52.2843 36.3003 52.1975 36.6353 52.2061 36.9746C52.2024 37.1448 52.2291 37.3144 52.2849 37.4752C52.3103 37.5503 52.3508 37.6195 52.4038 37.6785C52.4569 37.7374 52.5214 37.7849 52.5935 37.8181C52.6682 37.8446 52.7481 37.8532 52.8268 37.8431C52.9054 37.833 52.9805 37.8044 53.0461 37.7598C53.0774 37.7385 53.1043 37.7111 53.125 37.6794C53.1458 37.6477 53.1601 37.6122 53.1671 37.5749C53.1741 37.5376 53.1737 37.4993 53.1659 37.4622C53.1581 37.4251 53.143 37.3899 53.1215 37.3586C53.0738 37.2932 53.0114 37.2399 52.9394 37.203C52.8673 37.1661 52.7876 37.1466 52.7066 37.1461C52.5379 37.1473 52.3755 37.2108 52.2506 37.3243C52.1104 37.4312 52.0117 37.5835 51.9712 37.755C51.9308 37.9266 51.9511 38.1069 52.0288 38.2652C52.1066 38.4234 52.2368 38.5498 52.3973 38.6227C52.5578 38.6956 52.7386 38.7105 52.9089 38.6649C53.0044 38.6452 53.0924 38.5988 53.1627 38.5312C53.1925 38.4998 53.2128 38.4606 53.2213 38.4182C53.2298 38.3757 53.2261 38.3317 53.2107 38.2912C53.1722 38.2012 53.1113 38.1225 53.0339 38.0625C52.9566 38.0025 52.8651 37.9632 52.7684 37.9484C52.5743 37.9064 52.3716 37.9352 52.1968 38.0295C52.022 38.1238 51.8867 38.2774 51.8152 38.4627C51.7501 38.6478 51.7485 38.8494 51.8106 39.0356C51.8726 39.2219 51.9949 39.3821 52.1581 39.4912C52.3063 39.6093 52.4897 39.6745 52.6792 39.6764C52.7675 39.663 52.8496 39.623 52.9145 39.5617C52.9794 39.5005 53.0241 39.4209 53.0426 39.3335V39.3644C53.0291 39.3015 52.9981 39.2438 52.9532 39.1977C52.9083 39.1516 52.8514 39.1191 52.7889 39.1038C52.6522 39.0843 52.5127 39.1008 52.3843 39.1518C52.1139 39.2469 51.8761 39.417 51.6986 39.6421C51.5249 39.8707 51.3712 40.1139 51.2392 40.369C51.102 40.6227 50.9649 40.873 50.8277 41.1199C50.2792 42.1073 49.734 43.0399 49.206 43.9176C48.1534 45.6697 47.1488 47.1851 46.3054 48.4331C45.8768 49.0537 45.4894 49.6126 45.1225 50.0789C44.8133 50.4781 44.4789 50.8572 44.1213 51.2138C43.8121 51.516 43.4719 51.7849 43.1064 52.0161Z" fill="#263238"/>
</svg>
