<svg width="28" height="28" viewBox="0 0 28 28" fill="none" xmlns="http://www.w3.org/2000/svg">
<path d="M5.55778 9.88003L8.38403 12.1113M5.53153 19.0675L8.36653 16.8363M18.2365 19.89L21.0628 22.1213M24.5628 14.5C24.5609 15.0872 24.5052 15.673 24.3965 16.25C24.0123 18.4216 22.9236 20.4061 21.2985 21.8969C19.6735 23.3877 17.6028 24.3018 15.4062 24.4979C13.2097 24.694 11.0097 24.1612 9.14636 22.9818C7.28297 21.8024 5.8599 20.0421 5.09708 17.973C4.33427 15.9039 4.27419 13.6411 4.92613 11.5344C5.57806 9.42772 6.90571 7.5944 8.70389 6.3178C10.5021 5.04119 12.6707 4.39238 14.8745 4.47164C17.0783 4.55089 19.1947 5.35381 20.8965 6.75628L18.429 9.25003C17.2991 8.39299 15.9185 7.93175 14.5003 7.93753C13.2774 7.93616 12.0784 8.27652 11.0386 8.92022C9.99883 9.56393 9.15959 10.4854 8.61556 11.5806C8.07153 12.6758 7.84435 13.9013 7.95965 15.1188C8.07495 16.3362 8.52814 17.4973 9.26811 18.4709C10.0081 19.4445 11.0054 20.192 12.1475 20.6291C13.2896 21.0662 14.5312 21.1754 15.7321 20.9445C16.933 20.7135 18.0455 20.1517 18.9441 19.3222C19.8427 18.4927 20.4917 17.4287 20.8178 16.25H14.9378V12.75H24.3965C24.5008 13.3277 24.5564 13.9131 24.5628 14.5Z" stroke="#4d6887" stroke-linecap="round" stroke-linejoin="round"/>
</svg>
