<svg viewBox="0 0 20 20" fill="none" xmlns="http://www.w3.org/2000/svg">
<path fill-rule="evenodd" clip-rule="evenodd" d="M1.66699 2.49996C1.66699 2.03972 2.04009 1.66663 2.50033 1.66663H4.16699C4.56423 1.66663 4.90624 1.94701 4.98414 2.33653L5.1835 3.33329H17.5003C17.7891 3.33329 18.0574 3.48284 18.2092 3.72852C18.361 3.9742 18.3748 4.28098 18.2457 4.5393L14.9123 11.206C14.7712 11.4883 14.4826 11.6666 14.167 11.6666H6.17884L4.51217 13.3333H14.167C14.83 13.3333 15.4659 13.5967 15.9348 14.0655C16.4036 14.5344 16.667 15.1703 16.667 15.8333C16.667 16.4963 16.4036 17.1322 15.9348 17.6011C15.4659 18.0699 14.83 18.3333 14.167 18.3333C13.504 18.3333 12.8681 18.0699 12.3992 17.6011C11.9304 17.1322 11.667 16.4963 11.667 15.8333C11.667 15.5467 11.7162 15.2651 11.81 15H8.19068C8.28444 15.2651 8.33366 15.5467 8.33366 15.8333C8.33366 16.4963 8.07027 17.1322 7.60143 17.6011C7.13259 18.0699 6.4967 18.3333 5.83366 18.3333C5.17062 18.3333 4.53473 18.0699 4.06589 17.6011C3.59705 17.1322 3.33366 16.4963 3.33366 15.8333C3.33366 15.4466 3.42327 15.0691 3.59099 14.7286C2.77454 14.1868 2.53387 12.9546 3.33357 12.1549L4.92904 10.5594L3.48382 3.33329H2.50033C2.04009 3.33329 1.66699 2.9602 1.66699 2.49996ZM6.51683 9.99996H13.652L16.152 4.99996H5.51683L6.51683 9.99996ZM5.83366 15C5.61265 15 5.40068 15.0878 5.2444 15.244C5.08812 15.4003 5.00033 15.6123 5.00033 15.8333C5.00033 16.0543 5.08812 16.2663 5.2444 16.4225C5.40068 16.5788 5.61265 16.6666 5.83366 16.6666C6.05467 16.6666 6.26663 16.5788 6.42291 16.4225C6.5792 16.2663 6.66699 16.0543 6.66699 15.8333C6.66699 15.6123 6.5792 15.4003 6.42291 15.244C6.26663 15.0878 6.05467 15 5.83366 15ZM14.167 15C13.946 15 13.734 15.0878 13.5777 15.244C13.4215 15.4003 13.3337 15.6123 13.3337 15.8333C13.3337 16.0543 13.4215 16.2663 13.5777 16.4225C13.734 16.5788 13.946 16.6666 14.167 16.6666C14.388 16.6666 14.6 16.5788 14.7562 16.4225C14.9125 16.2663 15.0003 16.0543 15.0003 15.8333C15.0003 15.6123 14.9125 15.4003 14.7562 15.244C14.6 15.0878 14.388 15 14.167 15Z" fill="#94A3B8"/>
</svg>
