<svg viewBox="0 0 25 25" fill="none" xmlns="http://www.w3.org/2000/svg">
<path d="M12.4167 2C6.67292 2 2 6.67292 2 12.4167C2 18.1604 6.67292 22.8333 12.4167 22.8333C18.1604 22.8333 22.8333 18.1604 22.8333 12.4167C22.8333 6.67292 18.1604 2 12.4167 2ZM12.4167 20.75C7.82188 20.75 4.08333 17.0115 4.08333 12.4167C4.08333 7.82188 7.82188 4.08333 12.4167 4.08333C17.0115 4.08333 20.75 7.82188 20.75 12.4167C20.75 17.0115 17.0115 20.75 12.4167 20.75Z" fill="#03BFB6"/>
<path d="M10.8656 13.5146L8.47083 11.124L7 12.599L10.8677 16.4583L17.8531 9.47292L16.3802 8L10.8656 13.5146Z" fill="#03BFB6"/>
</svg>
