<svg  viewBox="0 0 25 24" fill="none" xmlns="http://www.w3.org/2000/svg">
<path fill-rule="evenodd" clip-rule="evenodd" d="M12.0352 4C11.2395 4 10.4764 4.31607 9.91384 4.87868C9.35123 5.44129 9.03516 6.20435 9.03516 7C9.03516 7.79565 9.35123 8.55871 9.91384 9.12132C10.4764 9.68393 11.2395 10 12.0352 10C12.8308 10 13.5939 9.68393 14.1565 9.12132C14.7191 8.55871 15.0352 7.79565 15.0352 7C15.0352 6.20435 14.7191 5.44129 14.1565 4.87868C13.5939 4.31607 12.8308 4 12.0352 4ZM8.49962 3.46447C9.4373 2.52678 10.7091 2 12.0352 2C13.3612 2 14.633 2.52678 15.5707 3.46447C16.5084 4.40215 17.0352 5.67392 17.0352 7C17.0352 8.32608 16.5084 9.59785 15.5707 10.5355C14.633 11.4732 13.3612 12 12.0352 12C10.7091 12 9.4373 11.4732 8.49962 10.5355C7.56194 9.59785 7.03516 8.32608 7.03516 7C7.03516 5.67392 7.56194 4.40215 8.49962 3.46447ZM6.3783 15.3431C7.87859 13.8429 9.91342 13 12.0352 13C14.1569 13 16.1917 13.8429 17.692 15.3431C19.1923 16.8434 20.0352 18.8783 20.0352 21C20.0352 21.5523 19.5874 22 19.0352 22H5.03516C4.76994 22 4.51559 21.8946 4.32805 21.7071C4.14051 21.5196 4.03516 21.2652 4.03516 21C4.03516 18.8783 4.87801 16.8434 6.3783 15.3431ZM12.0352 15C10.4439 15 8.91773 15.6321 7.79252 16.7574C6.90582 17.6441 6.32532 18.7797 6.11905 20H17.9513C17.745 18.7797 17.1645 17.6441 16.2778 16.7574C15.1526 15.6321 13.6265 15 12.0352 15Z" fill="#94A3B8"/>
</svg>
