<svg viewBox="0 0 21 20" fill="none" xmlns="http://www.w3.org/2000/svg">
<path fill-rule="evenodd" clip-rule="evenodd" d="M3.62663 3.33301C3.1846 3.33301 2.76068 3.5086 2.44812 3.82116C2.13556 4.13372 1.95996 4.55765 1.95996 4.99967V13.333C1.95996 13.775 2.13556 14.199 2.44812 14.5115C2.76068 14.8241 3.1846 14.9997 3.62663 14.9997H3.7696C3.89274 15.3479 4.09269 15.6679 4.35886 15.9341C4.8277 16.4029 5.46359 16.6663 6.12663 16.6663C6.78967 16.6663 7.42555 16.4029 7.89439 15.9341C8.16056 15.6679 8.36052 15.3479 8.48365 14.9997H10.2933C10.5884 14.9997 10.8754 14.9214 11.1266 14.7764C11.3778 14.9214 11.6649 14.9997 11.96 14.9997H12.1029C12.2261 15.3479 12.426 15.6679 12.6922 15.9341C13.161 16.4029 13.7969 16.6663 14.46 16.6663C15.123 16.6663 15.7589 16.4029 16.2277 15.9341C16.4939 15.6679 16.6939 15.3479 16.817 14.9997H16.96C17.402 14.9997 17.8259 14.8241 18.1385 14.5115C18.451 14.199 18.6266 13.775 18.6266 13.333V9.51134V9.51116C18.6265 9.06917 18.4509 8.64532 18.1383 8.33283L15.2935 5.48801L15.2934 5.48792C14.9809 5.17539 14.5571 4.99977 14.1151 4.99967H14.115H11.96C11.96 4.55765 11.7844 4.13372 11.4718 3.82116C11.1592 3.5086 10.7353 3.33301 10.2933 3.33301H3.62663ZM4.35886 12.3986C4.09269 12.6647 3.89274 12.9848 3.7696 13.333H3.62663V4.99967L10.2933 4.99967V6.66634V13.333H8.48365C8.36052 12.9848 8.16056 12.6647 7.89439 12.3986C7.42555 11.9297 6.78967 11.6663 6.12663 11.6663C5.46359 11.6663 4.8277 11.9297 4.35886 12.3986ZM12.1029 13.333H11.96V6.66634H14.1148L14.1149 6.66643L16.9599 9.51143L16.96 9.51152V13.333H16.817C16.6939 12.9848 16.4939 12.6647 16.2277 12.3986C15.7589 11.9297 15.123 11.6663 14.46 11.6663C13.7969 11.6663 13.161 11.9297 12.6922 12.3986C12.426 12.6647 12.2261 12.9848 12.1029 13.333ZM5.53737 13.5771C5.69365 13.4208 5.90561 13.333 6.12663 13.333C6.34764 13.333 6.5596 13.4208 6.71588 13.5771C6.87216 13.7334 6.95996 13.9453 6.95996 14.1663C6.95996 14.3874 6.87216 14.5993 6.71588 14.7556C6.5596 14.9119 6.34764 14.9997 6.12663 14.9997C5.90561 14.9997 5.69365 14.9119 5.53737 14.7556C5.38109 14.5993 5.29329 14.3874 5.29329 14.1663C5.29329 13.9453 5.38109 13.7334 5.53737 13.5771ZM13.8707 13.5771C14.027 13.4208 14.2389 13.333 14.46 13.333C14.681 13.333 14.8929 13.4208 15.0492 13.5771C15.2055 13.7334 15.2933 13.9453 15.2933 14.1663C15.2933 14.3874 15.2055 14.5993 15.0492 14.7556C14.8929 14.9119 14.681 14.9997 14.46 14.9997C14.2389 14.9997 14.027 14.9119 13.8707 14.7556C13.7144 14.5993 13.6266 14.3874 13.6266 14.1663C13.6266 13.9453 13.7144 13.7334 13.8707 13.5771Z" fill="#FFA349"/>
</svg>
