<svg viewBox="0 0 20 20" fill="none" xmlns="http://www.w3.org/2000/svg">
<path d="M3.63464 3.62271C3.33459 3.92277 3.16602 4.32974 3.16602 4.75408V5.55408C3.16602 12.1813 8.53882 17.5541 15.166 17.5541H15.966C16.3904 17.5541 16.7973 17.3855 17.0974 17.0855C17.3974 16.7854 17.566 16.3784 17.566 15.9541V13.3309C17.5661 13.1629 17.5132 12.9992 17.415 12.8629C17.3168 12.7267 17.1782 12.6248 17.0188 12.5717L13.4244 11.3733C13.2417 11.3126 13.0433 11.3197 12.8655 11.3935C12.6877 11.4673 12.5425 11.6027 12.4564 11.7749L11.5524 13.5805C9.59359 12.6954 8.02467 11.1265 7.13962 9.16768L8.94522 8.26368C9.11742 8.17765 9.25282 8.0324 9.32659 7.8546C9.40036 7.6768 9.40754 7.47835 9.34682 7.29568L8.14842 3.70128C8.09538 3.54205 7.99361 3.40353 7.8575 3.30532C7.7214 3.20712 7.55785 3.15421 7.39002 3.15408H4.76602C4.34167 3.15408 3.9347 3.32265 3.63464 3.62271Z" stroke="white" stroke-linecap="round" stroke-linejoin="round"/>
</svg>
