<svg viewBox="0 0 21 20" fill="none" xmlns="http://www.w3.org/2000/svg">
<path fill-rule="evenodd" clip-rule="evenodd" d="M10.2933 3.33268C8.52518 3.33268 6.82949 4.03506 5.57925 5.2853C4.32901 6.53555 3.62663 8.23124 3.62663 9.99935C3.62663 10.8748 3.79907 11.7417 4.1341 12.5506C4.46913 13.3594 4.96019 14.0943 5.57925 14.7134C6.19831 15.3325 6.93323 15.8235 7.74207 16.1585C8.55091 16.4936 9.41782 16.666 10.2933 16.666C11.1688 16.666 12.0357 16.4936 12.8445 16.1585C13.6534 15.8235 14.3883 15.3325 15.0073 14.7134C15.6264 14.0943 16.1175 13.3594 16.4525 12.5506C16.7875 11.7417 16.96 10.8748 16.96 9.99935C16.96 8.23124 16.2576 6.53555 15.0073 5.2853C13.7571 4.03506 12.0614 3.33268 10.2933 3.33268ZM4.40074 4.10679C5.96354 2.54399 8.08316 1.66602 10.2933 1.66602C12.5034 1.66602 14.623 2.54399 16.1859 4.10679C17.7487 5.6696 18.6266 7.78921 18.6266 9.99935C18.6266 11.0937 18.4111 12.1773 17.9923 13.1884C17.5735 14.1994 16.9597 15.1181 16.1859 15.8919C15.412 16.6657 14.4934 17.2796 13.4823 17.6983C12.4713 18.1171 11.3876 18.3327 10.2933 18.3327C9.19895 18.3327 8.11531 18.1171 7.10427 17.6983C6.09322 17.2796 5.17456 16.6657 4.40074 15.8919C3.62692 15.1181 3.01309 14.1994 2.5943 13.1884C2.17551 12.1773 1.95996 11.0937 1.95996 9.99935C1.95996 7.78921 2.83793 5.6696 4.40074 4.10679ZM10.2933 5.83268C10.7535 5.83268 11.1266 6.20578 11.1266 6.66602V9.65417L13.3826 11.9101C13.708 12.2355 13.708 12.7632 13.3826 13.0886C13.0571 13.414 12.5295 13.414 12.204 13.0886L9.70404 10.5886C9.54776 10.4323 9.45996 10.2204 9.45996 9.99935V6.66602C9.45996 6.20578 9.83306 5.83268 10.2933 5.83268Z" fill="#FF5A72"/>
</svg>
