<svg viewBox="0 0 21 20" fill="none" xmlns="http://www.w3.org/2000/svg">
<path fill-rule="evenodd" clip-rule="evenodd" d="M9.92029 1.75399C10.1549 1.63669 10.431 1.63669 10.6656 1.75399L17.3323 5.08733C17.6146 5.22849 17.793 5.51704 17.793 5.83268V14.166C17.793 14.4817 17.6146 14.7702 17.3323 14.9114L10.6656 18.2447C10.431 18.362 10.1549 18.362 9.92029 18.2447L3.25362 14.9114C2.9713 14.7702 2.79297 14.4817 2.79297 14.166V5.83268C2.79297 5.51704 2.9713 5.22849 3.25362 5.08733L9.92029 1.75399ZM4.45964 7.18104V13.651L9.45964 16.151V9.68104L4.45964 7.18104ZM11.1263 9.68104V16.151L16.1263 13.651V7.18104L11.1263 9.68104ZM15.0962 5.83268L10.293 8.23432L5.48969 5.83268L10.293 3.43104L15.0962 5.83268Z" fill="#022853"/>
</svg>
