<svg viewBox="0 0 24 24" fill="none" xmlns="http://www.w3.org/2000/svg">
<path fill-rule="evenodd" clip-rule="evenodd" d="M4 4C3.46957 4 2.96086 4.21071 2.58579 4.58579C2.21071 4.96086 2 5.46957 2 6V16C2 16.5304 2.21071 17.0391 2.58579 17.4142C2.96086 17.7893 3.46957 18 4 18H4.17157C4.31933 18.4179 4.55927 18.8019 4.87868 19.1213C5.44129 19.6839 6.20435 20 7 20C7.79565 20 8.55871 19.6839 9.12132 19.1213C9.44072 18.8019 9.68067 18.4179 9.82843 18H12C12.3541 18 12.6985 17.9061 13 17.7321C13.3015 17.9061 13.6459 18 14 18H14.1716C14.3193 18.4179 14.5593 18.8019 14.8787 19.1213C15.4413 19.6839 16.2043 20 17 20C17.7957 20 18.5587 19.6839 19.1213 19.1213C19.4407 18.8019 19.6807 18.4179 19.8284 18H20C20.5304 18 21.0391 17.7893 21.4142 17.4142C21.7893 17.0391 22 16.5304 22 16V11.414V11.4138C21.9999 10.8834 21.7891 10.3748 21.414 9.99979L18.0002 6.586L18.0001 6.58589C17.6251 6.21086 17.1166 6.00011 16.5862 6H16.586H14C14 5.46957 13.7893 4.96086 13.4142 4.58579C13.0391 4.21071 12.5304 4 12 4H4ZM4.87868 14.8787C4.55927 15.1981 4.31933 15.5821 4.17157 16H4V6L12 6V8V16H9.82843C9.68067 15.5821 9.44072 15.1981 9.12132 14.8787C8.55871 14.3161 7.79565 14 7 14C6.20435 14 5.44129 14.3161 4.87868 14.8787ZM14.1716 16H14V8H16.5858L16.5859 8.00011L19.9999 11.4141L20 11.4142V16H19.8284C19.6807 15.5821 19.4407 15.1981 19.1213 14.8787C18.5587 14.3161 17.7957 14 17 14C16.2043 14 15.4413 14.3161 14.8787 14.8787C14.5593 15.1981 14.3193 15.5821 14.1716 16ZM6.29289 16.2929C6.48043 16.1054 6.73478 16 7 16C7.26522 16 7.51957 16.1054 7.70711 16.2929C7.89464 16.4804 8 16.7348 8 17C8 17.2652 7.89464 17.5196 7.70711 17.7071C7.51957 17.8946 7.26522 18 7 18C6.73478 18 6.48043 17.8946 6.29289 17.7071C6.10536 17.5196 6 17.2652 6 17C6 16.7348 6.10536 16.4804 6.29289 16.2929ZM16.2929 16.2929C16.4804 16.1054 16.7348 16 17 16C17.2652 16 17.5196 16.1054 17.7071 16.2929C17.8946 16.4804 18 16.7348 18 17C18 17.2652 17.8946 17.5196 17.7071 17.7071C17.5196 17.8946 17.2652 18 17 18C16.7348 18 16.4804 17.8946 16.2929 17.7071C16.1054 17.5196 16 17.2652 16 17C16 16.7348 16.1054 16.4804 16.2929 16.2929Z" fill="#94A3B8"/>
</svg>
