<svg viewBox="0 0 11 11" fill="none" xmlns="http://www.w3.org/2000/svg">
<path fill-rule="evenodd" clip-rule="evenodd" d="M9.73846 5.11113C9.84157 5.21427 9.89949 5.35414 9.89949 5.49998C9.89949 5.64582 9.84157 5.78569 9.73846 5.88882L5.88846 9.73882C5.78532 9.84193 5.64545 9.89986 5.49961 9.89986C5.35377 9.89986 5.2139 9.84193 5.11076 9.73882L1.26076 5.88882C1.20961 5.83782 1.16904 5.77721 1.14139 5.71048C1.11373 5.64375 1.09954 5.57221 1.09961 5.49998V2.74998C1.09961 2.31237 1.27345 1.89268 1.58288 1.58325C1.89232 1.27381 2.312 1.09998 2.74961 1.09998H5.49961C5.64041 1.09998 5.78121 1.15388 5.88846 1.26113L9.73846 5.11113ZM2.74961 3.29998C2.89548 3.29998 3.03537 3.24203 3.13852 3.13888C3.24166 3.03574 3.29961 2.89584 3.29961 2.74998C3.29961 2.60411 3.24166 2.46421 3.13852 2.36107C3.03537 2.25792 2.89548 2.19998 2.74961 2.19998C2.60374 2.19998 2.46385 2.25792 2.3607 2.36107C2.25756 2.46421 2.19961 2.60411 2.19961 2.74998C2.19961 2.89584 2.25756 3.03574 2.3607 3.13888C2.46385 3.24203 2.60374 3.29998 2.74961 3.29998Z" fill="#007873"/>
</svg>
