<svg viewBox="0 0 24 24" fill="none" xmlns="http://www.w3.org/2000/svg">
<path fill-rule="evenodd" clip-rule="evenodd" d="M6 5C5.73478 5 5.48043 5.10536 5.29289 5.29289C5.10536 5.48043 5 5.73478 5 6V8C5 8.26522 5.10536 8.51957 5.29289 8.70711C5.48043 8.89464 5.73478 9 6 9H8C8.26522 9 8.51957 8.89464 8.70711 8.70711C8.89464 8.51957 9 8.26522 9 8V6C9 5.73478 8.89464 5.48043 8.70711 5.29289C8.51957 5.10536 8.26522 5 8 5H6ZM3.87868 3.87868C4.44129 3.31607 5.20435 3 6 3H8C8.79565 3 9.55871 3.31607 10.1213 3.87868C10.6839 4.44129 11 5.20435 11 6V8C11 8.79565 10.6839 9.55871 10.1213 10.1213C9.55871 10.6839 8.79565 11 8 11H6C5.20435 11 4.44129 10.6839 3.87868 10.1213C3.31607 9.55871 3 8.79565 3 8V6C3 5.20435 3.31607 4.44129 3.87868 3.87868ZM16 5C15.7348 5 15.4804 5.10536 15.2929 5.29289C15.1054 5.48043 15 5.73478 15 6V8C15 8.26522 15.1054 8.51957 15.2929 8.70711C15.4804 8.89464 15.7348 9 16 9H18C18.2652 9 18.5196 8.89464 18.7071 8.70711C18.8946 8.51957 19 8.26522 19 8V6C19 5.73478 18.8946 5.48043 18.7071 5.29289C18.5196 5.10536 18.2652 5 18 5H16ZM13.8787 3.87868C14.4413 3.31607 15.2044 3 16 3H18C18.7956 3 19.5587 3.31607 20.1213 3.87868C20.6839 4.44129 21 5.20435 21 6V8C21 8.79565 20.6839 9.55871 20.1213 10.1213C19.5587 10.6839 18.7957 11 18 11H16C15.2043 11 14.4413 10.6839 13.8787 10.1213C13.3161 9.55871 13 8.79565 13 8V6C13 5.20435 13.3161 4.44129 13.8787 3.87868ZM6 15C5.73478 15 5.48043 15.1054 5.29289 15.2929C5.10536 15.4804 5 15.7348 5 16V18C5 18.2652 5.10536 18.5196 5.29289 18.7071C5.48043 18.8946 5.73478 19 6 19H8C8.26522 19 8.51957 18.8946 8.70711 18.7071C8.89464 18.5196 9 18.2652 9 18V16C9 15.7348 8.89464 15.4804 8.70711 15.2929C8.51957 15.1054 8.26522 15 8 15H6ZM3.87868 13.8787C4.44129 13.3161 5.20435 13 6 13H8C8.79565 13 9.55871 13.3161 10.1213 13.8787C10.6839 14.4413 11 15.2043 11 16V18C11 18.7957 10.6839 19.5587 10.1213 20.1213C9.55871 20.6839 8.79565 21 8 21H6C5.20435 21 4.44129 20.6839 3.87868 20.1213C3.31607 19.5587 3 18.7956 3 18V16C3 15.2044 3.31607 14.4413 3.87868 13.8787ZM16 15C15.7348 15 15.4804 15.1054 15.2929 15.2929C15.1054 15.4804 15 15.7348 15 16V18C15 18.2652 15.1054 18.5196 15.2929 18.7071C15.4804 18.8946 15.7348 19 16 19H18C18.2652 19 18.5196 18.8946 18.7071 18.7071C18.8946 18.5196 19 18.2652 19 18V16C19 15.7348 18.8946 15.4804 18.7071 15.2929C18.5196 15.1054 18.2652 15 18 15H16ZM13.8787 13.8787C14.4413 13.3161 15.2043 13 16 13H18C18.7957 13 19.5587 13.3161 20.1213 13.8787C20.6839 14.4413 21 15.2043 21 16V18C21 18.7957 20.6839 19.5587 20.1213 20.1213C19.5587 20.6839 18.7957 21 18 21H16C15.2043 21 14.4413 20.6839 13.8787 20.1213C13.3161 19.5587 13 18.7957 13 18V16C13 15.2043 13.3161 14.4413 13.8787 13.8787Z" fill="#94A3B8"/>
</svg>
