<svg viewBox="0 0 24 24" fill="none" xmlns="http://www.w3.org/2000/svg">
<g clip-path="url(#clip0)">
<path fill-rule="evenodd" clip-rule="evenodd" d="M3.89257 6.87867C3.89257 5.22182 5.23572 3.87867 6.89257 3.87867L11.9637 3.87869C12.2288 3.87867 12.4832 3.98405 12.6708 4.17157L19.8631 11.364C20.2537 11.7545 20.2537 12.3876 19.8631 12.7782L12.7921 19.8492C12.4015 20.2398 11.7684 20.2398 11.3779 19.8492L4.18547 12.6569C3.99795 12.4693 3.89257 12.2149 3.89259 11.9498L3.89257 6.87867ZM6.89259 1.87869C4.13116 1.87867 1.89258 4.11726 1.89259 6.87869L1.89257 11.9497C1.89258 12.7454 2.20865 13.5085 2.77126 14.0711L9.96365 21.2635C11.1352 22.435 13.0347 22.435 14.2063 21.2635L21.2774 14.1924C22.4489 13.0208 22.4489 11.1213 21.2774 9.94974L14.085 2.75736C13.5224 2.19474 12.7593 1.87867 11.9636 1.87866L6.89259 1.87869ZM7.84233 7.82842C8.23286 7.43789 8.23287 6.80475 7.84233 6.41421C7.45179 6.02367 6.81864 6.02368 6.42811 6.41421C6.03758 6.80474 6.03757 7.43788 6.42811 7.82842C6.81865 8.21896 7.4518 8.21895 7.84233 7.82842Z" fill="#03BFB6"/>
</g>
<defs>
<clipPath id="clip0">
<rect width="24" height="24" fill="white"/>
</clipPath>
</defs>
</svg>
