<svg width="112" height="22" viewBox="0 0 112 22" fill="none" xmlns="http://www.w3.org/2000/svg">
<path d="M28.5842 0V21.3274H23.7095V6.48903L14.3557 17.9151H14.1137L4.75738 6.48903V21.3274H0.0351562V0H5.33808L14.3566 11.2756L23.3751 0H28.5842Z" fill="#002554"/>
<path d="M56.3778 17.2449V21.3274H34.4102V0H56.0733V4.08244H39.2548V8.47026H53.3009V12.5527H39.2548V17.2468L56.3778 17.2449Z" fill="#002554"/>
<path d="M79.5194 21.3274L73.3961 14.0761H65.6874V21.3274H60.8428V0H75.5592C80.7688 0 84.6997 2.40707 84.6997 7.03784C84.6997 10.6634 82.2918 12.9181 78.7576 13.7413L85.3391 21.3274H79.5194ZM75.2849 10.0546C77.8439 10.0546 79.7335 9.4444 79.7335 7.06876C79.7335 4.69318 77.846 4.08244 75.2849 4.08244H65.6545V10.0561L75.2849 10.0546Z" fill="#002554"/>
<path d="M111.966 0V11.2756C111.966 17.6736 107.731 22 99.992 22C92.2527 22 88.0176 17.6736 88.0176 11.2756V0H92.8928V10.9073C92.8928 15.1732 95.391 17.7308 99.992 17.7308C104.592 17.7308 107.091 15.1712 107.091 10.9073V0H111.966Z" fill="#002554"/>
</svg>
