<svg viewBox="0 0 345 345" fill="none" xmlns="http://www.w3.org/2000/svg">
<path d="M201.825 44.367H91.1484C84.9384 44.436 79.9014 49.542 79.9704 55.752V283.59C79.9014 289.8 84.9384 294.906 91.1484 294.975H201.825C208.035 294.906 213.072 289.8 213.003 283.59V55.752C213.072 49.473 208.035 44.367 201.825 44.367ZM206.034 276.552C206.034 282.555 201.549 287.385 196.029 287.385H96.9444C91.3554 287.385 86.8704 282.555 86.8704 276.552V64.377C86.8704 52.164 91.3554 51.543 96.9444 51.543H116.747C117.92 51.543 118.817 52.854 118.817 54.441V55.131C118.817 58.926 120.887 58.926 123.44 58.926H169.325C171.878 58.926 173.948 58.926 173.948 55.131V54.441C173.948 52.854 174.845 51.543 176.018 51.543H195.96C201.48 51.543 205.965 53.13 205.965 64.377L206.034 276.552Z" fill="#263238"/>
<path d="M205.964 66.516V276.552C205.964 282.555 201.479 287.385 195.959 287.385H96.9441C91.3551 287.385 86.8701 282.555 86.8701 276.552V66.516C86.8701 54.303 91.3551 51.612 96.9441 51.612H116.747C117.92 51.612 118.817 52.923 118.817 54.51V55.2C118.817 58.995 120.887 58.995 123.44 58.995H169.325C171.878 58.995 173.948 58.995 173.948 55.2V54.51C173.948 52.923 174.845 51.612 176.018 51.612H195.959C201.479 51.543 205.964 55.338 205.964 66.516Z" fill="white"/>
<path d="M152.696 54.303H140.207C139.793 54.303 139.448 53.958 139.448 53.544C139.448 53.13 139.793 52.785 140.207 52.785H152.696C153.11 52.785 153.455 53.13 153.455 53.544C153.455 53.889 153.11 54.303 152.696 54.303Z" fill="white"/>
<path d="M152.835 203.964H138.414V205.827H152.835V203.964Z" fill="#C7C7C7"/>
<path d="M124.752 115.161H94.4609V145.452H124.752V115.161Z" fill="#56BCB6"/>
<path d="M124.752 115.161H94.4609V145.452H124.752V115.161Z" fill="#FFE2E6"/>
<path d="M104.052 148.005C104.121 148.005 104.19 148.074 104.19 148.143V148.35C104.535 148.35 104.88 148.488 105.156 148.764C105.225 148.764 105.225 148.833 105.225 148.902C105.225 148.971 105.156 149.04 105.087 149.04C105.087 149.04 105.018 149.04 105.018 148.971C104.811 148.764 104.466 148.626 104.19 148.626V150.144C105.018 150.282 105.363 150.627 105.363 151.179C105.363 151.8 104.811 152.214 104.19 152.214C104.19 152.214 104.19 152.214 104.121 152.214V152.628C104.121 152.697 104.052 152.766 103.983 152.766C103.914 152.766 103.845 152.697 103.845 152.628V152.214C103.362 152.145 102.948 152.007 102.603 151.662C102.603 151.662 102.534 151.593 102.534 151.524C102.534 151.455 102.603 151.386 102.672 151.386C102.741 151.386 102.741 151.386 102.741 151.455C103.017 151.731 103.431 151.938 103.845 151.938V150.42C103.017 150.213 102.672 149.937 102.672 149.385C102.741 148.764 103.224 148.35 103.845 148.419V148.212C103.914 148.074 103.983 148.005 104.052 148.005ZM103.914 150.075V148.557C103.362 148.557 103.017 148.902 103.017 149.247C103.017 149.592 103.224 149.937 103.914 150.075ZM104.19 150.42V151.938C104.742 151.938 105.087 151.593 105.087 151.179C105.087 150.765 104.88 150.627 104.19 150.42Z" fill="#A6A6A6"/>
<path d="M106.053 152.007L107.847 150.351C108.054 150.144 108.192 149.868 108.192 149.592C108.192 149.04 107.709 148.626 107.226 148.626C106.95 148.626 106.743 148.695 106.536 148.902L106.329 149.04C106.26 149.109 106.191 149.109 106.122 149.04C106.053 148.971 106.053 148.902 106.122 148.833L106.329 148.695C106.536 148.488 106.881 148.35 107.157 148.35C107.847 148.35 108.399 148.902 108.399 149.592C108.399 149.937 108.261 150.282 107.985 150.558L106.467 151.938H108.33C108.399 151.938 108.468 152.007 108.468 152.076C108.468 152.145 108.399 152.214 108.33 152.214H106.191C106.122 152.214 106.122 152.214 106.122 152.145C106.053 152.076 106.053 152.007 106.053 152.007Z" fill="#A6A6A6"/>
<path d="M109.779 151.662C109.917 151.662 110.055 151.8 110.055 151.938C110.055 152.076 109.917 152.214 109.779 152.214C109.641 152.214 109.503 152.076 109.503 151.938C109.503 151.8 109.572 151.662 109.779 151.662Z" fill="#A6A6A6"/>
<path d="M110.676 151.8C110.607 151.731 110.607 151.662 110.676 151.593C110.745 151.524 110.814 151.524 110.883 151.593C111.09 151.8 111.366 151.869 111.642 151.869C112.194 151.869 112.677 151.386 112.677 150.834C112.677 150.558 112.608 150.282 112.401 150.075C112.194 149.868 111.918 149.799 111.642 149.799C111.366 149.799 111.09 149.937 110.883 150.075C110.814 150.144 110.745 150.144 110.676 150.075C110.676 150.075 110.676 150.075 110.676 150.006C110.676 150.006 110.676 150.006 110.676 149.937L110.883 148.419C110.883 148.35 110.883 148.35 110.952 148.35H111.021H112.815C112.884 148.35 112.953 148.419 112.953 148.488C112.953 148.557 112.884 148.626 112.815 148.626H111.09L110.952 149.799C111.435 149.523 112.125 149.592 112.539 150.006C113.022 150.489 113.022 151.317 112.539 151.869C112.263 152.076 111.987 152.214 111.642 152.283C111.228 152.214 110.883 152.076 110.676 151.8Z" fill="#A6A6A6"/>
<path d="M113.987 150.282C113.987 149.799 114.125 149.316 114.332 148.971C114.608 148.419 115.298 148.212 115.85 148.557C116.057 148.626 116.195 148.833 116.264 148.971C116.747 149.799 116.747 150.834 116.264 151.662C115.988 152.214 115.298 152.421 114.746 152.076C114.539 152.007 114.401 151.8 114.332 151.662C114.125 151.248 113.987 150.765 113.987 150.282ZM114.263 150.282C114.263 150.696 114.332 151.11 114.608 151.455C114.746 151.731 115.022 151.869 115.367 151.938C115.643 151.938 115.919 151.731 116.126 151.455C116.54 150.696 116.54 149.799 116.126 149.04C115.988 148.764 115.712 148.626 115.367 148.557C115.091 148.557 114.746 148.764 114.608 149.04C114.401 149.454 114.263 149.868 114.263 150.282Z" fill="#A6A6A6"/>
<path d="M160.563 115.161H130.272V145.452H160.563V115.161Z" fill="#56BCB6"/>
<path opacity="0.5" d="M160.563 115.161H130.272V145.452H160.563V115.161Z" fill="white"/>
<path d="M140.208 148.005C140.277 148.005 140.346 148.074 140.346 148.143V148.35C140.691 148.35 141.036 148.488 141.312 148.764C141.381 148.764 141.381 148.833 141.381 148.902C141.381 148.971 141.312 149.04 141.243 149.04C141.174 149.04 141.174 149.04 141.174 148.971C140.967 148.764 140.622 148.626 140.346 148.626V150.144C141.174 150.282 141.519 150.627 141.519 151.179C141.519 151.8 140.967 152.214 140.346 152.214C140.346 152.214 140.346 152.214 140.277 152.214V152.628C140.277 152.697 140.208 152.766 140.139 152.766C140.07 152.766 140.001 152.697 140.001 152.628V152.214C139.518 152.145 139.104 152.007 138.759 151.662C138.69 151.662 138.69 151.593 138.69 151.524C138.69 151.455 138.759 151.386 138.828 151.386C138.897 151.386 138.897 151.386 138.897 151.455C139.173 151.731 139.587 151.938 140.001 151.938V150.42C139.173 150.213 138.828 149.937 138.828 149.385C138.828 148.764 139.311 148.35 139.932 148.35C139.932 148.35 139.932 148.35 140.001 148.35V148.143C140.07 148.074 140.139 148.005 140.208 148.005ZM140.07 150.075V148.557C139.656 148.488 139.242 148.833 139.173 149.247C139.242 149.73 139.38 149.937 140.07 150.075ZM140.346 150.42V151.938C140.898 151.938 141.243 151.593 141.243 151.179C141.243 150.765 141.036 150.627 140.346 150.42Z" fill="#A6A6A6"/>
<path d="M142.899 148.764L142.347 149.109H142.278C142.209 149.109 142.209 149.109 142.14 149.04C142.071 148.971 142.14 148.902 142.209 148.902L142.968 148.419C143.037 148.419 143.106 148.419 143.175 148.488V148.557V152.076C143.175 152.145 143.106 152.214 143.037 152.214C142.968 152.214 142.899 152.145 142.899 152.076V148.764Z" fill="#A6A6A6"/>
<path d="M144.486 151.662C144.624 151.662 144.762 151.8 144.762 151.938C144.762 152.076 144.624 152.214 144.486 152.214C144.348 152.214 144.21 152.076 144.21 151.938C144.21 151.8 144.348 151.662 144.486 151.662Z" fill="#A6A6A6"/>
<path d="M145.314 150.282C145.314 149.799 145.452 149.316 145.659 148.971C145.866 148.626 146.211 148.419 146.625 148.419C147.039 148.419 147.384 148.626 147.591 148.971C148.074 149.799 148.074 150.834 147.591 151.662C147.384 152.007 147.039 152.214 146.625 152.214C146.211 152.214 145.866 152.007 145.659 151.662C145.383 151.248 145.314 150.765 145.314 150.282ZM145.59 150.282C145.59 150.696 145.659 151.11 145.935 151.455C146.073 151.731 146.349 151.869 146.694 151.938C146.97 151.938 147.315 151.731 147.453 151.455C147.867 150.696 147.867 149.799 147.453 149.04C147.315 148.764 147.039 148.626 146.694 148.557C146.418 148.557 146.073 148.764 145.935 149.04C145.659 149.454 145.59 149.868 145.59 150.282Z" fill="#A6A6A6"/>
<path d="M149.246 150.282C149.246 149.799 149.384 149.316 149.591 148.971C149.798 148.626 150.143 148.419 150.557 148.419C150.971 148.419 151.316 148.626 151.523 148.971C152.006 149.799 152.006 150.834 151.523 151.662C151.316 152.007 150.971 152.214 150.557 152.214C150.143 152.214 149.798 152.007 149.591 151.662C149.315 151.248 149.177 150.765 149.246 150.282ZM149.453 150.282C149.453 150.696 149.522 151.11 149.798 151.455C150.005 151.869 150.488 152.007 150.902 151.8C151.04 151.731 151.178 151.593 151.247 151.455C151.661 150.696 151.661 149.799 151.247 149.04C151.04 148.626 150.557 148.488 150.143 148.695C150.005 148.764 149.867 148.902 149.798 149.04C149.591 149.454 149.453 149.868 149.453 150.282Z" fill="#A6A6A6"/>
<path d="M196.512 115.161H166.152V145.452H196.512V115.161Z" fill="#56BCB6"/>
<path opacity="0.5" d="M196.512 115.161H166.152V145.452H196.512V115.161Z" fill="white"/>
<path d="M176.157 148.005C176.226 148.005 176.295 148.074 176.295 148.143V148.35C176.64 148.35 176.985 148.488 177.261 148.764C177.33 148.764 177.33 148.833 177.33 148.902C177.33 148.971 177.261 149.04 177.192 149.04C177.192 149.04 177.123 149.04 177.123 148.971C176.916 148.764 176.571 148.626 176.295 148.626V150.144C177.123 150.282 177.468 150.627 177.468 151.179C177.468 151.8 176.916 152.214 176.295 152.214C176.295 152.214 176.295 152.214 176.226 152.214V152.628C176.226 152.697 176.157 152.766 176.088 152.766C176.019 152.766 175.95 152.697 175.95 152.628V152.214C175.467 152.145 175.053 152.007 174.708 151.662C174.708 151.662 174.639 151.593 174.639 151.524C174.639 151.455 174.708 151.386 174.777 151.386C174.846 151.386 174.846 151.386 174.846 151.455C175.122 151.731 175.536 151.938 175.95 151.938V150.42C175.122 150.213 174.777 149.937 174.777 149.385C174.846 148.764 175.329 148.35 175.95 148.419V148.212C176.019 148.074 176.019 148.005 176.157 148.005C176.088 148.005 176.157 148.005 176.157 148.005ZM176.019 150.075V148.557C175.467 148.557 175.122 148.902 175.122 149.247C175.122 149.592 175.329 149.937 176.019 150.075ZM176.295 150.42V151.938C176.847 151.938 177.192 151.593 177.192 151.179C177.192 150.765 176.985 150.627 176.295 150.42Z" fill="#A6A6A6"/>
<path d="M178.779 148.764L178.227 149.109H178.158C178.089 149.109 178.089 149.109 178.02 149.04C177.951 148.971 178.02 148.902 178.089 148.902L178.848 148.419C178.917 148.35 178.986 148.419 179.055 148.488V148.557V152.076C179.055 152.145 178.986 152.214 178.917 152.214C178.848 152.214 178.779 152.145 178.779 152.076V148.764Z" fill="#A6A6A6"/>
<path d="M180.434 151.662C180.572 151.662 180.71 151.8 180.71 151.938C180.71 152.076 180.572 152.214 180.434 152.214C180.296 152.214 180.158 152.076 180.158 151.938C180.158 151.8 180.296 151.662 180.434 151.662Z" fill="#A6A6A6"/>
<path d="M181.332 151.8C181.263 151.731 181.263 151.662 181.332 151.593C181.401 151.524 181.47 151.524 181.539 151.593C181.746 151.8 182.022 151.869 182.298 151.869C182.85 151.869 183.333 151.386 183.333 150.834C183.333 150.558 183.264 150.282 183.057 150.075C182.85 149.868 182.574 149.799 182.298 149.799C182.022 149.799 181.746 149.937 181.539 150.075C181.47 150.144 181.401 150.144 181.332 150.075C181.332 150.075 181.332 150.075 181.332 150.006C181.332 150.006 181.332 150.006 181.332 149.937L181.539 148.419C181.539 148.35 181.608 148.281 181.677 148.281H183.471C183.54 148.281 183.609 148.35 183.609 148.419C183.609 148.488 183.54 148.557 183.471 148.557H181.815L181.677 149.73C182.16 149.454 182.85 149.523 183.264 149.937C183.747 150.42 183.747 151.248 183.264 151.8C182.988 152.007 182.712 152.145 182.367 152.214C181.953 152.214 181.608 152.076 181.332 151.8Z" fill="#A6A6A6"/>
<path d="M184.645 150.282C184.645 149.799 184.783 149.316 184.99 148.971C185.266 148.419 185.956 148.212 186.508 148.557C186.715 148.626 186.853 148.833 186.922 148.971C187.405 149.799 187.405 150.834 186.922 151.662C186.646 152.214 185.956 152.421 185.404 152.076C185.197 152.007 185.059 151.8 184.99 151.662C184.783 151.248 184.645 150.765 184.645 150.282ZM184.921 150.282C184.921 150.696 184.99 151.11 185.266 151.455C185.404 151.731 185.68 151.869 186.025 151.938C186.301 151.938 186.577 151.731 186.784 151.455C187.198 150.696 187.198 149.799 186.784 149.04C186.646 148.764 186.37 148.626 186.025 148.557C185.749 148.557 185.404 148.764 185.266 149.04C185.059 149.454 184.921 149.868 184.921 150.282Z" fill="#A6A6A6"/>
<path d="M124.752 159.459H94.4609V189.75H124.752V159.459Z" fill="#56BCB6"/>
<path opacity="0.5" d="M124.752 159.459H94.4609V189.75H124.752V159.459Z" fill="white"/>
<path d="M103.776 192.51C103.845 192.51 103.914 192.579 103.914 192.648V192.855C104.259 192.855 104.604 192.993 104.88 193.269C104.949 193.269 104.949 193.338 104.949 193.407C104.949 193.476 104.88 193.545 104.811 193.545C104.811 193.545 104.742 193.545 104.742 193.476C104.535 193.269 104.19 193.131 103.914 193.131V194.649C104.742 194.856 105.087 195.132 105.087 195.684C105.018 196.305 104.535 196.719 103.914 196.719V197.133C103.914 197.202 103.845 197.271 103.776 197.271C103.707 197.271 103.638 197.202 103.638 197.133V196.719C103.155 196.65 102.741 196.512 102.396 196.167C102.327 196.167 102.327 196.098 102.327 196.029C102.327 195.96 102.396 195.891 102.465 195.891C102.534 195.891 102.534 195.891 102.534 195.96C102.81 196.236 103.224 196.443 103.638 196.443V194.856C102.81 194.649 102.465 194.373 102.465 193.821C102.534 193.2 103.017 192.786 103.638 192.786V192.579C103.638 192.579 103.707 192.51 103.776 192.51ZM103.638 194.58V193.062C103.086 193.062 102.741 193.407 102.741 193.752C102.741 194.097 102.948 194.442 103.638 194.58ZM103.914 194.925V196.443C104.466 196.443 104.811 196.098 104.811 195.684C104.811 195.27 104.604 195.132 103.914 194.925Z" fill="#A6A6A6"/>
<path d="M108.123 193.131L107.157 194.166C107.847 194.304 108.33 194.994 108.192 195.684C108.123 195.96 107.985 196.167 107.847 196.374C107.571 196.581 107.295 196.719 106.95 196.788C106.605 196.788 106.26 196.65 106.053 196.374C105.984 196.305 106.053 196.236 106.053 196.167C106.122 196.098 106.191 196.098 106.191 196.167C106.398 196.374 106.674 196.443 106.95 196.443C107.226 196.443 107.502 196.305 107.709 196.167C107.916 195.96 107.985 195.684 107.985 195.408C107.985 194.856 107.502 194.373 106.95 194.373C106.881 194.373 106.881 194.373 106.812 194.304C106.743 194.235 106.743 194.166 106.812 194.097L107.778 193.131H106.329C106.26 193.131 106.191 193.062 106.191 192.993C106.191 192.924 106.26 192.855 106.329 192.855H108.123C108.192 192.855 108.261 192.924 108.261 192.993C108.192 192.993 108.192 193.062 108.123 193.131Z" fill="#A6A6A6"/>
<path d="M109.572 196.167C109.71 196.167 109.848 196.305 109.848 196.443C109.848 196.581 109.71 196.719 109.572 196.719C109.434 196.719 109.296 196.581 109.296 196.443C109.296 196.305 109.434 196.167 109.572 196.167Z" fill="#A6A6A6"/>
<path d="M110.399 194.787C110.399 194.304 110.537 193.821 110.744 193.407C111.02 192.855 111.71 192.648 112.262 192.993C112.469 193.062 112.607 193.269 112.676 193.407C112.952 193.821 113.09 194.304 113.021 194.787C113.021 195.27 112.883 195.753 112.676 196.167C112.4 196.719 111.71 196.926 111.227 196.65C111.02 196.581 110.882 196.374 110.744 196.167C110.537 195.753 110.399 195.27 110.399 194.787ZM110.675 194.787C110.675 195.201 110.744 195.615 111.02 195.96C111.158 196.236 111.434 196.374 111.779 196.443C112.124 196.443 112.331 196.236 112.538 195.96C112.952 195.201 112.952 194.304 112.538 193.545C112.4 193.269 112.124 193.131 111.779 193.062C111.503 193.062 111.158 193.269 111.02 193.545C110.744 193.959 110.606 194.373 110.675 194.787Z" fill="#A6A6A6"/>
<path d="M114.265 194.787C114.265 194.304 114.403 193.821 114.61 193.407C114.886 192.855 115.576 192.648 116.128 192.993C116.335 193.062 116.473 193.269 116.542 193.407C116.818 193.821 116.956 194.304 116.887 194.787C116.887 195.27 116.749 195.753 116.542 196.167C116.266 196.719 115.576 196.926 115.093 196.65C114.886 196.581 114.748 196.374 114.61 196.167C114.403 195.753 114.265 195.27 114.265 194.787ZM114.541 194.787C114.541 195.201 114.61 195.615 114.886 195.96C115.024 196.236 115.3 196.374 115.645 196.443C115.921 196.443 116.197 196.236 116.404 195.96C116.818 195.201 116.818 194.304 116.404 193.545C116.266 193.269 115.99 193.131 115.645 193.062C115.369 193.062 115.024 193.269 114.886 193.545C114.679 193.959 114.541 194.373 114.541 194.787Z" fill="#A6A6A6"/>
<path d="M160.563 159.459H130.272V189.75H160.563V159.459Z" fill="#56BCB6"/>
<path opacity="0.5" d="M160.563 159.459H130.272V189.75H160.563V159.459Z" fill="white"/>
<path d="M139.725 192.51C139.794 192.51 139.863 192.579 139.863 192.648V192.855C140.208 192.855 140.553 192.993 140.829 193.269C140.898 193.269 140.898 193.338 140.898 193.407C140.898 193.476 140.829 193.545 140.76 193.545C140.691 193.545 140.691 193.545 140.691 193.476C140.484 193.269 140.139 193.131 139.863 193.131V194.649C140.691 194.856 141.036 195.132 141.036 195.684C140.967 196.305 140.484 196.719 139.863 196.719V197.133C139.863 197.202 139.794 197.271 139.725 197.271C139.656 197.271 139.587 197.202 139.587 197.133V196.719C139.104 196.65 138.69 196.512 138.345 196.167C138.276 196.167 138.276 196.098 138.276 196.029C138.276 195.96 138.345 195.891 138.414 195.891C138.483 195.891 138.483 195.891 138.483 195.96C138.759 196.236 139.173 196.443 139.587 196.443V194.856C138.759 194.649 138.414 194.373 138.414 193.821C138.483 193.2 138.966 192.786 139.518 192.786V192.579C139.587 192.579 139.656 192.51 139.725 192.51ZM139.656 194.58V193.062C139.242 192.993 138.828 193.338 138.759 193.752C138.759 194.235 138.897 194.442 139.656 194.58ZM139.863 194.925V196.443C140.415 196.443 140.76 196.098 140.76 195.684C140.76 195.27 140.553 195.132 139.863 194.925Z" fill="#A6A6A6"/>
<path d="M141.725 196.512L143.519 194.856C143.933 194.511 143.933 193.89 143.588 193.476C143.381 193.269 143.105 193.131 142.829 193.131C142.553 193.131 142.346 193.2 142.139 193.407L141.932 193.545C141.863 193.614 141.794 193.614 141.725 193.545C141.656 193.476 141.656 193.407 141.725 193.338L141.932 193.131C142.139 192.924 142.484 192.786 142.76 192.786C143.45 192.786 144.002 193.338 144.002 194.028C144.002 194.373 143.864 194.718 143.588 194.994L142.07 196.374H143.864C143.933 196.374 144.002 196.443 144.002 196.512C144.002 196.581 143.933 196.65 143.864 196.65H141.725C141.656 196.65 141.656 196.65 141.656 196.581C141.656 196.65 141.725 196.512 141.725 196.512Z" fill="#A6A6A6"/>
<path d="M145.452 196.167C145.59 196.167 145.728 196.305 145.728 196.443C145.728 196.581 145.59 196.719 145.452 196.719C145.314 196.719 145.176 196.581 145.176 196.443C145.176 196.305 145.314 196.167 145.452 196.167Z" fill="#A6A6A6"/>
<path d="M146.348 196.374C146.279 196.305 146.279 196.236 146.348 196.167C146.417 196.098 146.486 196.098 146.555 196.167C146.762 196.374 146.969 196.443 147.245 196.443C147.521 196.443 147.797 196.305 148.004 196.167C148.211 195.96 148.28 195.684 148.28 195.408C148.28 195.132 148.142 194.856 148.004 194.649C147.59 194.235 146.969 194.235 146.555 194.649C146.486 194.718 146.417 194.718 146.348 194.649C146.348 194.649 146.348 194.649 146.279 194.58C146.279 194.58 146.279 194.58 146.279 194.511L146.486 192.924C146.486 192.855 146.486 192.855 146.555 192.855L146.624 192.786H148.418C148.487 192.786 148.556 192.855 148.556 192.924C148.556 192.993 148.487 193.062 148.418 193.062H146.762L146.624 194.235C146.831 194.097 147.038 194.028 147.314 194.097C148.004 194.097 148.625 194.649 148.625 195.408C148.625 195.753 148.487 196.098 148.211 196.305C147.935 196.581 147.659 196.719 147.314 196.719C146.969 196.788 146.624 196.581 146.348 196.374Z" fill="#A6A6A6"/>
<path d="M149.661 194.787C149.661 194.304 149.799 193.821 150.006 193.407C150.213 193.062 150.558 192.855 150.972 192.855C151.386 192.855 151.731 193.062 151.938 193.407C152.214 193.821 152.352 194.304 152.352 194.787C152.352 195.27 152.214 195.753 151.938 196.167C151.731 196.512 151.386 196.719 150.972 196.788C150.558 196.788 150.213 196.512 150.006 196.167C149.799 195.753 149.661 195.27 149.661 194.787ZM149.937 194.787C149.937 195.201 150.006 195.615 150.282 195.96C150.489 196.374 150.972 196.512 151.386 196.305C151.524 196.236 151.662 196.098 151.731 195.96C152.145 195.201 152.145 194.304 151.731 193.545C151.524 193.131 151.041 192.993 150.627 193.2C150.489 193.269 150.351 193.407 150.282 193.545C150.075 193.959 149.937 194.373 149.937 194.787Z" fill="#A6A6A6"/>
<path d="M196.512 159.459H166.152V189.75H196.512V159.459Z" fill="#56BCB6"/>
<path d="M196.512 159.459H166.152V189.75H196.512V159.459Z" fill="#FED6AF"/>
<path d="M175.191 192.51C175.26 192.51 175.329 192.579 175.329 192.648V192.855C175.674 192.855 176.019 192.993 176.295 193.269C176.364 193.269 176.364 193.338 176.364 193.407C176.364 193.476 176.295 193.545 176.226 193.545C176.226 193.545 176.157 193.545 176.157 193.476C175.95 193.269 175.605 193.131 175.329 193.131V194.649C176.157 194.856 176.502 195.132 176.502 195.684C176.433 196.305 175.95 196.719 175.329 196.719V197.133C175.329 197.202 175.26 197.271 175.191 197.271C175.122 197.271 175.053 197.202 175.053 197.133V196.719C174.57 196.65 174.156 196.512 173.811 196.167C173.742 196.167 173.742 196.098 173.742 196.029C173.742 195.96 173.811 195.891 173.88 195.891C173.949 195.891 173.949 195.891 173.949 195.96C174.225 196.236 174.639 196.443 175.053 196.443V194.856C174.225 194.649 173.88 194.373 173.88 193.821C173.949 193.2 174.432 192.786 175.053 192.786V192.579C175.053 192.579 175.122 192.51 175.191 192.51ZM175.053 194.58V193.062C174.501 193.062 174.156 193.407 174.156 193.752C174.225 194.097 174.363 194.442 175.053 194.58ZM175.329 194.925V196.443C175.881 196.443 176.226 196.098 176.226 195.684C176.226 195.27 176.019 195.132 175.329 194.925Z" fill="#A6A6A6"/>
<path d="M177.192 196.512L178.986 194.856C179.193 194.649 179.331 194.373 179.331 194.097C179.331 193.545 178.917 193.131 178.365 193.131C178.089 193.131 177.882 193.2 177.675 193.407L177.468 193.545C177.399 193.614 177.33 193.614 177.261 193.545C177.192 193.476 177.192 193.407 177.261 193.338L177.468 193.131C177.675 192.924 178.02 192.786 178.296 192.786C178.986 192.786 179.538 193.338 179.538 194.028C179.538 194.373 179.4 194.718 179.124 194.994L177.606 196.374H179.4C179.469 196.374 179.538 196.443 179.538 196.512C179.538 196.581 179.469 196.65 179.4 196.65H177.33C177.261 196.65 177.261 196.65 177.261 196.581C177.192 196.65 177.192 196.512 177.192 196.512Z" fill="#A6A6A6"/>
<path d="M180.919 196.167C181.057 196.167 181.195 196.305 181.195 196.443C181.195 196.581 181.057 196.719 180.919 196.719C180.781 196.719 180.643 196.581 180.643 196.443C180.643 196.305 180.712 196.167 180.919 196.167Z" fill="#A6A6A6"/>
<path d="M181.677 194.787C181.677 194.304 181.815 193.821 182.022 193.407C182.298 192.855 182.988 192.648 183.54 192.993C183.747 193.062 183.885 193.269 183.954 193.407C184.23 193.821 184.368 194.304 184.299 194.787C184.299 195.27 184.161 195.753 183.954 196.167C183.678 196.719 182.988 196.926 182.505 196.65C182.298 196.581 182.16 196.374 182.022 196.167C181.815 195.753 181.677 195.27 181.677 194.787ZM181.953 194.787C181.953 195.201 182.022 195.615 182.298 195.96C182.436 196.236 182.712 196.374 183.057 196.443C183.333 196.443 183.609 196.236 183.816 195.96C184.23 195.201 184.23 194.304 183.816 193.545C183.678 193.269 183.402 193.131 183.057 193.062C182.781 193.062 182.436 193.269 182.298 193.545C182.091 193.959 181.953 194.373 181.953 194.787Z" fill="#A6A6A6"/>
<path d="M185.61 194.787C185.61 194.304 185.748 193.821 185.955 193.407C186.231 192.855 186.921 192.648 187.473 192.993C187.68 193.062 187.818 193.269 187.887 193.407C188.163 193.821 188.301 194.304 188.232 194.787C188.232 195.27 188.094 195.753 187.887 196.167C187.611 196.719 186.921 196.926 186.438 196.65C186.231 196.581 186.093 196.374 185.955 196.167C185.748 195.753 185.61 195.27 185.61 194.787ZM185.886 194.787C185.886 195.201 185.955 195.615 186.231 195.96C186.369 196.236 186.645 196.374 186.99 196.443C187.335 196.443 187.542 196.236 187.749 195.96C188.163 195.201 188.163 194.304 187.749 193.545C187.611 193.269 187.335 193.131 186.99 193.062C186.714 193.062 186.369 193.269 186.231 193.545C185.955 193.959 185.886 194.373 185.886 194.787Z" fill="#A6A6A6"/>
<path d="M124.752 216.315H94.4609V246.675H124.752V216.315Z" fill="#56BCB6"/>
<path opacity="0.5" d="M124.752 216.315H94.4609V246.675H124.752V216.315Z" fill="white"/>
<path d="M102.603 231.909C102.603 237.222 104.742 245.571 104.949 245.571H113.919C114.195 245.571 117.23 238.395 117.23 231.288C117.23 223.836 112.056 222.525 112.056 222.042V219.213H106.812V222.042C106.812 222.525 102.603 225.354 102.603 231.909ZM112.608 224.526C115.161 224.526 117.3 231.495 115.368 232.185C112.677 233.082 110.262 224.526 112.608 224.526Z" fill="white"/>
<path d="M110.124 224.526C110.262 222.732 106.329 223.146 104.673 229.011C103.431 233.427 104.811 242.604 109.227 242.604C114.471 242.604 114.816 234.876 114.471 234.531C114.126 234.186 109.434 232.53 110.124 224.526Z" fill="#EBEBEB"/>
<path d="M105.708 220.8H113.16L112.608 217.557H106.191L105.708 220.8Z" fill="#455A64"/>
<path d="M103.776 250.47C103.845 250.47 103.914 250.539 103.914 250.608V250.815C104.259 250.815 104.604 250.953 104.88 251.229C104.949 251.229 104.949 251.298 104.949 251.367C104.949 251.436 104.88 251.505 104.811 251.505C104.742 251.505 104.742 251.505 104.742 251.505C104.535 251.298 104.19 251.16 103.914 251.16V252.678C104.742 252.885 105.087 253.161 105.087 253.713C105.087 254.334 104.535 254.748 103.914 254.748C103.914 254.748 103.914 254.748 103.845 254.748V255.162C103.845 255.231 103.776 255.3 103.707 255.3C103.638 255.3 103.569 255.231 103.569 255.162V254.748C103.086 254.679 102.672 254.541 102.327 254.196C102.258 254.196 102.258 254.127 102.258 254.058C102.258 253.989 102.327 253.92 102.396 253.92C102.465 253.92 102.465 253.92 102.465 253.92C102.741 254.196 103.155 254.403 103.569 254.403V252.816C102.741 252.609 102.396 252.333 102.396 251.781C102.465 251.16 102.948 250.746 103.569 250.746V250.539C103.638 250.539 103.707 250.47 103.776 250.47ZM103.638 252.54V251.022C103.086 251.022 102.741 251.367 102.741 251.781C102.741 252.195 102.948 252.402 103.638 252.54ZM103.914 252.885V254.403C104.466 254.403 104.811 254.058 104.811 253.644C104.811 253.23 104.604 253.092 103.914 252.885Z" fill="#A6A6A6"/>
<path d="M105.846 254.265C105.777 254.196 105.777 254.127 105.846 254.058C105.915 253.989 105.984 253.989 106.053 254.058C106.26 254.265 106.536 254.334 106.812 254.334C107.088 254.334 107.295 254.196 107.502 254.058C107.916 253.644 107.916 253.023 107.502 252.609C107.088 252.195 106.467 252.195 106.053 252.609C105.984 252.678 105.915 252.678 105.846 252.609C105.846 252.609 105.846 252.609 105.777 252.54C105.777 252.54 105.777 252.54 105.777 252.471L105.984 250.884C105.984 250.815 105.984 250.815 106.053 250.815C106.053 250.815 106.122 250.746 106.122 250.815H107.916C107.985 250.815 108.054 250.884 108.054 250.953C108.054 251.022 107.985 251.091 107.916 251.091H106.26L106.122 252.264C106.329 252.126 106.605 252.057 106.812 252.126C107.502 252.126 108.123 252.678 108.123 253.437C108.123 253.782 107.985 254.127 107.709 254.403C107.226 254.817 106.398 254.817 105.846 254.265Z" fill="#A6A6A6"/>
<path d="M109.572 254.127C109.71 254.127 109.848 254.265 109.848 254.403C109.848 254.541 109.71 254.679 109.572 254.679C109.434 254.679 109.296 254.541 109.296 254.403C109.296 254.265 109.434 254.127 109.572 254.127Z" fill="#A6A6A6"/>
<path d="M110.331 252.747C110.331 252.264 110.469 251.781 110.676 251.367C110.952 250.815 111.642 250.608 112.194 250.953C112.401 251.022 112.539 251.229 112.608 251.367C112.884 251.781 113.022 252.264 112.953 252.747C112.953 253.23 112.815 253.713 112.608 254.127C112.332 254.679 111.642 254.886 111.159 254.61C110.952 254.541 110.814 254.334 110.676 254.127C110.469 253.713 110.331 253.23 110.331 252.747ZM110.607 252.747C110.607 253.161 110.676 253.575 110.952 253.92C111.09 254.196 111.366 254.334 111.711 254.403C111.987 254.403 112.263 254.196 112.47 253.92C112.884 253.161 112.884 252.264 112.47 251.505C112.332 251.229 112.056 251.091 111.711 251.022C111.435 251.022 111.09 251.229 110.952 251.505C110.745 251.919 110.607 252.333 110.607 252.747Z" fill="#A6A6A6"/>
<path d="M114.265 252.747C114.265 252.264 114.403 251.781 114.61 251.367C114.886 250.815 115.576 250.608 116.128 250.953C116.335 251.022 116.473 251.229 116.542 251.367C116.818 251.781 116.956 252.264 116.887 252.747C116.887 253.23 116.749 253.713 116.542 254.127C116.266 254.679 115.576 254.886 115.093 254.61C114.886 254.541 114.748 254.334 114.61 254.127C114.403 253.713 114.265 253.23 114.265 252.747ZM114.541 252.747C114.541 253.161 114.61 253.575 114.886 253.92C115.024 254.196 115.3 254.334 115.645 254.403C115.921 254.403 116.197 254.196 116.404 253.92C116.818 253.161 116.818 252.264 116.404 251.505C116.266 251.229 115.99 251.091 115.645 251.022C115.369 251.022 115.024 251.229 114.886 251.505C114.679 251.919 114.541 252.333 114.541 252.747Z" fill="#A6A6A6"/>
<path d="M160.563 216.315H130.272V246.675H160.563V216.315Z" fill="#56BCB6"/>
<path opacity="0.5" d="M160.563 216.315H130.272V246.675H160.563V216.315Z" fill="white"/>
<path d="M172.914 123.372H190.371C192.096 123.372 193.545 124.752 193.545 126.546V137.103C193.545 138.828 192.165 140.277 190.371 140.277H172.914C171.189 140.277 169.74 138.897 169.74 137.103V126.546C169.74 124.821 171.12 123.372 172.914 123.372Z" fill="white"/>
<path d="M190.785 121.302H172.431V123.441H190.785V121.302Z" fill="#455A64"/>
<path d="M193.683 127.512H169.74V136.206H193.683V127.512Z" fill="#455A64"/>
<path d="M188.853 131.859C188.853 133.86 185.61 135.516 181.608 135.516C177.606 135.516 174.363 133.86 174.363 131.859C174.363 129.858 177.606 128.202 181.608 128.202C185.61 128.202 188.853 129.789 188.853 131.859Z" fill="white"/>
<path d="M139.518 250.47C139.587 250.47 139.656 250.539 139.656 250.608V250.815C140.001 250.815 140.346 250.953 140.622 251.229C140.691 251.229 140.691 251.367 140.691 251.436C140.691 251.505 140.622 251.505 140.553 251.505C140.484 251.505 140.484 251.505 140.484 251.505C140.277 251.298 139.932 251.16 139.656 251.16V252.678C140.484 252.885 140.829 253.161 140.829 253.713C140.76 254.334 140.277 254.748 139.656 254.748V255.162C139.656 255.231 139.587 255.3 139.518 255.3C139.449 255.3 139.38 255.231 139.38 255.162V254.748C138.897 254.679 138.483 254.541 138.138 254.196C138.069 254.196 138.069 254.127 138.069 254.058C138.069 253.989 138.138 253.92 138.207 253.92C138.276 253.92 138.276 253.92 138.276 253.92C138.552 254.196 138.966 254.403 139.38 254.403V252.816C138.552 252.609 138.207 252.333 138.207 251.781C138.276 251.16 138.759 250.746 139.38 250.746V250.539C139.38 250.539 139.449 250.47 139.518 250.47ZM139.449 252.54V251.022C138.897 251.022 138.552 251.367 138.552 251.781C138.552 252.195 138.69 252.402 139.449 252.54ZM139.656 252.885V254.403C140.208 254.403 140.553 254.058 140.553 253.644C140.553 253.23 140.346 253.092 139.656 252.885Z" fill="#A6A6A6"/>
<path d="M143.797 253.851H141.658C141.589 253.851 141.52 253.782 141.52 253.713C141.52 253.644 141.52 253.644 141.589 253.644L143.797 250.884C143.866 250.815 143.935 250.815 144.004 250.884C144.004 250.884 144.004 250.953 144.073 250.953V253.644H144.349C144.418 253.644 144.487 253.644 144.487 253.782C144.487 253.851 144.487 253.92 144.349 253.92H144.28H144.004V254.61C144.004 254.679 143.935 254.748 143.866 254.748C143.797 254.748 143.728 254.679 143.728 254.61L143.797 253.851ZM143.797 253.644V251.367L142.003 253.644H143.797Z" fill="#A6A6A6"/>
<path d="M145.659 254.127C145.797 254.127 145.935 254.265 145.935 254.403C145.935 254.541 145.797 254.679 145.659 254.679C145.521 254.679 145.383 254.541 145.383 254.403C145.383 254.265 145.521 254.127 145.659 254.127Z" fill="#A6A6A6"/>
<path d="M146.556 254.265C146.487 254.196 146.487 254.127 146.556 254.058C146.625 253.989 146.694 253.989 146.763 254.058C146.97 254.265 147.246 254.334 147.522 254.334C147.798 254.334 148.074 254.196 148.281 254.058C148.695 253.644 148.695 253.023 148.281 252.609C147.867 252.195 147.246 252.195 146.832 252.609C146.763 252.678 146.694 252.678 146.625 252.609C146.625 252.609 146.625 252.609 146.556 252.54C146.556 252.54 146.556 252.54 146.556 252.471L146.763 250.884C146.763 250.815 146.763 250.815 146.832 250.815C146.832 250.815 146.901 250.746 146.901 250.815H148.695C148.764 250.815 148.833 250.884 148.833 250.953C148.833 251.022 148.764 251.091 148.695 251.091H146.97L146.832 252.264C147.039 252.126 147.315 252.057 147.522 252.126C148.212 252.126 148.833 252.678 148.833 253.437C148.833 253.782 148.695 254.127 148.419 254.403C147.936 254.817 147.108 254.817 146.556 254.265Z" fill="#A6A6A6"/>
<path d="M149.868 252.747C149.868 252.264 150.006 251.781 150.213 251.367C150.489 250.815 151.179 250.608 151.731 250.953C151.938 251.022 152.076 251.229 152.145 251.367C152.421 251.781 152.559 252.264 152.49 252.747C152.49 253.23 152.352 253.713 152.145 254.127C151.869 254.679 151.179 254.886 150.696 254.61C150.489 254.541 150.351 254.334 150.213 254.127C150.006 253.713 149.868 253.23 149.868 252.747ZM150.144 252.747C150.144 253.161 150.213 253.575 150.489 253.92C150.696 254.334 151.179 254.472 151.593 254.265C151.731 254.196 151.869 254.058 151.938 253.92C152.352 253.161 152.352 252.264 151.938 251.505C151.731 251.091 151.248 250.953 150.834 251.16C150.696 251.229 150.558 251.367 150.489 251.505C150.282 251.919 150.144 252.333 150.144 252.747Z" fill="#A6A6A6"/>
<path d="M196.512 216.315H166.152V246.675H196.512V216.315Z" fill="#56BCB6"/>
<path opacity="0.5" d="M196.512 216.315H166.152V246.675H196.512V216.315Z" fill="white"/>
<path d="M188.508 235.497V243.57H174.087V235.497C174.087 232.668 174.777 225.285 181.263 225.285C187.749 225.285 188.508 232.668 188.508 235.497Z" fill="white"/>
<path d="M188.922 244.605H173.673C173.259 244.605 172.914 244.26 172.914 243.846C172.914 243.432 173.259 243.087 173.673 243.087H188.922C189.336 243.087 189.681 243.432 189.681 243.846C189.681 244.26 189.336 244.605 188.922 244.605Z" fill="white"/>
<path d="M183.609 223.629H179.055V227.079H183.609V223.629Z" fill="white"/>
<path d="M184.092 221.904H178.503V224.181H184.092V221.904Z" fill="#455A64"/>
<path d="M182.367 219.696H180.297V222.318H182.367V219.696Z" fill="#455A64"/>
<path d="M179.123 218.799C178.64 219.075 178.502 219.696 178.778 220.11C178.847 220.248 178.985 220.386 179.192 220.455C179.882 220.869 183.539 219.972 183.953 219.972C184.367 219.972 185.264 220.455 185.402 220.455C185.54 220.455 185.954 220.248 185.885 220.041C185.264 219.42 184.505 218.937 183.677 218.73C182.711 218.523 179.951 218.178 179.123 218.799Z" fill="#455A64"/>
<path d="M175.398 250.47C175.467 250.47 175.536 250.539 175.536 250.608V250.815C175.881 250.815 176.226 250.953 176.502 251.229C176.571 251.229 176.571 251.298 176.571 251.367C176.571 251.436 176.502 251.505 176.433 251.505C176.364 251.505 176.364 251.505 176.364 251.505C176.157 251.298 175.812 251.16 175.536 251.16V252.678C176.364 252.885 176.709 253.161 176.709 253.713C176.709 254.334 176.157 254.748 175.536 254.748C175.536 254.748 175.536 254.748 175.467 254.748V255.162C175.467 255.231 175.398 255.3 175.329 255.3C175.26 255.3 175.191 255.231 175.191 255.162V254.748C174.708 254.679 174.294 254.541 173.949 254.196C173.88 254.196 173.88 254.127 173.88 254.058C173.88 253.989 173.949 253.92 174.018 253.92C174.087 253.92 174.087 253.92 174.087 253.92C174.363 254.196 174.777 254.403 175.191 254.403V252.816C174.363 252.609 174.018 252.333 174.018 251.781C174.087 251.16 174.57 250.746 175.191 250.746V250.539C175.26 250.539 175.329 250.47 175.398 250.47ZM175.26 252.54V251.022C174.708 251.022 174.363 251.367 174.363 251.781C174.363 252.195 174.57 252.402 175.26 252.54ZM175.536 252.885V254.403C176.088 254.403 176.433 254.058 176.433 253.644C176.433 253.23 176.226 253.092 175.536 252.885Z" fill="#A6A6A6"/>
<path d="M179.744 251.022L178.709 252.057C178.985 252.126 179.192 252.195 179.399 252.402C179.675 252.678 179.813 252.954 179.744 253.368C179.744 253.713 179.606 254.058 179.33 254.265C178.847 254.748 178.019 254.748 177.467 254.265C177.398 254.196 177.467 254.127 177.467 254.058C177.536 253.989 177.605 253.989 177.605 254.058C177.812 254.265 178.088 254.334 178.364 254.334C178.64 254.334 178.916 254.196 179.123 254.058C179.33 253.851 179.399 253.575 179.399 253.299C179.399 252.747 178.916 252.264 178.364 252.264C178.295 252.264 178.295 252.264 178.226 252.195C178.157 252.126 178.157 252.057 178.226 251.988L179.192 251.022H177.743C177.674 251.022 177.605 250.953 177.605 250.884C177.605 250.815 177.674 250.746 177.743 250.746H179.537C179.606 250.746 179.675 250.815 179.675 250.884C179.813 250.953 179.813 251.022 179.744 251.022Z" fill="#A6A6A6"/>
<path d="M181.194 254.127C181.332 254.127 181.47 254.265 181.47 254.403C181.47 254.541 181.332 254.679 181.194 254.679C181.056 254.679 180.918 254.541 180.918 254.403C180.918 254.265 181.056 254.127 181.194 254.127Z" fill="#A6A6A6"/>
<path d="M182.091 254.265C182.022 254.196 182.022 254.127 182.091 254.058C182.16 253.989 182.229 253.989 182.298 254.058C182.505 254.265 182.781 254.334 183.057 254.334C183.333 254.334 183.54 254.196 183.747 254.058C184.161 253.644 184.161 253.023 183.747 252.609C183.333 252.195 182.712 252.195 182.298 252.609C182.229 252.678 182.16 252.678 182.091 252.609C182.091 252.609 182.091 252.609 182.091 252.54C182.091 252.54 182.091 252.54 182.091 252.471L182.298 250.884C182.298 250.815 182.298 250.815 182.367 250.815C182.367 250.815 182.436 250.746 182.436 250.815H184.299C184.368 250.815 184.437 250.884 184.437 250.953C184.437 251.022 184.368 251.091 184.299 251.091H182.643L182.505 252.264C182.712 252.126 182.988 252.057 183.195 252.126C183.885 252.126 184.506 252.678 184.506 253.437C184.506 253.782 184.368 254.127 184.161 254.403C183.471 254.817 182.643 254.817 182.091 254.265Z" fill="#A6A6A6"/>
<path d="M185.402 252.747C185.402 252.264 185.54 251.781 185.747 251.367C186.023 250.815 186.713 250.608 187.265 250.953C187.472 251.022 187.61 251.229 187.679 251.367C187.955 251.781 188.093 252.264 188.024 252.747C188.024 253.23 187.886 253.713 187.679 254.127C187.403 254.679 186.713 254.886 186.23 254.61C186.023 254.541 185.885 254.334 185.747 254.127C185.54 253.713 185.402 253.23 185.402 252.747ZM185.678 252.747C185.678 253.161 185.747 253.575 186.023 253.92C186.161 254.196 186.437 254.334 186.782 254.403C187.058 254.403 187.334 254.196 187.541 253.92C187.955 253.161 187.955 252.264 187.541 251.505C187.403 251.229 187.127 251.091 186.782 251.022C186.506 251.022 186.23 251.229 186.023 251.505C185.816 251.919 185.678 252.333 185.678 252.747Z" fill="#A6A6A6"/>
<path d="M157.251 135.24C156.492 135.516 134.964 135.585 134.136 135.033C133.86 134.826 133.515 131.307 133.86 127.65L147.729 127.788C147.729 127.788 155.664 131.514 156.492 132.204C157.32 132.894 158.01 135.033 157.251 135.24Z" fill="#455A64"/>
<path d="M157.596 134.826C157.596 135.033 157.458 135.24 157.251 135.309C156.492 135.585 134.964 135.585 134.136 135.102C133.998 134.895 133.929 134.688 133.929 134.412H152.145C152.214 133.584 152.628 132.894 153.18 132.273C153.732 131.79 154.422 131.445 155.181 131.445C155.664 131.652 156.078 131.928 156.561 132.204C157.182 132.825 157.527 133.584 157.596 134.412C157.596 134.55 157.596 134.688 157.596 134.826Z" fill="white"/>
<path d="M156.906 134.412C153.318 134.274 138.759 134.205 135.171 134.343C138.759 134.55 153.318 134.55 156.906 134.412C157.044 134.481 157.044 134.412 156.906 134.412Z" fill="#263238"/>
<path d="M155.112 131.376C154.284 131.376 153.525 131.652 152.973 132.273C152.49 132.756 152.145 133.446 152.145 134.205H152.214C152.49 132.756 153.663 131.652 155.112 131.376C155.181 131.445 155.181 131.445 155.112 131.376C155.181 131.445 155.181 131.376 155.112 131.376Z" fill="#263238"/>
<path d="M148.832 128.133C147.383 128.133 145.727 128.616 144.83 129.789C144.761 129.858 144.83 129.858 144.899 129.858C146.141 129.237 147.521 128.685 148.901 128.34C148.97 128.34 148.97 128.271 148.97 128.202C148.901 128.202 148.901 128.133 148.832 128.133Z" fill="#263238"/>
<path d="M150.006 128.616C148.557 128.616 146.901 129.099 146.004 130.272C146.004 130.341 146.004 130.341 146.073 130.341C147.315 129.72 148.695 129.168 150.075 128.823C150.144 128.823 150.144 128.754 150.144 128.685C150.075 128.616 150.006 128.616 150.006 128.616Z" fill="#263238"/>
<path d="M151.109 129.03C149.66 129.03 148.004 129.513 147.107 130.686C147.107 130.755 147.107 130.755 147.176 130.755C148.418 130.134 149.798 129.582 151.178 129.237C151.247 129.237 151.247 129.168 151.247 129.099C151.178 129.03 151.109 129.03 151.109 129.03Z" fill="#263238"/>
<path d="M152.213 129.444C150.764 129.444 149.108 129.927 148.211 131.1C148.211 131.169 148.211 131.169 148.28 131.169C149.522 130.548 150.902 129.996 152.282 129.651C152.351 129.651 152.351 129.582 152.351 129.513C152.282 129.513 152.213 129.444 152.213 129.444Z" fill="#263238"/>
<path d="M136.137 130.341C134.55 130.341 134.481 132.825 136.137 132.825C137.793 132.825 137.793 130.341 136.137 130.341Z" fill="white"/>
<path d="M150.489 124.338C149.73 123.717 148.833 124.338 148.35 124.959C147.729 125.787 147.315 126.822 147.108 127.857C147.108 127.995 147.039 128.133 147.039 128.271C147.039 128.34 147.039 128.409 147.039 128.478C147.039 128.547 147.039 128.478 147.039 128.478C147.039 128.478 147.039 128.478 147.039 128.547C147.039 128.616 147.039 128.616 147.039 128.685C147.039 128.754 147.039 128.754 147.108 128.754C147.108 128.823 147.177 128.892 147.246 128.892C147.315 128.892 147.315 128.892 147.384 128.892C147.66 128.685 147.936 128.478 148.281 128.34L148.419 128.271C149.178 127.857 149.799 127.305 150.42 126.615C150.765 125.856 151.11 124.89 150.489 124.338ZM148.695 127.374C148.488 127.581 148.212 127.719 147.936 127.857C147.66 127.995 147.522 128.133 147.315 128.34L147.246 128.409L147.177 128.478V128.409L147.384 127.857C147.522 127.374 147.729 126.891 148.005 126.408C148.143 126.063 148.35 125.787 148.557 125.442C148.902 124.959 150.282 123.786 150.42 125.373C150.489 126.063 149.247 126.96 148.695 127.374Z" fill="#263238"/>
<path d="M147.314 128.478C147.314 128.478 147.314 128.409 147.314 128.478L147.245 128.34C147.176 128.271 147.176 128.271 147.107 128.202C146.9 128.064 146.693 127.926 146.486 127.788C145.727 127.236 144.83 126.891 143.864 126.684C143.105 126.546 142.001 126.753 141.932 127.65V127.719C141.863 128.547 142.76 128.961 143.45 129.099C144.209 129.168 144.968 129.168 145.658 129.03C146.21 128.961 146.693 128.823 147.176 128.754C147.314 128.685 147.383 128.616 147.314 128.478ZM145.313 128.685C144.554 128.754 143.105 128.961 142.553 128.271C142.415 128.133 142.346 127.926 142.277 127.719C142.139 126.96 143.519 126.96 144.002 127.029C144.347 127.098 144.761 127.236 145.106 127.374C145.382 127.443 145.589 127.581 145.865 127.719C146.279 127.926 146.693 128.133 147.107 128.34L147.176 128.409H147.107H146.9C146.279 128.547 145.796 128.616 145.313 128.685Z" fill="#263238"/>
<path d="M101.499 129.237H98.3252V136.482H101.499V129.237Z" fill="#455A64"/>
<path d="M98.3246 129.996H96.8066V135.654H98.3246V129.996Z" fill="#DBDBDB"/>
<path d="M98.3254 129.996H97.5664V135.654H98.3254V129.996Z" fill="#C7C7C7"/>
<path d="M114.057 129.237H110.883V136.482H114.057V129.237Z" fill="#455A64"/>
<path d="M115.575 129.996H114.057V135.654H115.575V129.996Z" fill="#DBDBDB"/>
<path d="M114.816 129.996H114.057V135.654H114.816V129.996Z" fill="#C7C7C7"/>
<path d="M110.882 131.445H101.498V134.205H110.882V131.445Z" fill="#C7C7C7"/>
<path d="M108.537 123.165H105.363V130.41H108.537V123.165Z" fill="#455A64"/>
<path d="M105.363 123.924H103.845V129.582H105.363V123.924Z" fill="#DBDBDB"/>
<path d="M105.363 123.924H104.604V129.582H105.363V123.924Z" fill="#C7C7C7"/>
<path d="M121.095 123.165H117.921V130.41H121.095V123.165Z" fill="#455A64"/>
<path d="M122.613 123.924H121.095V129.582H122.613V123.924Z" fill="#DBDBDB"/>
<path d="M121.854 123.924H121.095V129.582H121.854V123.924Z" fill="#C7C7C7"/>
<path d="M117.92 125.373H108.536V128.133H117.92V125.373Z" fill="#C7C7C7"/>
<path d="M152.394 98.8679C152.737 98.8679 153.015 98.5899 153.015 98.2469C153.015 97.904 152.737 97.6259 152.394 97.6259C152.051 97.6259 151.773 97.904 151.773 98.2469C151.773 98.5899 152.051 98.8679 152.394 98.8679Z" fill="#002554"/>
<path d="M159.156 94.2449C158.88 93.3479 158.121 92.9339 157.293 92.9339C156.051 92.9339 155.223 93.8999 155.223 95.4179C155.223 96.9359 156.051 97.9019 157.293 97.9019C158.19 97.9019 158.88 97.4189 159.156 96.5219H160.26C159.846 98.2469 158.466 98.8679 157.293 98.8679C155.706 98.8679 154.119 97.8329 154.119 95.4179C154.119 93.0029 155.706 91.968 157.293 91.968C158.535 91.968 159.846 92.5889 160.26 94.3139H159.156V94.2449Z" fill="#002554"/>
<path d="M161.089 95.3489C161.089 92.9339 162.607 91.8989 164.263 91.8989C165.919 91.8989 167.437 92.9339 167.437 95.3489C167.437 97.8329 165.919 98.7989 164.263 98.7989C162.538 98.7989 161.089 97.8329 161.089 95.3489ZM166.333 95.3489C166.333 93.7619 165.505 92.8649 164.263 92.8649C162.952 92.8649 162.124 93.7619 162.124 95.3489C162.124 96.9359 162.883 97.8329 164.263 97.8329C165.574 97.8329 166.333 96.9359 166.333 95.3489Z" fill="#002554"/>
<path d="M169.576 91.968H170.887L172.75 97.557L174.613 91.968H175.924L177.166 98.7299H176.062L175.096 93.417L173.302 98.7299H172.198L170.404 93.417L169.438 98.7299H168.334L169.576 91.968Z" fill="#002554"/>
<path d="M130.998 77.5379V89.3619H128.266V81.1355L123.024 87.4702H122.889L117.645 81.1355V89.3619H114.999V77.5379H117.971L123.025 83.7892L128.079 77.5379H130.998Z" fill="#002554"/>
<path d="M146.575 87.0986V89.3619H134.264V77.5379H146.404V79.8012H136.979V82.2339H144.85V84.4972H136.979V87.0997L146.575 87.0986Z" fill="#002554"/>
<path d="M159.543 89.3619L156.111 85.3418H151.791V89.3619H149.076V77.5379H157.323C160.243 77.5379 162.446 78.8724 162.446 81.4397C162.446 83.4498 161.096 84.6998 159.116 85.1561L162.804 89.3619H159.543ZM157.17 83.1123C158.604 83.1123 159.663 82.7739 159.663 81.4569C159.663 80.1398 158.605 79.8012 157.17 79.8012H151.773V83.1131L157.17 83.1123Z" fill="#002554"/>
<path d="M177.726 77.5379V83.7892C177.726 87.3363 175.353 89.7349 171.016 89.7349C166.679 89.7349 164.306 87.3363 164.306 83.7892V77.5379H167.038V83.585C167.038 85.95 168.438 87.368 171.016 87.368C173.594 87.368 174.995 85.9489 174.995 83.585V77.5379H177.726Z" fill="#002554"/>
<path d="M107.092 180.338L107.063 181.373L113.685 181.557L113.714 180.523L107.092 180.338Z" fill="#455A64"/>
<path d="M107.066 180.309L107.047 180.999L113.668 181.184L113.688 180.494L107.066 180.309Z" fill="#263238"/>
<path d="M99.2902 177.33C100.187 178.779 102.05 179.4 103.637 178.848C103.982 178.71 104.258 178.572 104.603 178.365L103.775 177.123C103.637 177.261 103.43 177.33 103.292 177.399C102.257 177.813 101.084 177.468 100.532 176.502C99.7042 175.191 99.4282 172.293 100.394 171.189C100.463 171.12 100.739 170.982 101.774 171.258C101.981 171.327 102.188 171.396 102.464 171.465C102.671 171.534 102.878 171.603 103.085 171.603L103.154 170.844L103.223 170.085L102.878 170.016C102.395 169.878 101.912 169.74 101.36 169.671C100.601 169.602 99.7732 169.671 99.2212 170.223C97.7032 172.017 98.1862 175.743 99.2902 177.33Z" fill="#455A64"/>
<path d="M103.775 177.123C103.637 177.261 103.43 177.33 103.292 177.399L103.637 178.848C103.982 178.71 104.258 178.572 104.603 178.365L103.775 177.123Z" fill="#263238"/>
<path d="M101.36 169.671L101.774 171.258C101.981 171.327 102.188 171.396 102.464 171.465C102.671 171.534 102.878 171.603 103.085 171.603L103.154 170.844L103.223 170.085L102.878 170.016C102.395 169.809 101.843 169.74 101.36 169.671Z" fill="#263238"/>
<path d="M119.506 168.222C119.506 168.222 118.54 174.915 117.091 177.744C115.642 180.573 113.71 180.78 112.537 180.78L110.398 180.711L108.259 180.642C107.086 180.642 105.154 180.228 103.912 177.399C102.601 174.501 101.98 167.739 101.98 167.739L119.506 168.222Z" fill="#455A64"/>
<path d="M158.424 178.434L137.241 178.986L136.827 176.571L141.519 174.915L143.175 171.051L152.559 170.085L154.905 173.949L158.148 175.26L158.424 178.434Z" fill="white"/>
<path d="M137.24 178.986L134.411 176.502L134.342 174.225L136.826 176.571L137.24 178.986Z" fill="#C7C7C7"/>
<path d="M138.689 172.431L141.518 174.915L143.174 171.051L140.276 168.843L138.689 172.431Z" fill="#C7C7C7"/>
<path d="M136.826 176.571L134.342 174.225L138.689 172.431L141.518 174.915L136.826 176.571Z" fill="#DBDBDB"/>
<path d="M140.275 168.843L143.173 171.051L152.557 170.085L149.728 167.877L140.275 168.843Z" fill="#DBDBDB"/>
<path d="M147.521 171.465L147.728 174.363L142.622 174.777L143.864 171.879L147.521 171.465Z" fill="#DBDBDB"/>
<path d="M153.663 173.88L148.419 174.294L148.143 171.396L151.938 170.982L153.663 173.88Z" fill="#DBDBDB"/>
<path d="M141.106 173.811L139.312 172.362L140.416 169.878L142.21 171.327L141.106 173.811Z" fill="white"/>
<path d="M134.48 175.26C134.411 175.26 134.343 175.329 134.274 175.398C134.136 175.536 134.136 175.743 134.204 175.95C134.204 176.088 134.342 176.226 134.48 176.226C134.618 176.226 134.756 176.088 134.756 175.95C134.825 175.743 134.825 175.191 134.48 175.26Z" fill="#EBEBEB"/>
<path d="M136.344 176.985C136.275 176.985 136.206 177.054 136.137 177.123C135.999 177.261 135.999 177.468 136.068 177.675C136.137 177.813 136.206 177.951 136.344 177.951C136.482 177.951 136.62 177.813 136.62 177.675C136.758 177.468 136.689 176.916 136.344 176.985Z" fill="#EBEBEB"/>
<path d="M141.656 177.054C139.448 176.433 138.551 179.883 140.759 180.435C142.967 181.056 143.864 177.675 141.656 177.054Z" fill="#A6A6A6"/>
<path d="M141.45 177.951C140.415 177.675 139.932 179.331 141.036 179.607C142.071 179.814 142.485 178.227 141.45 177.951Z" fill="#DBDBDB"/>
<path d="M154.008 177.123C151.8 176.502 150.903 179.952 153.111 180.504C155.25 181.056 156.147 177.675 154.008 177.123Z" fill="#A6A6A6"/>
<path d="M153.732 177.951C152.697 177.675 152.214 179.262 153.318 179.607C154.422 179.952 154.767 178.296 153.732 177.951Z" fill="#DBDBDB"/>
<path d="M148.211 174.846C148.211 174.846 148.142 174.777 148.211 174.846C148.142 174.777 148.142 174.846 148.211 174.846C148.142 174.846 148.142 174.846 148.211 174.846C148.073 175.95 148.142 177.054 148.349 178.158C148.349 178.158 148.349 178.227 148.418 178.227C148.418 178.227 148.487 178.227 148.487 178.158C148.349 176.985 148.211 175.95 148.211 174.846Z" fill="#A6A6A6"/>
<path d="M147.384 175.191C147.246 175.191 146.763 175.191 146.694 175.26C146.625 175.26 146.625 175.329 146.625 175.398L146.694 175.467C146.901 175.536 147.177 175.536 147.384 175.467C147.591 175.467 147.591 175.191 147.384 175.191Z" fill="#A6A6A6"/>
<path d="M153.248 174.777C153.11 174.777 152.627 174.777 152.558 174.846C152.489 174.846 152.489 174.915 152.489 174.984C152.489 174.984 152.489 175.053 152.558 175.053C152.765 175.122 153.041 175.122 153.248 175.053C153.455 174.984 153.455 174.777 153.248 174.777Z" fill="#A6A6A6"/>
<path d="M189.68 166.635V175.743C189.68 175.95 189.542 176.157 189.335 176.295L176.432 183.747C176.225 183.885 175.949 183.954 175.742 183.954V174.501L189.68 166.635Z" fill="white"/>
<path opacity="0.2" d="M178.295 176.571V180.573C178.295 180.849 178.157 181.125 177.881 181.263L176.432 182.091C176.225 182.229 175.949 182.298 175.742 182.298V177.33C176.018 177.33 176.225 177.261 176.501 177.123L177.881 176.295C178.019 176.226 178.226 176.226 178.295 176.433C178.295 176.433 178.295 176.502 178.295 176.571Z" fill="black"/>
<path d="M175.674 173.466V183.954H175.26C174.915 183.954 174.57 183.816 174.225 183.678L172.776 182.85C172.431 182.643 172.293 182.436 172.224 182.229V173.535H175.674V173.466Z" fill="white"/>
<path opacity="0.3" d="M175.674 173.466V183.954H175.26C174.915 183.954 174.57 183.816 174.225 183.678L172.776 182.85C172.431 182.643 172.293 182.436 172.224 182.229V173.535H175.674V173.466Z" fill="black"/>
<path d="M187.473 165.6C186.852 165.393 186.093 165.393 185.61 165.669L175.674 171.396L172.707 173.121C172.431 173.259 172.362 173.466 172.362 173.673C172.362 173.88 172.569 174.156 172.914 174.363L174.363 175.191C174.639 175.329 174.984 175.467 175.329 175.467C175.467 175.467 175.605 175.467 175.743 175.467C176.019 175.467 176.226 175.398 176.433 175.26L189.336 167.808C189.612 167.67 189.681 167.463 189.681 167.256V164.634L187.473 165.6Z" fill="white"/>
<path opacity="0.7" d="M187.473 165.6C186.852 165.393 186.093 165.393 185.61 165.669L175.674 171.396L172.707 173.121C172.431 173.259 172.362 173.466 172.362 173.673C172.362 173.88 172.569 174.156 172.914 174.363L174.363 175.191C174.639 175.329 174.984 175.467 175.329 175.467C175.467 175.467 175.605 175.467 175.743 175.467C176.019 175.467 176.226 175.398 176.433 175.26L189.336 167.808C189.612 167.67 189.681 167.463 189.681 167.256V164.634L187.473 165.6Z" fill="white"/>
<path d="M175.673 170.913V175.398H175.259C174.914 175.398 174.569 175.26 174.293 175.122L172.844 174.294C172.499 174.087 172.292 173.811 172.292 173.604V170.913H175.673Z" fill="white"/>
<path opacity="0.5" d="M175.673 170.913V175.398H175.259C174.914 175.398 174.569 175.26 174.293 175.122L172.844 174.294C172.499 174.087 172.292 173.811 172.292 173.604V170.913H175.673Z" fill="white"/>
<path d="M189.338 165.117L176.435 172.569C175.883 172.914 174.917 172.845 174.296 172.5L172.847 171.672C172.226 171.327 172.157 170.775 172.709 170.43L185.612 162.978C186.164 162.633 187.13 162.702 187.751 163.047L189.2 163.875C189.821 164.22 189.89 164.772 189.338 165.117Z" fill="white"/>
<path opacity="0.6" d="M189.338 165.117L176.435 172.569C175.883 172.914 174.917 172.845 174.296 172.5L172.847 171.672C172.226 171.327 172.157 170.775 172.709 170.43L185.612 162.978C186.164 162.633 187.13 162.702 187.751 163.047L189.2 163.875C189.821 164.22 189.89 164.772 189.338 165.117Z" fill="white"/>
<path d="M188.577 170.637L187.266 169.878C186.438 169.395 185.334 169.464 184.092 170.154C181.608 171.603 179.676 174.984 179.676 177.882C179.676 179.193 180.09 180.159 180.78 180.642C180.918 180.711 180.987 180.78 181.125 180.849L182.16 181.47L182.436 181.056C183.057 180.987 183.609 180.78 184.092 180.504C186.576 179.055 188.508 175.674 188.508 172.776C188.508 172.224 188.439 171.741 188.232 171.258L188.577 170.637Z" fill="white"/>
<path opacity="0.5" d="M188.577 170.637L187.266 169.878C186.438 169.395 185.334 169.464 184.092 170.154C181.608 171.603 179.676 174.984 179.676 177.882C179.676 179.193 180.09 180.159 180.78 180.642C180.918 180.711 180.987 180.78 181.125 180.849L182.16 181.47L182.436 181.056C183.057 180.987 183.609 180.78 184.092 180.504C186.576 179.055 188.508 175.674 188.508 172.776C188.508 172.224 188.439 171.741 188.232 171.258L188.577 170.637Z" fill="black"/>
<path d="M188.479 177.832C190.213 174.829 190.201 171.576 188.452 170.566C186.703 169.556 183.879 171.172 182.145 174.175C180.411 177.178 180.424 180.431 182.173 181.441C183.922 182.451 186.745 180.835 188.479 177.832Z" fill="white"/>
<path opacity="0.2" d="M188.479 177.832C190.213 174.829 190.201 171.576 188.452 170.566C186.703 169.556 183.879 171.172 182.145 174.175C180.411 177.178 180.424 180.431 182.173 181.441C183.922 182.451 186.745 180.835 188.479 177.832Z" fill="black"/>
<path d="M189.06 172.362L187.956 171.741C187.335 171.327 186.369 171.396 185.334 171.948C183.333 173.121 181.746 175.881 181.746 178.227C181.746 179.262 182.091 180.021 182.643 180.435C182.712 180.504 182.85 180.573 182.919 180.642L183.747 181.125L183.954 180.78C184.437 180.711 184.92 180.573 185.334 180.297C187.335 179.124 188.922 176.364 188.922 174.018C188.922 173.604 188.853 173.19 188.715 172.776L189.06 172.362Z" fill="white"/>
<path opacity="0.4" d="M189.06 172.362L187.956 171.741C187.335 171.327 186.369 171.396 185.334 171.948C183.333 173.121 181.746 175.881 181.746 178.227C181.746 179.262 182.091 180.021 182.643 180.435C182.712 180.504 182.85 180.573 182.919 180.642L183.747 181.125L183.954 180.78C184.437 180.711 184.92 180.573 185.334 180.297C187.335 179.124 188.922 176.364 188.922 174.018C188.922 173.604 188.853 173.19 188.715 172.776L189.06 172.362Z" fill="black"/>
<path d="M188.995 178.18C190.405 175.738 190.397 173.094 188.978 172.274C187.559 171.455 185.266 172.771 183.856 175.213C182.446 177.655 182.453 180.299 183.872 181.118C185.291 181.937 187.585 180.622 188.995 178.18Z" fill="white"/>
<path opacity="0.6" d="M188.038 177.628C188.915 176.11 188.903 174.462 188.012 173.947C187.121 173.433 185.688 174.247 184.812 175.765C183.935 177.283 183.947 178.93 184.838 179.445C185.729 179.959 187.162 179.146 188.038 177.628Z" fill="black"/>
<path d="M186.231 174.225C185.127 174.984 184.23 176.502 184.161 177.813C184.437 178.158 184.92 178.227 185.472 177.951C186.3 177.468 186.99 176.295 186.99 175.329C186.99 174.639 186.714 174.294 186.231 174.225Z" fill="white"/>
<path opacity="0.8" d="M186.231 174.225C185.127 174.984 184.23 176.502 184.161 177.813C184.437 178.158 184.92 178.227 185.472 177.951C186.3 177.468 186.99 176.295 186.99 175.329C186.99 174.639 186.714 174.294 186.231 174.225Z" fill="black"/>
<path d="M186.231 175.467C186.231 175.743 186.093 176.019 185.817 176.157C185.61 176.295 185.403 176.157 185.403 175.95C185.403 175.674 185.541 175.398 185.817 175.26C186.024 175.053 186.231 175.191 186.231 175.467Z" fill="#FAFAFA"/>
<path d="M176.641 177.607C176.641 177.676 176.572 177.745 176.503 177.745C176.434 177.745 176.364 177.676 176.364 177.607C176.364 177.537 176.434 177.468 176.503 177.468C176.641 177.537 176.641 177.607 176.641 177.607Z" fill="white"/>
<path d="M177.124 177.331C177.124 177.4 177.054 177.469 176.985 177.469C176.916 177.469 176.847 177.4 176.847 177.331C176.847 177.261 176.916 177.192 176.985 177.192C177.124 177.261 177.124 177.261 177.124 177.331Z" fill="white"/>
<path d="M177.606 177.055C177.606 177.124 177.537 177.193 177.468 177.193C177.398 177.193 177.329 177.124 177.329 177.055C177.329 176.985 177.398 176.916 177.468 176.916C177.606 176.985 177.606 176.985 177.606 177.055Z" fill="white"/>
<path d="M176.571 178.366C176.648 178.366 176.71 178.304 176.71 178.228C176.71 178.151 176.648 178.089 176.571 178.089C176.495 178.089 176.433 178.151 176.433 178.228C176.433 178.304 176.495 178.366 176.571 178.366Z" fill="white"/>
<path d="M177.124 177.952C177.124 178.021 177.054 178.09 176.985 178.09C176.916 178.09 176.847 178.021 176.847 177.952C176.847 177.882 176.916 177.813 176.985 177.813C177.124 177.813 177.124 177.882 177.124 177.952Z" fill="white"/>
<path d="M177.606 177.676C177.606 177.745 177.537 177.814 177.468 177.814C177.398 177.814 177.329 177.745 177.329 177.676C177.329 177.606 177.398 177.537 177.468 177.537C177.606 177.537 177.606 177.606 177.606 177.676Z" fill="white"/>
<path d="M176.571 178.987C176.648 178.987 176.71 178.925 176.71 178.849C176.71 178.772 176.648 178.71 176.571 178.71C176.495 178.71 176.433 178.772 176.433 178.849C176.433 178.925 176.495 178.987 176.571 178.987Z" fill="white"/>
<path d="M177.054 178.711C177.13 178.711 177.192 178.649 177.192 178.573C177.192 178.496 177.13 178.434 177.054 178.434C176.977 178.434 176.915 178.496 176.915 178.573C176.915 178.649 176.977 178.711 177.054 178.711Z" fill="white"/>
<path d="M177.606 178.297C177.606 178.366 177.537 178.435 177.468 178.435C177.398 178.435 177.329 178.366 177.329 178.297C177.329 178.227 177.398 178.158 177.468 178.158C177.606 178.158 177.606 178.227 177.606 178.297Z" fill="white"/>
<path d="M176.571 179.608C176.648 179.608 176.71 179.546 176.71 179.47C176.71 179.393 176.648 179.331 176.571 179.331C176.495 179.331 176.433 179.393 176.433 179.47C176.433 179.546 176.495 179.608 176.571 179.608Z" fill="white"/>
<path d="M177.054 179.332C177.13 179.332 177.192 179.27 177.192 179.194C177.192 179.117 177.13 179.055 177.054 179.055C176.977 179.055 176.915 179.117 176.915 179.194C176.915 179.27 176.977 179.332 177.054 179.332Z" fill="white"/>
<path d="M177.606 178.918C177.606 178.987 177.537 179.056 177.468 179.056C177.398 179.056 177.329 178.987 177.329 178.918C177.329 178.848 177.398 178.779 177.468 178.779C177.606 178.779 177.606 178.848 177.606 178.918Z" fill="white"/>
<path d="M176.64 180.091C176.64 180.16 176.571 180.16 176.502 180.16C176.433 180.16 176.433 180.091 176.433 180.091C176.433 180.021 176.502 179.952 176.502 179.952C176.64 179.952 176.64 180.021 176.64 180.091Z" fill="white"/>
<path d="M177.054 179.953C177.13 179.953 177.192 179.891 177.192 179.815C177.192 179.738 177.13 179.676 177.054 179.676C176.977 179.676 176.915 179.738 176.915 179.815C176.915 179.891 176.977 179.953 177.054 179.953Z" fill="white"/>
<path d="M177.606 179.539C177.606 179.608 177.537 179.677 177.468 179.677C177.398 179.677 177.329 179.608 177.329 179.539C177.329 179.469 177.398 179.4 177.468 179.4C177.606 179.4 177.606 179.469 177.606 179.539Z" fill="white"/>
<path d="M176.571 180.85C176.648 180.85 176.71 180.788 176.71 180.712C176.71 180.635 176.648 180.573 176.571 180.573C176.495 180.573 176.433 180.635 176.433 180.712C176.433 180.788 176.495 180.85 176.571 180.85Z" fill="white"/>
<path d="M177.124 180.436C177.124 180.505 177.054 180.574 176.985 180.574C176.916 180.574 176.847 180.505 176.847 180.436C176.847 180.366 176.916 180.297 176.985 180.297C177.124 180.297 177.124 180.366 177.124 180.436Z" fill="white"/>
<path d="M177.606 180.16C177.606 180.229 177.537 180.298 177.468 180.298C177.398 180.298 177.329 180.229 177.329 180.16C177.329 180.09 177.398 180.021 177.468 180.021C177.606 180.021 177.606 180.09 177.606 180.16Z" fill="white"/>
<path d="M176.571 181.471C176.648 181.471 176.71 181.409 176.71 181.333C176.71 181.256 176.648 181.194 176.571 181.194C176.495 181.194 176.433 181.256 176.433 181.333C176.433 181.409 176.495 181.471 176.571 181.471Z" fill="white"/>
<path d="M177.124 180.988C177.124 181.057 177.054 181.126 176.985 181.126C176.916 181.126 176.847 181.057 176.847 180.988C176.847 180.918 176.916 180.849 176.985 180.849C177.124 180.918 177.124 180.988 177.124 180.988Z" fill="white"/>
<path d="M177.606 180.712C177.606 180.781 177.537 180.85 177.468 180.85C177.398 180.85 177.329 180.781 177.329 180.712C177.329 180.642 177.398 180.573 177.468 180.573C177.606 180.642 177.606 180.712 177.606 180.712Z" fill="white"/>
<path d="M184.437 166.29L184.023 166.359L182.712 165.6L180.504 166.842L179.124 167.049V167.601L180.504 168.429C180.918 168.636 181.539 168.705 181.884 168.498L184.161 167.187C184.299 167.118 184.368 166.98 184.368 166.842L184.437 166.29Z" fill="white"/>
<path opacity="0.2" d="M184.437 166.29L184.023 166.359L182.712 165.6L180.504 166.842L179.124 167.049V167.601L180.504 168.429C180.918 168.636 181.539 168.705 181.884 168.498L184.161 167.187C184.299 167.118 184.368 166.98 184.368 166.842L184.437 166.29Z" fill="black"/>
<path d="M184.229 166.635L181.952 167.946C181.607 168.153 180.986 168.153 180.572 167.877L179.192 167.118L182.78 165.048L184.16 165.876C184.505 166.083 184.574 166.428 184.229 166.635Z" fill="white"/>
<path d="M183.471 165.807L183.126 165.876L182.229 165.324L180.642 166.221L179.676 166.359V166.773L180.642 167.325C180.918 167.463 181.332 167.532 181.608 167.394L183.264 166.428C183.333 166.359 183.402 166.29 183.402 166.221L183.471 165.807Z" fill="white"/>
<path opacity="0.2" d="M183.471 165.807L183.126 165.876L182.229 165.324L180.642 166.221L179.676 166.359V166.773L180.642 167.325C180.918 167.463 181.332 167.532 181.608 167.394L183.264 166.428C183.333 166.359 183.402 166.29 183.402 166.221L183.471 165.807Z" fill="black"/>
<path d="M183.264 166.083L181.608 167.049C181.263 167.187 180.918 167.187 180.642 166.98L179.676 166.428L182.229 164.979L183.195 165.531C183.471 165.669 183.54 165.945 183.264 166.083Z" fill="white"/>
<path d="M177.261 170.568C177.261 170.568 177.261 170.499 177.261 170.568V169.602H174.432V170.568C174.432 170.775 174.57 170.982 174.846 171.12C175.467 171.465 176.226 171.465 176.847 171.12C177.054 170.982 177.192 170.775 177.261 170.568Z" fill="white"/>
<path opacity="0.2" d="M177.261 170.568C177.261 170.568 177.261 170.499 177.261 170.568V169.602H174.432V170.568C174.432 170.775 174.57 170.982 174.846 171.12C175.467 171.465 176.226 171.465 176.847 171.12C177.054 170.982 177.192 170.775 177.261 170.568Z" fill="black"/>
<path d="M176.847 169.05C177.399 169.395 177.399 169.878 176.847 170.223C176.226 170.568 175.467 170.568 174.846 170.223C174.294 169.878 174.294 169.395 174.846 169.05C175.467 168.705 176.157 168.705 176.847 169.05Z" fill="white"/>
<path d="M185.265 164.772V164.427H184.092V164.772C184.092 164.841 184.161 164.979 184.23 164.979C184.506 165.117 184.782 165.117 185.058 164.979C185.196 164.91 185.265 164.841 185.265 164.772Z" fill="white"/>
<path opacity="0.2" d="M185.265 164.772V164.427H184.092V164.772C184.092 164.841 184.161 164.979 184.23 164.979C184.506 165.117 184.782 165.117 185.058 164.979C185.196 164.91 185.265 164.841 185.265 164.772Z" fill="black"/>
<path d="M185.057 164.151C185.264 164.289 185.264 164.496 185.057 164.634C184.781 164.772 184.505 164.772 184.229 164.634C184.022 164.496 184.022 164.289 184.229 164.151C184.505 164.013 184.85 164.013 185.057 164.151Z" fill="white"/>
<path d="M187.818 164.634V163.875H185.472V164.634C185.472 164.841 185.61 164.979 185.817 165.048C186.369 165.324 186.921 165.324 187.473 165.048C187.68 165.048 187.818 164.841 187.818 164.634Z" fill="white"/>
<path opacity="0.2" d="M187.818 164.634V163.875H185.472V164.634C185.472 164.841 185.61 164.979 185.817 165.048C186.369 165.324 186.921 165.324 187.473 165.048C187.68 165.048 187.818 164.841 187.818 164.634Z" fill="black"/>
<path d="M185.747 164.082V165.048L185.678 164.979V164.082H185.747Z" fill="white"/>
<path d="M186.023 164.082V165.255H185.954V164.151L186.023 164.082Z" fill="white"/>
<path d="M186.369 164.082V165.324H186.3V164.151H186.369V164.082Z" fill="white"/>
<path d="M186.713 164.082V165.324H186.644V164.082H186.713Z" fill="white"/>
<path d="M187.058 164.082V165.255H186.989V164.013H187.058V164.082Z" fill="white"/>
<path d="M187.335 164.082V165.186H187.266V164.013H187.335V164.082Z" fill="white"/>
<path d="M187.679 164.082V164.979L187.61 165.048V164.082H187.679Z" fill="white"/>
<path d="M187.472 163.392C187.955 163.668 187.955 164.082 187.472 164.358C186.92 164.634 186.368 164.634 185.816 164.358C185.333 164.082 185.333 163.668 185.816 163.392C186.368 163.116 186.989 163.116 187.472 163.392Z" fill="white"/>
<path opacity="0.2" d="M186.644 164.151C186.911 164.151 187.127 164.027 187.127 163.875C187.127 163.723 186.911 163.599 186.644 163.599C186.377 163.599 186.161 163.723 186.161 163.875C186.161 164.027 186.377 164.151 186.644 164.151Z" fill="black"/>
<path d="M221.767 307.809C223.285 308.292 266.065 307.74 267.652 306.705C268.273 306.291 268.549 300.081 268.687 292.491V292.284C268.687 290.766 268.756 289.11 268.756 287.523C268.756 287.316 268.756 287.109 268.756 286.833C268.825 275.931 268.618 264.615 268.618 264.615L239.983 264.891L240.811 286.902V287.799L240.949 292.353V292.836C240.949 292.836 224.665 300.357 223.009 301.737C221.353 303.117 220.249 307.326 221.767 307.809Z" fill="#F7A9A0"/>
<path d="M221.766 307.809C223.284 308.292 266.064 307.74 267.651 306.705C268.272 306.291 268.548 300.081 268.686 292.491V292.284C268.686 290.766 268.755 289.11 268.755 287.523C268.755 287.316 268.755 287.109 268.755 286.833L240.879 286.902V287.799L241.017 292.353V292.836C241.017 292.836 224.733 300.357 223.077 301.737C221.421 303.117 220.248 307.326 221.766 307.809Z" fill="#EBEBEB"/>
<path d="M221.767 307.809C222.733 308.085 239.293 308.016 252.265 307.671C260.407 307.464 267.1 307.119 267.721 306.705C268.342 306.291 268.618 300.219 268.756 292.836C268.756 292.767 268.756 292.629 268.756 292.491V292.215L241.156 292.284V292.767C241.156 292.767 224.872 300.288 223.216 301.668C221.56 303.048 220.249 307.326 221.767 307.809Z" fill="#007873"/>
<path d="M222.25 306.153C229.495 305.877 258.544 305.463 265.72 305.739C265.789 305.739 265.789 305.808 265.72 305.808C258.544 306.222 229.495 306.429 222.25 306.291C222.112 306.291 222.112 306.153 222.25 306.153Z" fill="#263238"/>
<path d="M238.052 292.422C240.881 291.87 244.331 292.284 246.539 294.216C246.608 294.285 246.539 294.423 246.401 294.354C243.641 293.526 240.881 292.974 238.052 292.698C237.983 292.698 237.845 292.629 237.845 292.491C237.845 292.353 237.983 292.422 238.052 292.422Z" fill="#263238"/>
<path d="M235.98 293.733C238.809 293.181 242.259 293.595 244.467 295.527C244.536 295.596 244.467 295.734 244.329 295.665C241.638 294.837 238.809 294.285 235.98 294.009C235.911 294.009 235.773 293.94 235.773 293.871C235.773 293.802 235.911 293.733 235.98 293.733Z" fill="#263238"/>
<path d="M233.98 294.975C236.809 294.423 240.259 294.837 242.467 296.769C242.536 296.838 242.467 296.976 242.329 296.907C239.638 296.079 236.809 295.527 233.98 295.251C233.911 295.251 233.842 295.113 233.842 295.044C233.842 295.044 233.911 294.975 233.98 294.975Z" fill="#263238"/>
<path d="M235.567 290.352C237.568 291.87 240.19 292.491 242.536 293.319C242.743 293.388 242.95 293.25 242.95 293.043C242.95 292.974 242.95 292.974 242.95 292.905C243.019 292.905 243.019 292.836 243.019 292.836C242.122 290.352 240.604 288.144 238.534 286.419C237.361 285.453 235.222 284.763 234.118 286.35C233.014 287.937 234.394 289.455 235.567 290.352ZM234.808 288.075C234.256 284.97 237.637 286.557 238.465 287.316C239.017 287.799 239.5 288.351 239.983 288.903C240.949 290.076 241.846 291.318 242.674 292.629C241.57 292.146 240.397 291.801 239.224 291.318C237.913 290.766 235.153 289.8 234.808 288.075Z" fill="#263238"/>
<path d="M252.54 288.42C251.851 286.695 249.643 286.833 248.263 287.523C245.917 288.765 243.916 290.559 242.467 292.767C242.467 292.767 242.467 292.836 242.467 292.905C242.398 293.112 242.536 293.25 242.674 293.319C242.743 293.319 242.743 293.319 242.812 293.319C245.296 293.043 247.987 293.043 250.333 292.008C251.643 291.387 253.161 290.076 252.54 288.42ZM246.538 292.146C245.296 292.284 244.123 292.422 242.881 292.629C243.985 291.594 245.089 290.559 246.331 289.662C246.952 289.248 247.504 288.834 248.194 288.42C249.229 287.868 252.816 287.109 251.575 290.007C250.885 291.594 247.918 291.939 246.538 292.146Z" fill="#263238"/>
<path d="M225.837 300.495C227.493 300.426 229.011 301.047 230.184 302.22C231.219 303.255 231.84 304.635 231.84 306.084C231.84 306.153 231.771 306.153 231.771 306.084C231.219 303.186 228.804 300.909 225.837 300.633C225.768 300.564 225.768 300.564 225.837 300.495C225.768 300.495 225.768 300.495 225.837 300.495Z" fill="#263238"/>
<path d="M263.857 299.184C267.1 299.184 267.169 304.221 263.926 304.221C260.683 304.221 260.614 299.253 263.857 299.184Z" fill="#263238"/>
<path d="M252.265 307.671C260.407 307.464 267.1 307.119 267.721 306.705C268.342 306.291 268.618 300.219 268.756 292.836C265.375 295.803 257.095 303.186 252.265 307.671Z" fill="#263238"/>
<path d="M277.45 141.381C277.45 141.381 271.033 213.693 269.998 219.213C269.722 220.455 269.584 227.286 269.515 236.118C269.308 255.3 269.446 289.869 269.446 289.869H239.293C239.293 289.869 240.19 229.977 241.501 218.937C242.812 207.897 251.368 141.381 251.368 141.381H277.45Z" fill="#455A64"/>
<path d="M240.604 284.556C245.296 284.487 243.985 284.418 248.677 284.349C250.954 284.349 266.134 284.211 268.273 284.556C268.342 284.556 268.342 284.625 268.273 284.625C266.134 284.97 250.954 284.832 248.677 284.832C243.985 284.763 245.296 284.763 240.604 284.625C240.535 284.625 240.535 284.625 240.535 284.556C240.535 284.487 240.535 284.556 240.604 284.556Z" fill="#263238"/>
<path d="M263.65 250.332L263.719 237.222C263.719 233.013 263.719 228.735 263.926 224.526C264.34 215.97 266.065 207.552 267.307 199.065C268.549 190.578 269.584 182.091 270.481 173.535C271.516 163.944 272.482 154.422 273.448 144.831C273.448 144.762 273.517 144.762 273.517 144.831C272.137 161.943 270.481 178.986 268.135 195.96C267.514 200.169 266.893 204.378 266.203 208.587C265.513 212.865 264.823 217.143 264.478 221.421C264.133 225.699 264.064 229.839 264.064 234.117C263.995 238.464 263.995 242.88 263.926 247.227C263.857 256.956 263.719 271.929 263.65 281.589C263.65 281.658 263.581 281.727 263.512 281.727C263.443 281.727 263.374 281.658 263.374 281.589C263.512 272.895 263.581 258.957 263.65 250.332Z" fill="#263238"/>
<path d="M283.798 141.381C283.798 141.381 271.033 213.693 269.998 219.213C269.722 220.455 269.584 227.286 269.515 236.118L255.163 141.381H283.798Z" fill="#263238"/>
<path d="M256.819 310.362C258.337 310.707 300.979 307.188 302.497 305.946C303.118 305.532 302.911 299.253 302.497 291.732C302.497 291.663 302.497 291.594 302.497 291.525C302.428 289.938 302.359 288.351 302.221 286.764C302.221 286.557 302.221 286.35 302.152 286.074C301.462 275.172 300.496 263.925 300.496 263.925L271.93 266.271L274.345 288.144L274.414 289.041L274.897 293.595L274.966 294.078C274.966 294.078 259.234 302.772 257.716 304.221C256.198 305.67 255.301 310.017 256.819 310.362Z" fill="#F7A9A0"/>
<path d="M256.819 310.362C258.337 310.707 300.979 307.188 302.497 305.946C303.118 305.532 302.911 299.253 302.497 291.732C302.497 291.663 302.497 291.594 302.497 291.525C302.428 289.938 302.359 288.351 302.221 286.764C302.221 286.557 302.221 286.35 302.152 286.074L274.345 288.144L274.414 289.041L274.897 293.595L274.966 294.078C274.966 294.078 259.234 302.772 257.716 304.221C256.198 305.67 255.301 310.017 256.819 310.362Z" fill="#EBEBEB"/>
<path d="M256.819 310.362C258.337 310.707 300.979 307.188 302.497 305.946C303.118 305.532 302.911 299.253 302.497 291.732C302.497 291.663 302.497 291.594 302.497 291.525L274.966 293.526L275.035 294.009C275.035 294.009 259.303 302.703 257.785 304.152C256.267 305.601 255.301 310.017 256.819 310.362Z" fill="#007873"/>
<path d="M257.164 308.706C264.34 307.947 293.32 305.463 300.496 305.256C300.565 305.256 300.565 305.256 300.496 305.325C293.389 306.291 264.34 308.499 257.164 308.844C257.026 308.775 257.026 308.706 257.164 308.706Z" fill="#263238"/>
<path d="M271.93 293.871C274.69 293.112 278.209 293.25 280.555 295.113C280.624 295.182 280.555 295.32 280.486 295.32C277.726 294.699 274.897 294.354 271.999 294.285C271.93 294.285 271.792 294.147 271.861 294.078C271.861 293.94 271.861 293.94 271.93 293.871Z" fill="#263238"/>
<path d="M269.997 295.32C272.757 294.561 276.276 294.699 278.622 296.562C278.691 296.631 278.622 296.769 278.553 296.7C275.793 296.079 272.964 295.734 270.066 295.665C269.997 295.665 269.859 295.527 269.928 295.458C269.859 295.389 269.928 295.32 269.997 295.32Z" fill="#263238"/>
<path d="M268.065 296.7C270.825 295.941 274.344 296.079 276.69 297.942C276.759 298.011 276.69 298.149 276.621 298.149C273.861 297.528 271.032 297.183 268.134 297.114C268.065 297.114 267.927 296.976 267.996 296.907C267.927 296.769 267.996 296.7 268.065 296.7Z" fill="#263238"/>
<path d="M269.377 291.939C271.516 293.319 274.207 293.733 276.553 294.423C276.829 294.492 276.967 294.285 276.967 294.009C277.036 294.009 277.036 293.94 277.036 293.94C275.932 291.525 274.276 289.386 272.137 287.799C270.895 286.902 268.756 286.419 267.79 288.006C266.824 289.593 268.066 291.111 269.377 291.939ZM268.411 289.731C267.652 286.695 271.102 288.006 271.999 288.696C272.551 289.179 273.103 289.662 273.655 290.214C274.69 291.318 275.656 292.491 276.622 293.733C275.449 293.319 274.276 293.043 273.103 292.698C271.723 292.215 268.825 291.387 268.411 289.731Z" fill="#263238"/>
<path d="M286.074 288.834C285.246 287.109 283.107 287.454 281.727 288.213C279.45 289.593 277.587 291.525 276.276 293.871C276.276 293.94 276.276 293.94 276.276 293.94C276.276 294.147 276.414 294.423 276.621 294.354C279.105 293.94 281.796 293.733 284.004 292.56C285.453 291.87 286.902 290.421 286.074 288.834ZM280.347 292.974C279.174 293.25 277.932 293.388 276.759 293.733C277.794 292.629 278.898 291.525 280.002 290.49C280.554 290.007 281.175 289.524 281.727 289.11C282.693 288.489 286.281 287.454 285.246 290.49C284.694 292.077 281.796 292.629 280.347 292.974Z" fill="#263238"/>
<path d="M259.647 302.979C261.234 302.772 262.89 303.255 264.133 304.29C265.237 305.187 265.996 306.498 266.134 307.947C266.134 308.016 266.065 308.016 266.065 307.947C265.237 305.049 262.683 303.048 259.716 303.048C259.647 303.048 259.647 302.979 259.647 302.979Z" fill="#263238"/>
<path d="M297.46 298.425C300.703 298.08 301.186 303.117 297.943 303.462C294.7 303.807 294.217 298.77 297.46 298.425Z" fill="#263238"/>
<path d="M273.793 291.456L303.946 290.145C303.946 290.145 295.735 223.974 295.597 219.972C295.183 209.415 288.214 141.381 288.214 141.381H251.437C251.437 141.381 253.783 157.113 257.716 167.049C260.407 168.015 262.96 169.188 265.444 170.568C265.444 170.568 268.894 215.625 269.032 221.214C269.101 232.254 273.793 291.456 273.793 291.456Z" fill="#455A64"/>
<path d="M274.551 285.936C279.243 285.66 277.932 285.66 282.624 285.384C284.901 285.246 300.013 284.487 302.221 284.763C302.221 284.763 302.29 284.763 302.29 284.832C302.29 284.901 302.29 284.901 302.221 284.901C300.082 285.315 284.97 285.867 282.624 285.936C277.932 286.074 279.243 286.005 274.551 286.074C274.482 286.074 274.482 286.074 274.482 286.005C274.482 285.936 274.551 285.936 274.551 285.936Z" fill="#263238"/>
<path d="M285.385 145.383C286.765 162.564 288.145 179.676 289.732 196.788C291.319 213.9 293.182 231.15 295.39 248.262C296.632 257.853 298.012 271.308 299.53 280.83C299.53 280.899 299.461 280.899 299.461 280.83C296.425 263.925 294.217 242.88 292.285 225.768C290.353 208.656 288.835 191.544 287.455 174.432C286.696 164.703 286.006 155.043 285.247 145.314C285.178 145.245 285.385 145.245 285.385 145.383Z" fill="#263238"/>
<path d="M256.267 166.359C259.372 167.463 262.408 168.912 265.306 170.568C265.444 170.637 265.306 170.775 265.237 170.775C262.201 169.464 259.096 168.222 256.129 166.773C256.06 166.704 255.991 166.635 256.06 166.497C256.06 166.29 256.198 166.29 256.267 166.359Z" fill="#263238"/>
<path d="M255.3 145.521C255.3 145.452 255.507 145.383 255.507 145.521C255.507 149.109 255.714 152.283 255.99 155.664C256.128 157.251 257.37 165.876 260.13 165.255C260.613 165.117 260.82 164.703 260.889 164.013C260.889 163.116 260.751 162.219 260.544 161.391C260.268 159.597 259.992 157.803 259.854 155.94C259.509 152.559 259.578 149.109 259.992 145.728C259.992 145.659 260.061 145.659 260.061 145.659L260.13 145.728C260.061 150.42 260.337 155.181 260.958 159.873C261.303 162.15 262.407 165.531 260.061 165.876C257.715 166.221 256.128 160.563 255.852 158.976C255.093 154.422 254.886 149.937 255.3 145.521Z" fill="#263238"/>
<path d="M260.062 165.462C260.338 166.014 260.545 166.635 260.683 167.256C260.89 167.739 260.959 168.222 260.959 168.705C260.959 168.774 260.89 168.774 260.821 168.774C260.821 168.774 260.821 168.774 260.752 168.705C260.476 168.291 260.269 167.808 260.131 167.256C259.924 166.704 259.717 166.152 259.51 165.6C259.51 165.462 259.648 165.255 259.786 165.255C259.924 165.255 259.993 165.324 260.062 165.462Z" fill="#263238"/>
<path d="M138.001 293.112L137.932 291.732L210.727 288.006L205.345 255.576L206.656 255.3L212.314 289.248L138.001 293.112Z" fill="#C7C7C7"/>
<path d="M142.141 303.807C146.333 303.807 149.731 300.409 149.731 296.217C149.731 292.025 146.333 288.627 142.141 288.627C137.949 288.627 134.551 292.025 134.551 296.217C134.551 300.409 137.949 303.807 142.141 303.807Z" fill="#37474F"/>
<path d="M138.69 296.217C138.69 298.149 140.208 299.667 142.14 299.667C144.072 299.667 145.59 298.149 145.59 296.217C145.59 294.285 144.072 292.767 142.14 292.767C140.208 292.767 138.69 294.354 138.69 296.217Z" fill="#EBEBEB"/>
<path d="M200.445 303.807C204.637 303.807 208.035 300.409 208.035 296.217C208.035 292.025 204.637 288.627 200.445 288.627C196.254 288.627 192.855 292.025 192.855 296.217C192.855 300.409 196.254 303.807 200.445 303.807Z" fill="#37474F"/>
<path d="M196.996 296.217C196.996 298.149 198.514 299.667 200.446 299.667C202.378 299.667 203.896 298.149 203.896 296.217C203.896 294.285 202.378 292.767 200.446 292.767C198.514 292.767 196.996 294.354 196.996 296.217Z" fill="#EBEBEB"/>
<path d="M151.043 301.461L150.974 300.081L223.769 296.355L216.662 253.851L218.042 253.575L225.356 297.666L151.043 301.461Z" fill="#C7C7C7"/>
<path d="M155.182 312.225C159.374 312.225 162.772 308.827 162.772 304.635C162.772 300.443 159.374 297.045 155.182 297.045C150.99 297.045 147.592 300.443 147.592 304.635C147.592 308.827 150.99 312.225 155.182 312.225Z" fill="#37474F"/>
<path d="M151.731 304.635C151.731 306.567 153.249 308.085 155.181 308.085C157.113 308.085 158.631 306.567 158.631 304.635C158.631 302.703 157.113 301.185 155.181 301.185C153.249 301.185 151.731 302.703 151.731 304.635Z" fill="#EBEBEB"/>
<path d="M213.625 314.226C217.817 314.226 221.215 310.828 221.215 306.636C221.215 302.444 217.817 299.046 213.625 299.046C209.433 299.046 206.035 302.444 206.035 306.636C206.035 310.828 209.433 314.226 213.625 314.226Z" fill="#37474F"/>
<path d="M210.037 304.635C210.037 306.567 211.555 308.085 213.487 308.085C215.419 308.085 216.937 306.567 216.937 304.635C216.937 302.703 215.419 301.185 213.487 301.185C211.555 301.185 210.037 302.703 210.037 304.635Z" fill="#EBEBEB"/>
<path d="M135.378 251.229L124.752 202.791L197.202 191.061L197.961 241.707L197.34 241.776L135.378 251.229ZM126.408 203.895L136.482 249.642L196.581 240.465L195.891 192.648L126.408 203.895Z" fill="#A6A6A6"/>
<path d="M143.291 200.426L141.928 200.639L149.39 248.36L150.753 248.146L143.291 200.426Z" fill="#A6A6A6"/>
<path d="M162.672 197.338L161.3 197.489L166.616 245.705L167.988 245.554L162.672 197.338Z" fill="#A6A6A6"/>
<path d="M181.599 194.579L180.22 194.639L182.316 243.24L183.695 243.181L181.599 194.579Z" fill="#A6A6A6"/>
<path d="M197.137 206.363L128.97 218.701L129.216 220.059L197.383 207.721L197.137 206.363Z" fill="#A6A6A6"/>
<path d="M197.143 224.764L132.444 234.373L132.647 235.738L197.346 226.129L197.143 224.764Z" fill="#A6A6A6"/>
<path d="M227.425 253.437L196.582 241.5V190.992L243.709 204.654L227.425 253.437ZM197.962 240.603L226.597 251.643L241.915 205.62L197.893 192.855V240.603H197.962Z" fill="#DBDBDB"/>
<path d="M197.506 206.431L197.013 207.719L236.836 222.968L237.33 221.679L197.506 206.431Z" fill="#DBDBDB"/>
<path d="M197.53 224.825L197.009 226.103L231.188 240.046L231.71 238.768L197.53 224.825Z" fill="#DBDBDB"/>
<path d="M212.311 196.258L205.886 244.548L207.254 244.73L213.679 196.44L212.311 196.258Z" fill="#DBDBDB"/>
<path d="M227.608 200.719L216.8 248.715L218.146 249.019L228.955 201.022L227.608 200.719Z" fill="#DBDBDB"/>
<path d="M208.319 152.467L196.576 191.662L197.898 192.058L209.641 152.864L208.319 152.467Z" fill="#DBDBDB"/>
<path d="M254.949 161.867L242.077 204.829L243.399 205.225L256.271 162.263L254.949 161.867Z" fill="#DBDBDB"/>
<path d="M206.237 150.569L205.681 153.272L258.532 164.15L259.089 161.446L206.237 150.569Z" fill="#263238"/>
<path d="M175.398 207.897L188.508 213.831L209.898 209.553L197.064 205.896L175.398 207.897Z" fill="#56BCB6"/>
<path opacity="0.1" d="M175.398 207.897L188.508 213.831L209.898 209.553L197.064 205.896L175.398 207.897Z" fill="black"/>
<path d="M194.719 228.804C194.65 228.873 194.581 228.873 194.512 228.942L194.443 229.011C192.649 229.632 190.993 230.736 189.682 232.185C189.544 231.564 189.406 230.943 189.337 230.322C190.786 229.011 192.649 228.39 194.512 228.528C194.512 228.528 194.512 228.528 194.581 228.528H194.65C194.719 228.528 194.857 228.597 194.857 228.666C194.857 228.735 194.788 228.804 194.719 228.804Z" fill="#CC8A58"/>
<path d="M194.029 220.869C193.96 220.869 193.891 220.938 193.822 220.938C193.822 220.938 193.753 221.007 193.753 220.938C191.821 221.007 190.027 221.628 188.44 222.663L188.302 222.801C188.233 222.18 188.164 221.559 188.095 220.938C189.889 219.903 192.028 219.765 194.029 220.455C194.029 220.455 194.029 220.455 194.098 220.524H194.167C194.236 220.524 194.305 220.662 194.305 220.731C194.167 220.8 194.098 220.869 194.029 220.869Z" fill="#CC8A58"/>
<path d="M199.687 230.874C199.618 230.943 199.549 230.943 199.48 230.943L199.411 231.012C197.548 231.15 195.754 231.84 194.236 233.013C194.236 232.392 194.167 231.771 194.167 231.081C195.823 230.184 197.755 229.977 199.618 230.529C199.618 230.529 199.618 230.529 199.687 230.598H199.756C199.825 230.598 199.894 230.667 199.894 230.805C199.825 230.805 199.756 230.874 199.687 230.874Z" fill="#CC8A58"/>
<path d="M200.376 223.008C200.307 223.008 200.238 223.008 200.169 223.008H200.1C198.237 222.594 196.305 222.801 194.58 223.422L194.373 223.491C194.373 222.87 194.442 222.249 194.442 221.628C196.443 221.076 198.582 221.421 200.307 222.525C200.307 222.525 200.307 222.525 200.376 222.594L200.445 222.663C200.514 222.732 200.583 222.939 200.376 223.008Z" fill="#CC8A58"/>
<path d="M201.342 215.073C201.273 215.073 201.204 215.073 201.135 215.004H201.066C199.341 214.176 197.409 213.9 195.546 214.176L195.132 214.245C195.201 213.624 195.27 213.003 195.339 212.451C197.616 212.244 199.824 213.072 201.411 214.728V214.797C201.411 214.797 201.411 214.866 201.48 214.866C201.549 214.866 201.549 215.073 201.342 215.073Z" fill="#CC8A58"/>
<path d="M175.398 207.897C175.398 207.897 176.226 234.255 175.95 235.29C175.674 236.325 174.087 248.676 174.225 249.021C174.363 249.366 186.783 256.473 187.197 256.059C187.611 255.645 188.37 237.843 188.37 235.635C188.37 233.427 188.508 213.831 188.508 213.831L175.398 207.897Z" fill="#56BCB6"/>
<path d="M188.508 213.831L187.197 255.99C187.197 255.99 207.345 250.056 207.483 249.711C207.621 249.366 208.656 237.429 208.38 235.566C208.104 233.703 209.898 209.553 209.898 209.553L188.508 213.831Z" fill="#56BCB6"/>
<path opacity="0.1" d="M188.508 213.831L187.197 255.99C187.197 255.99 207.345 250.056 207.483 249.711C207.621 249.366 208.656 237.429 208.38 235.566C208.104 233.703 209.898 209.553 209.898 209.553L188.508 213.831Z" fill="black"/>
<path d="M160.495 261.717L135.379 251.229L135.31 250.884L124.684 202.515L155.941 215.28L160.495 261.717ZM136.621 250.194L158.977 259.509L154.699 216.177L126.685 204.723L136.621 250.194Z" fill="#DBDBDB"/>
<path d="M135.234 206.965L133.875 207.204L142.009 253.483L143.368 253.245L135.234 206.965Z" fill="#DBDBDB"/>
<path d="M145.504 211.265L144.138 211.459L150.632 257.09L151.998 256.896L145.504 211.265Z" fill="#DBDBDB"/>
<path d="M132.454 238.791L131.997 240.093L157.126 248.914L157.583 247.612L132.454 238.791Z" fill="#DBDBDB"/>
<path d="M129.382 219.057L128.874 220.339L156.455 231.27L156.964 229.987L129.382 219.057Z" fill="#DBDBDB"/>
<path d="M160.494 261.717L154.491 215.211L243.708 204.585L227.424 253.506L227.01 253.575L160.494 261.717ZM156.009 216.384L161.667 260.199L226.389 252.264L241.707 206.241L156.009 216.384Z" fill="#EBEBEB"/>
<path d="M175.783 213.37L174.408 213.49L178.326 258.444L179.7 258.324L175.783 213.37Z" fill="#EBEBEB"/>
<path d="M198.247 210.512L195.613 256.181L196.991 256.26L199.624 210.591L198.247 210.512Z" fill="#EBEBEB"/>
<path d="M221.048 207.739L212.258 254.249L213.614 254.505L222.404 207.995L221.048 207.739Z" fill="#EBEBEB"/>
<path d="M237.365 220.608L156.664 229.687L156.818 231.059L237.52 221.979L237.365 220.608Z" fill="#EBEBEB"/>
<path d="M231.363 238.658L158.344 246.293L158.487 247.666L231.507 240.031L231.363 238.658Z" fill="#EBEBEB"/>
<path d="M260.545 104.466C256.819 110.262 243.157 131.376 234.601 131.376C229.426 131.376 211.969 122.613 208.174 119.646C203.689 116.196 215.764 105.294 218.869 106.605C222.664 108.192 233.221 114.333 235.636 114.333C237.844 114.333 244.054 107.295 255.991 99.567C262.063 95.427 263.719 99.429 260.545 104.466Z" fill="#F7A9A0"/>
<path d="M208.588 119.922C207.001 119.163 199.894 114.954 198.169 113.367C196.444 111.78 191.89 106.743 192.994 105.363C194.098 103.983 195.547 105.294 195.547 105.294C195.547 105.294 193.96 102.879 195.202 101.499C196.444 100.119 198.652 102.327 198.652 102.327C198.652 102.327 197.203 99.705 198.514 98.463C199.825 97.221 201.688 99.774 201.688 99.774C201.688 99.774 200.239 97.428 201.757 96.876C203.62 96.186 205.828 100.74 207.829 102.396C208.312 102.741 217.696 109.296 217.696 109.296L208.588 119.922Z" fill="#F7A9A0"/>
<path d="M201.412 99.498C203.068 102.879 204.31 104.052 207.484 105.984C207.553 106.053 207.484 106.122 207.415 106.053C204.172 104.397 202.378 103.155 201.274 99.567C201.205 99.429 201.343 99.36 201.412 99.498Z" fill="#263238"/>
<path d="M198.445 101.982C200.446 105.294 201.826 106.605 204.931 108.882C205 108.882 204.931 109.02 204.862 108.951C201.619 106.95 199.825 105.708 198.238 102.051C198.169 101.982 198.376 101.844 198.445 101.982Z" fill="#263238"/>
<path d="M195.616 105.294C197.755 108.399 199.273 109.848 202.585 111.711C202.585 111.711 202.585 111.78 202.585 111.849H202.516C199.411 110.676 196.927 108.399 195.547 105.363C195.409 105.156 195.478 105.156 195.616 105.294Z" fill="#263238"/>
<path d="M221.007 108.882C220.386 106.743 219.628 104.604 218.662 102.534C217.627 100.671 211.348 95.22 210.106 96.531C208.45 98.187 211.486 102.12 213.211 103.776C213.211 103.776 209.416 107.64 211.003 110.883C212.59 114.126 221.007 108.882 221.007 108.882Z" fill="#F7A9A0"/>
<path d="M209.829 97.152C209.415 99.774 211.83 101.844 213.417 103.638C213.486 103.707 213.486 103.845 213.417 103.914C213.417 103.914 213.348 103.914 213.348 103.983C211.899 105.708 210.312 108.537 210.933 110.883C210.933 110.883 210.933 110.952 210.864 110.952H210.795C209.829 108.537 211.14 105.639 212.865 103.845C211.209 101.982 208.932 99.774 209.829 97.152C209.829 97.083 209.829 97.083 209.829 97.152Z" fill="#263238"/>
<path d="M241.155 108.399L252.678 118.68C252.678 118.68 259.233 110.814 261.924 103.224C264.615 95.634 258.129 96.6 253.575 99.636C249.021 102.672 241.155 108.399 241.155 108.399Z" fill="#FDE05D"/>
<path d="M253.921 116.196C250.471 113.367 247.228 110.4 244.192 107.157C244.123 107.157 244.192 107.088 244.261 107.088C245.089 107.916 250.195 112.263 253.99 116.127C254.059 116.196 253.99 116.265 253.921 116.196Z" fill="#263238"/>
<path d="M261.924 103.293C259.233 110.814 252.678 118.68 252.678 118.68L247.365 113.919C250.884 109.089 256.542 101.223 259.371 97.428C261.924 97.29 263.511 98.808 261.924 103.293Z" fill="#263238"/>
<path d="M247.365 151.11C248.055 151.8 290.491 151.386 290.698 151.11C291.25 150.351 284.764 122.958 279.865 112.608C273.586 99.291 270.274 98.187 268.342 97.428C265.789 96.462 259.233 96.876 258.129 97.359C256.887 97.911 253.782 104.121 252.333 109.089C249.435 118.956 246.744 150.489 247.365 151.11Z" fill="#FDE05D"/>
<path d="M274.69 109.779C274.483 122.82 273.931 138.276 270.274 142.692C264.823 149.316 251.092 156.078 245.503 157.32C243.157 157.872 236.602 140.208 239.155 139.656C244.468 138.552 256.681 133.515 257.785 132.411C258.889 131.307 263.098 118.68 266.41 108.813C270.481 96.945 274.828 102.189 274.69 109.779Z" fill="#F7A9A0"/>
<path d="M241.983 138.897C241.983 138.897 234.945 140.691 230.391 142.071C227.838 142.83 223.629 144.555 222.042 146.004C219.627 148.143 210.933 158.562 213.417 160.701C215.694 162.633 221.973 152.766 221.973 152.766C221.973 152.766 214.728 162.219 217.833 164.082C220.938 165.945 226.596 153.801 226.596 153.801C226.596 153.801 219.351 163.668 222.87 165.048C225.561 166.083 231.288 155.388 231.288 155.388C231.288 155.388 225.147 163.944 227.838 165.117C230.805 166.428 236.739 156.906 236.739 156.906C244.122 158.838 248.469 156.699 251.298 154.836C252.126 154.353 241.983 138.897 241.983 138.897Z" fill="#F7A9A0"/>
<path d="M224.319 149.316C223.422 150.42 222.525 151.455 221.697 152.628C220.869 153.801 220.179 154.974 219.489 156.147C218.592 157.734 217.833 159.39 217.281 161.184C218.454 158.148 221.283 154.008 222.042 152.835C222.801 151.662 223.56 150.489 224.319 149.316C224.388 149.316 224.319 149.316 224.319 149.316Z" fill="#263238"/>
<path d="M228.529 152.145C227.011 153.387 223.768 157.872 222.526 160.908C222.457 161.046 222.526 161.046 222.595 160.908C223.63 159.39 227.494 153.594 228.529 152.145C228.598 152.145 228.529 152.076 228.529 152.145Z" fill="#263238"/>
<path d="M232.599 153.87C230.667 155.871 229.218 158.217 228.183 160.77C228.114 160.908 228.252 160.839 228.321 160.77C229.77 158.424 230.874 156.63 232.737 153.939C232.668 153.87 232.599 153.87 232.599 153.87Z" fill="#263238"/>
<path d="M260.476 121.095L275.725 123.372C275.725 123.372 276.898 113.16 275.035 105.363C273.172 97.566 268.273 101.913 266.065 106.95C263.857 111.987 260.476 121.095 260.476 121.095Z" fill="#FDE05D"/>
<path d="M275.311 120.336C270.895 119.991 266.548 119.301 262.201 118.404C262.132 118.404 262.201 118.335 262.201 118.335C263.374 118.542 269.998 119.232 275.311 120.267C275.38 120.267 275.38 120.336 275.311 120.336Z" fill="#263238"/>
<path d="M262.684 115.851C263.374 114.126 264.409 111.642 264.961 109.917C264.961 109.917 264.961 109.917 264.892 109.917C264.478 110.814 264.064 111.78 263.65 112.746L263.719 112.608C263.788 112.056 263.926 111.573 263.926 111.021C263.788 111.573 263.65 112.056 263.512 112.608C263.443 112.953 263.374 113.298 263.374 113.643C263.167 114.126 262.615 115.368 262.408 115.851C262.062 116.679 260.199 121.302 260.268 121.302C260.337 121.302 261.855 121.44 262.132 121.509C262.201 121.509 262.201 121.371 262.132 121.44C261.855 121.44 260.682 121.233 260.544 121.233C260.889 120.336 261.234 119.508 261.649 118.611C262.063 117.714 262.339 116.748 262.684 115.851Z" fill="#263238"/>
<path d="M276.759 113.229C276.621 113.712 276.552 114.126 276.483 114.609C276.483 114.747 276.414 114.954 276.414 115.092C276.345 113.919 276.276 112.815 276.138 111.642H276.069C276.207 113.574 276.138 115.506 276.069 117.438C276.069 118.404 276 119.301 275.931 120.267C275.931 120.75 275.862 121.233 275.862 121.716C275.862 122.199 275.793 123.372 275.793 123.372C275.517 123.303 274.62 123.234 274.344 123.165C274.275 123.165 274.275 123.234 274.344 123.234C274.62 123.303 276 123.51 276 123.51C276 123.027 276.138 122.406 276.207 121.923C276.276 121.44 276.276 121.026 276.345 120.543C276.414 119.577 276.483 118.542 276.483 117.576C276.483 117.024 276.483 116.472 276.483 115.92C276.552 115.506 276.69 115.092 276.759 114.678C276.828 114.264 276.897 113.712 276.966 113.298C276.828 113.229 276.759 113.16 276.759 113.229Z" fill="#263238"/>
<path d="M259.371 104.121C261.717 104.811 266.064 101.43 267.858 98.532C267.996 98.325 267.789 96.186 267.72 93.564C267.651 91.977 267.651 90.183 267.72 88.527C267.72 88.182 257.37 90.39 257.37 90.39C257.853 92.46 258.06 94.599 257.991 96.669C257.991 96.876 257.922 97.152 257.853 97.359C257.853 97.428 257.853 97.428 257.853 97.497C257.508 98.808 257.025 103.5 259.371 104.121Z" fill="#F7A9A0"/>
<path d="M267.031 88.596C266.41 91.356 264.271 97.842 258.82 97.635C258.475 97.635 258.13 97.566 257.785 97.497C257.785 97.428 257.785 97.428 257.785 97.359C257.854 97.152 257.854 96.876 257.923 96.669C257.992 94.53 257.785 92.46 257.302 90.39C257.302 90.459 264.823 88.872 267.031 88.596Z" fill="#263238"/>
<path d="M268.273 75.486C269.653 79.005 268.549 89.631 266.203 92.115C262.753 95.772 256.681 96.6 253.438 92.322C250.333 88.182 251.989 74.451 254.68 72.105C258.682 68.724 266.203 70.311 268.273 75.486Z" fill="#F7A9A0"/>
<path d="M258.751 82.662C258.751 82.662 258.82 82.731 258.751 82.662C258.682 83.421 258.751 84.249 259.372 84.594V84.663C258.613 84.456 258.613 83.352 258.751 82.662Z" fill="#263238"/>
<path d="M259.509 81.972C260.682 81.972 260.544 84.318 259.44 84.249C258.336 84.18 258.543 81.972 259.509 81.972Z" fill="#263238"/>
<path d="M254.749 82.455C254.68 83.214 254.542 84.042 253.852 84.249V84.318C254.68 84.249 254.887 83.145 254.749 82.455Z" fill="#263238"/>
<path d="M254.197 81.696C253.024 81.558 252.817 83.835 253.852 83.973C254.887 84.111 255.163 81.834 254.197 81.696Z" fill="#263238"/>
<path d="M260.475 81.006C260.13 80.937 259.923 80.799 259.578 80.661C259.233 80.592 258.957 80.385 258.75 80.109C258.681 79.902 258.681 79.695 258.888 79.557C259.233 79.35 259.716 79.281 260.13 79.488C260.544 79.626 260.889 79.902 261.096 80.316C261.234 80.592 261.096 80.868 260.82 81.006C260.751 81.006 260.613 81.006 260.475 81.006Z" fill="#263238"/>
<path d="M253.369 80.454C253.714 80.385 253.99 80.316 254.335 80.247C254.68 80.247 255.025 80.109 255.232 79.902C255.37 79.695 255.37 79.488 255.232 79.281C254.887 79.005 254.473 78.867 254.059 79.005C253.645 79.074 253.231 79.281 252.955 79.626C252.748 79.833 252.817 80.178 253.024 80.385C253.093 80.454 253.231 80.523 253.369 80.454Z" fill="#263238"/>
<path d="M259.579 89.424C259.372 89.562 259.234 89.838 258.958 89.838C258.682 89.838 258.406 89.769 258.199 89.631C258.199 89.631 258.13 89.631 258.199 89.7C258.406 89.976 258.751 90.183 259.096 90.114C259.372 89.976 259.579 89.769 259.579 89.424C259.648 89.424 259.648 89.355 259.579 89.424Z" fill="#263238"/>
<path d="M258.959 87.216C258.545 87.768 257.924 88.113 257.303 88.182C257.027 88.251 256.682 88.251 256.406 88.182C256.337 88.182 256.268 88.182 256.268 88.182C256.199 88.182 256.199 88.182 256.13 88.182C256.061 88.182 255.992 88.113 255.992 88.044V87.975V87.906C255.992 87.354 256.13 86.526 256.13 86.526C255.923 86.595 254.888 87.009 254.888 86.733C255.095 84.249 255.578 81.765 256.268 79.419C256.268 79.35 256.406 79.35 256.406 79.419C256.199 81.696 255.647 83.973 255.44 86.25C255.785 86.112 256.199 85.974 256.613 85.974C256.682 85.974 256.406 87.561 256.406 87.837C257.303 87.975 258.269 87.768 258.959 87.216C259.028 87.147 258.959 87.078 258.959 87.216Z" fill="#263238"/>
<path d="M256.75 87.906C257.026 88.32 257.44 88.665 257.854 88.872C258.13 89.01 258.406 89.01 258.613 88.941C259.165 88.803 259.234 88.32 259.165 87.837C259.096 87.63 259.027 87.354 258.958 87.147C258.337 87.699 257.509 87.906 256.75 87.906Z" fill="#263238"/>
<path d="M257.854 88.872C258.13 89.01 258.405 89.01 258.612 88.941C259.164 88.803 259.233 88.32 259.164 87.837C258.543 87.906 257.992 88.32 257.854 88.872Z" fill="#FF98B9"/>
<path d="M253.368 76.245C256.887 78.66 261.648 75.003 261.648 75.003C262.269 76.59 263.856 77.556 265.512 77.418C265.512 77.418 266.202 83.352 267.789 83.352C270.204 83.352 270.894 75.21 270.204 73.623C269.514 72.036 267.444 71.622 267.444 71.622C267.237 70.656 266.616 69.828 265.788 69.276C264.132 68.034 258.543 69.69 258.543 69.69C258.198 68.931 257.715 68.241 257.094 67.758C256.473 67.206 255.576 67.275 255.024 67.896C255.024 67.896 255.024 67.896 254.955 67.965C255.231 68.379 255.438 68.931 255.507 69.414C255.783 71.139 254.403 71.139 254.403 69.552C254.403 68.931 254.61 68.379 254.955 67.965C254.265 66.93 253.092 66.585 252.402 67.137C251.16 68.172 250.47 74.244 253.368 76.245Z" fill="#263238"/>
<path d="M266.685 84.18C266.685 84.18 268.825 80.661 270.412 81.42C271.999 82.179 270.481 87.147 268.756 87.975C267.859 88.458 266.754 88.113 266.271 87.216V87.147L266.685 84.18Z" fill="#F7A9A0"/>
<path d="M269.998 82.869C269.998 82.869 270.067 82.869 269.998 82.869C268.756 83.49 268.204 84.732 267.79 85.974C268.066 85.491 268.687 85.284 269.17 85.56C269.239 85.56 269.239 85.629 269.308 85.629V85.698C268.825 85.56 268.342 85.767 268.066 86.181C267.859 86.526 267.652 86.871 267.514 87.216C267.445 87.354 267.238 87.285 267.307 87.147C267.169 85.422 268.273 83.076 269.998 82.869Z" fill="#263238"/>
</svg>
