<svg viewBox="0 0 337 337" fill="none" xmlns="http://www.w3.org/2000/svg">
<path d="M109.848 308.3L109.767 306.448L205.8 301.396L198.683 257.359L200.401 257.023L207.927 303.164L109.848 308.3Z" fill="#C7C7C7"/>
<path d="M115.329 322.867C120.886 322.867 125.39 318.23 125.39 312.51C125.39 306.791 120.886 302.154 115.329 302.154C109.772 302.154 105.268 306.791 105.268 312.51C105.268 318.23 109.772 322.867 115.329 322.867Z" fill="#37474F"/>
<path d="M110.749 312.595C110.749 315.205 112.794 317.31 115.33 317.31C117.866 317.31 119.911 315.205 119.911 312.595C119.911 309.985 117.866 307.88 115.33 307.88C112.794 307.88 110.749 309.985 110.749 312.595Z" fill="#EBEBEB"/>
<path d="M193.821 322.75C199.305 321.831 203.027 316.509 202.134 310.863C201.241 305.218 196.071 301.387 190.587 302.306C185.102 303.225 181.38 308.547 182.273 314.192C183.166 319.838 188.336 323.669 193.821 322.75Z" fill="#37474F"/>
<path d="M187.641 312.595C187.641 315.205 189.686 317.31 192.221 317.31C194.757 317.31 196.802 315.205 196.802 312.595C196.802 309.985 194.757 307.88 192.221 307.88C189.686 307.88 187.641 309.985 187.641 312.595Z" fill="#EBEBEB"/>
<path d="M127.027 319.752L126.945 317.815L222.978 312.763L213.653 255.002L215.371 254.665L225.105 314.531L127.027 319.752Z" fill="#C7C7C7"/>
<path d="M132.507 334.318C138.064 334.318 142.568 329.681 142.568 323.962C142.568 318.242 138.064 313.605 132.507 313.605C126.95 313.605 122.445 318.242 122.445 323.962C122.445 329.681 126.95 334.318 132.507 334.318Z" fill="#37474F"/>
<path d="M127.927 323.962C127.927 326.572 129.972 328.677 132.508 328.677C135.043 328.677 137.088 326.572 137.088 323.962C137.088 321.351 135.043 319.246 132.508 319.246C129.972 319.246 127.927 321.351 127.927 323.962Z" fill="#EBEBEB"/>
<path d="M219.269 325.953C220.346 320.342 216.8 314.894 211.349 313.785C205.898 312.676 200.606 316.325 199.528 321.936C198.451 327.548 201.996 332.995 207.447 334.104C212.899 335.213 218.191 331.564 219.269 325.953Z" fill="#37474F"/>
<path d="M204.818 323.962C204.818 326.572 206.863 328.677 209.399 328.677C211.935 328.677 213.98 326.572 213.98 323.962C213.98 321.351 211.935 319.246 209.399 319.246C206.863 319.246 204.818 321.351 204.818 323.962Z" fill="#EBEBEB"/>
<path d="M106.413 251.465L92.3438 185.705L187.968 169.792L188.95 238.583L188.132 238.667L106.413 251.465ZM94.5524 187.137L107.804 249.276L187.068 236.815L186.168 171.897L94.5524 187.137Z" fill="#A6A6A6"/>
<path d="M116.774 182.514L114.996 182.801L124.841 247.605L126.619 247.319L116.774 182.514Z" fill="#A6A6A6"/>
<path d="M142.339 178.308L140.55 178.511L147.561 243.96L149.349 243.757L142.339 178.308Z" fill="#A6A6A6"/>
<path d="M167.367 174.588L165.569 174.668L168.337 240.705L170.135 240.625L167.367 174.588Z" fill="#A6A6A6"/>
<path d="M187.88 190.559L97.9717 207.309L98.2922 209.132L188.201 192.381L187.88 190.559Z" fill="#A6A6A6"/>
<path d="M187.915 215.473L102.557 228.522L102.821 230.355L188.179 217.305L187.915 215.473Z" fill="#A6A6A6"/>
<path d="M139.542 265.695L106.413 251.381L106.332 250.96L92.3438 185.284L133.489 202.629L139.542 265.695ZM107.968 250.118L137.416 262.748L131.771 203.892L94.8796 188.231L107.968 250.118Z" fill="#DBDBDB"/>
<path d="M106.176 191.252L104.403 191.573L115.136 254.432L116.909 254.112L106.176 191.252Z" fill="#DBDBDB"/>
<path d="M119.704 197.246L117.923 197.507L126.498 259.525L128.28 259.264L119.704 197.246Z" fill="#DBDBDB"/>
<path d="M103.73 233.844L103.136 235.593L136.494 247.596L137.088 245.848L103.73 233.844Z" fill="#DBDBDB"/>
<path d="M98.3915 207.716L97.7285 209.438L134.152 224.296L134.815 222.574L98.3915 207.716Z" fill="#DBDBDB"/>
<path d="M227.805 254.497L187.068 238.33V169.707L249.236 188.315L227.805 254.497ZM188.95 236.983L226.741 251.971L247.028 189.41L188.95 172.065V236.983Z" fill="#DBDBDB"/>
<path d="M188.304 190.628L187.66 192.358L240.218 213.074L240.862 211.344L188.304 190.628Z" fill="#DBDBDB"/>
<path d="M188.385 215.581L187.705 217.296L232.77 236.218L233.449 234.503L188.385 215.581Z" fill="#DBDBDB"/>
<path d="M207.829 176.85L199.349 242.456L201.133 242.7L209.613 177.095L207.829 176.85Z" fill="#DBDBDB"/>
<path d="M227.971 182.878L213.72 248.019L215.475 248.426L229.727 183.285L227.971 182.878Z" fill="#DBDBDB"/>
<path d="M202.585 117.49L187.114 170.642L188.838 171.174L204.309 118.022L202.585 117.49Z" fill="#DBDBDB"/>
<path d="M264.134 130.028L247.137 188.422L248.861 188.954L265.858 130.559L264.134 130.028Z" fill="#DBDBDB"/>
<path d="M199.855 114.706L199.113 118.418L268.9 133.203L269.643 129.491L199.855 114.706Z" fill="#263238"/>
<path d="M204.9 161.455C207.19 162.803 209.726 163.897 212.262 164.739C208.008 159.266 207.436 145.963 208.09 147.815C211.035 156.572 218.152 165.834 220.524 166.171C226.413 166.255 232.221 164.571 237.211 161.287C231.73 155.14 230.831 141.668 231.24 142.51C235.575 150.93 243.428 155.309 244.737 155.225C249.154 150.594 251.362 146.215 250.626 145.878C245.391 143.268 240.483 135.774 236.066 127.775C231.649 119.945 228.377 107.82 222.487 101C217.088 94.7691 207.272 94.4323 202.119 98.3897C188.376 108.662 201.628 159.603 204.9 161.455Z" fill="#C95D4C"/>
<path d="M202.937 97.6321C201.792 98.3057 200.729 99.2319 199.911 100.326C199.093 101.337 198.438 102.516 197.866 103.694C196.802 106.052 195.903 108.494 195.412 111.02C194.267 115.988 194.757 125.586 195.085 130.554C195.494 135.606 196.312 140.574 197.702 145.458C198.029 146.721 198.438 147.899 198.684 149.078L199.829 152.699L201.138 156.235L202.61 159.772L201.547 156.235L200.402 152.615L199.42 148.994C199.093 147.815 198.766 146.552 198.52 145.373C197.293 140.49 196.475 135.522 196.148 130.554C195.739 125.586 195.248 116.072 196.23 111.188C196.721 108.662 197.457 106.22 198.438 103.863C198.929 102.684 199.584 101.505 200.32 100.495C200.729 99.9897 201.138 99.4845 201.547 98.9793C201.874 98.3899 202.447 97.9689 202.937 97.6321Z" fill="#C95D4C"/>
<path d="M251.118 144.279C249.482 142.763 247.927 141.163 246.455 139.395C244.983 137.711 243.592 136.027 242.283 134.259C240.974 132.491 239.666 130.638 238.602 128.786C237.457 126.934 236.394 124.997 235.33 123.06C233.122 119.271 230.177 111.02 227.641 107.399C226.414 105.547 225.105 103.779 223.633 102.01C222.897 101.168 222.16 100.326 221.342 99.5687C220.524 98.7267 219.543 98.0531 218.479 97.6321C219.461 98.1373 220.361 98.8109 221.179 99.7371C221.915 100.579 222.651 101.421 223.306 102.347C224.614 104.115 225.841 105.968 227.068 107.82C229.441 111.525 232.385 119.777 234.512 123.566C235.657 125.502 236.721 127.355 237.866 129.291C239.011 131.228 240.32 132.996 241.711 134.764C244.41 138.216 247.6 141.5 251.118 144.279Z" fill="#C95D4C"/>
<path d="M198.602 142.511C181.669 141.332 161.383 134.175 157.293 128.702C155.657 126.513 142.487 109.42 138.888 102.432C137.416 99.5687 158.847 83.5707 159.992 86.7703C161.301 90.4751 172.671 112.957 173.244 113.714C175.125 115.819 190.831 126.26 201.629 132.238C214.635 139.648 205.31 142.932 198.602 142.511Z" fill="#EB9481"/>
<path d="M169.317 136.869L179.788 117.335C179.788 117.335 197.62 127.018 205.228 133.164C211.363 138.132 209.972 143.353 199.011 142.847C188.704 142.426 169.317 136.869 169.317 136.869Z" fill="#C7C7C7"/>
<path d="M174.716 135.606C177.007 130.386 179.625 125.25 182.569 120.366C182.569 120.282 182.733 120.366 182.651 120.45C181.915 121.797 178.234 129.628 174.798 135.69C174.717 135.775 174.635 135.69 174.716 135.606Z" fill="#263238"/>
<path d="M199.91 139.311C199.91 140.069 199.338 140.658 198.601 140.658C197.865 140.658 197.293 140.069 197.293 139.311C197.293 138.553 197.865 137.964 198.601 137.964C199.338 137.88 199.91 138.553 199.91 139.311ZM186.25 137.88C185.513 137.88 184.941 138.469 184.941 139.227C184.941 139.985 185.513 140.574 186.25 140.574C186.986 140.574 187.558 139.985 187.558 139.227C187.558 138.553 186.986 137.88 186.25 137.88ZM173.816 137.88C173.652 137.88 173.489 137.88 173.325 137.964L174.798 138.385C174.634 138.048 174.225 137.88 173.816 137.88ZM186.25 121.208C185.513 121.208 184.941 121.797 184.941 122.555C184.941 123.313 185.513 123.902 186.25 123.902C186.986 123.902 187.558 123.313 187.558 122.555C187.558 121.882 186.986 121.208 186.25 121.208ZM203.837 132.07C204 132.238 204.082 132.322 204.327 132.407L203.837 132.07ZM192.385 129.796C191.648 129.796 191.076 130.386 191.076 131.144C191.076 131.901 191.648 132.491 192.385 132.491C193.121 132.491 193.693 131.901 193.693 131.144C193.693 130.386 193.121 129.796 192.385 129.796ZM180.033 129.796C179.297 129.796 178.724 130.386 178.724 131.144C178.724 131.901 179.297 132.491 180.033 132.491C180.769 132.491 181.342 131.901 181.342 131.144C181.342 130.386 180.769 129.796 180.033 129.796Z" fill="white"/>
<path d="M199.093 142.932C191.322 142.595 178.479 139.395 172.59 137.795L206.864 134.596C211.036 139.058 208.991 143.353 199.093 142.932Z" fill="#263238"/>
<path d="M130.544 94.2641C133.489 98.8951 143.223 106.052 146.168 106.81C149.113 107.568 161.465 91.0645 160.647 87.8649C159.829 84.7495 148.622 69.7619 143.469 68.0779C138.233 66.3939 127.436 89.4647 130.544 94.2641Z" fill="#EB9481"/>
<path d="M172.507 144.11L124.981 148.573L127.517 98.0529L161.137 94.9375L172.507 144.11Z" fill="#05BFB5"/>
<path d="M161.137 94.9375L160.319 145.205L172.508 144.11L161.137 94.9375Z" fill="#FDE05D"/>
<path opacity="0.1" d="M161.137 94.9375L160.319 145.205L172.508 144.11L161.137 94.9375Z" fill="#A6A6A6"/>
<path d="M161.137 94.9375L160.319 145.205L172.508 144.11L161.137 94.9375Z" fill="#048F88"/>
<path d="M160.892 144.784C161.791 143.942 162.773 143.184 163.755 142.511C164.736 141.837 165.718 141.079 166.699 140.322L166.863 140.237L167.027 140.322C167.926 140.827 168.744 141.332 169.562 142.006C170.38 142.595 171.28 143.184 172.016 143.774C171.117 143.353 170.217 142.848 169.317 142.342C168.417 141.837 167.517 141.332 166.699 140.827H166.945C165.963 141.585 164.982 142.258 164 142.932C163.018 143.605 161.955 144.195 160.892 144.784Z" fill="white"/>
<path d="M166.782 140.49C166.291 137.374 165.882 134.175 165.391 130.975C164.982 127.776 164.573 124.66 164.164 121.461C163.755 118.261 163.428 115.146 163.101 111.946L162.61 107.147C162.446 105.547 162.283 104.031 162.119 102.347C162.365 103.947 162.61 105.463 162.855 107.062L163.51 111.778C163.919 114.893 164.328 118.093 164.737 121.292C165.146 124.492 165.473 127.607 165.8 130.807C166.127 134.006 166.454 137.29 166.782 140.49Z" fill="white"/>
<path d="M136.189 101.842L134.144 101.505C134.144 101.421 134.962 95.7796 135.861 90.054C136.843 83.8232 142.487 80.7078 147.477 81.213C151.158 81.634 155.412 84.3284 155.084 90.5592C154.839 97.2952 154.512 100.495 154.512 100.663L152.467 100.495C152.467 100.495 152.794 97.211 153.039 90.5592C153.203 85.6756 150.176 83.6548 147.232 83.318C142.814 82.8128 138.724 85.844 137.825 90.3908C137.088 96.1164 136.189 101.758 136.189 101.842Z" fill="#263238"/>
<path d="M137.906 101.505C137.988 103.021 136.842 104.368 135.37 104.452C133.898 104.537 132.589 103.358 132.507 101.842C132.425 100.327 133.57 98.9793 135.043 98.8951C136.515 98.8109 137.824 99.9897 137.906 101.505Z" fill="#263238"/>
<path d="M156.066 100.411C156.148 101.926 155.003 103.273 153.53 103.358C152.058 103.442 150.749 102.263 150.667 100.747C150.585 99.2318 151.731 97.8846 153.203 97.8004C154.675 97.7162 155.984 98.895 156.066 100.411Z" fill="#263238"/>
<path d="M178.397 132.912L137.088 145.205L131.035 100.074L160.238 91.4011L178.397 132.912Z" fill="#455A64"/>
<path d="M160.237 91.4011L167.763 136.111L178.397 132.912L160.237 91.4011Z" fill="#37474F"/>
<path d="M168.254 135.606C168.908 134.764 169.645 133.922 170.381 133.08C171.117 132.238 171.853 131.48 172.589 130.638L172.671 130.554H172.835C173.653 130.891 174.553 131.228 175.371 131.565C176.189 131.986 177.088 132.322 177.906 132.659C177.007 132.407 176.189 132.154 175.289 131.817C174.389 131.48 173.571 131.228 172.671 130.891L172.917 130.807C172.18 131.565 171.444 132.407 170.626 133.164C169.808 134.091 169.072 134.848 168.254 135.606Z" fill="white"/>
<path d="M172.753 130.807C171.771 128.113 170.872 125.418 169.972 122.64C169.072 119.945 168.172 117.167 167.354 114.472C166.454 111.694 165.636 108.999 164.818 106.221L163.591 102.011C163.182 100.663 162.773 99.2319 162.364 97.8005C162.855 99.1477 163.346 100.495 163.755 101.842L165.145 105.968C166.045 108.662 166.945 111.441 167.763 114.135C168.663 116.83 169.481 119.608 170.299 122.387C171.117 125.166 171.935 128.028 172.753 130.807Z" fill="white"/>
<path d="M139.133 102.179L137.251 102.347C137.251 102.347 136.924 97.0426 136.597 91.738C136.433 86.5176 140.196 82.055 145.268 81.4656C148.622 81.0446 152.957 82.5602 153.939 88.2858C155.002 94.3482 155.329 97.2952 155.329 97.3794L153.448 97.632C153.448 97.632 153.121 94.6008 152.057 88.6226C151.239 84.2442 148.131 83.0654 145.431 83.4022C141.341 83.8232 138.315 87.4438 138.397 91.6538C138.724 96.8742 139.133 102.095 139.133 102.179Z" fill="#263238"/>
<path d="M140.606 101.505C141.015 102.852 140.197 104.284 138.888 104.705C137.579 105.126 136.189 104.284 135.78 102.936C135.371 101.589 136.189 100.158 137.498 99.7369C138.806 99.4001 140.197 100.158 140.606 101.505Z" fill="#263238"/>
<path d="M156.557 96.79C156.966 98.1372 156.23 99.5686 154.839 99.9896C153.53 100.411 152.14 99.6528 151.731 98.2214C151.322 96.8742 152.058 95.4428 153.448 95.0218C153.448 95.0218 153.448 95.0218 153.53 95.0218C154.839 94.685 156.23 95.4428 156.557 96.79Z" fill="#263238"/>
<path d="M147.967 71.3616C148.785 74.2244 145.104 73.5508 145.104 73.5508C145.104 73.5508 150.258 75.8242 150.012 79.0238C149.767 82.3076 145.268 81.213 144.941 81.213C145.186 81.2972 149.849 83.4864 149.276 86.7702C148.704 89.9698 144.368 88.4542 144.041 88.2858C144.286 88.4542 147.149 91.1486 146.168 93.5062C144.45 97.5478 136.924 90.9802 133.489 91.4012C133.489 91.4012 133.571 97.4636 133.489 97.632C133.489 97.632 126.209 91.5696 125.881 86.686C125.8 85.2546 126.618 83.9074 128.008 83.4864C128.008 83.4864 125.472 81.8024 125.8 79.1922C125.963 77.845 128.254 77.003 128.254 77.003C127.108 76.161 126.536 74.7296 126.699 73.2982C127.108 71.53 129.235 70.9406 129.235 70.9406C129.235 70.9406 127.926 68.6672 128.908 66.899C130.953 63.531 146.25 65.2992 147.967 71.3616Z" fill="#EB9481"/>
<path d="M129.644 70.9407C129.563 70.9407 129.563 70.8565 129.644 70.9407C135.043 70.0987 140.524 71.0249 145.35 73.5509C145.514 73.6351 145.432 73.8877 145.268 73.8877C140.197 72.1195 134.961 71.1091 129.644 70.9407Z" fill="#263238"/>
<path d="M128.172 77.0872C128.09 77.0872 128.09 77.003 128.172 77.003C134.143 76.2452 140.114 77.6766 145.104 81.0446C145.268 81.1288 145.268 81.4656 145.104 81.2972C141.587 79.1922 133.161 77.2556 128.172 77.0872Z" fill="#263238"/>
<path d="M144.368 88.6227C139.46 85.3389 134.062 84.0759 128.254 83.4865C128.172 83.4865 128.172 83.4023 128.254 83.3181C131.117 82.8129 134.798 83.4865 137.579 84.3285C140.197 85.0021 142.569 86.4335 144.45 88.3701C144.532 88.5385 144.45 88.7069 144.368 88.6227Z" fill="#263238"/>
<path d="M145.104 73.5508C146.086 74.056 146.985 74.6454 147.803 75.4032C148.621 76.0768 149.276 76.9188 149.685 77.845C149.848 78.266 149.848 78.8554 149.685 79.2764C149.521 79.7816 149.194 80.1184 148.785 80.4552C147.967 81.0446 146.985 81.213 146.004 80.9604L143.714 80.4552L145.758 81.7182C146.658 82.3076 147.476 82.9812 148.131 83.8232C148.785 84.581 149.112 85.5914 149.03 86.6018C148.949 87.528 148.212 88.2858 147.231 88.37C146.249 88.4542 145.186 88.2858 144.286 87.8648L141.75 86.7702L143.795 88.7068C144.368 89.212 144.859 89.8014 145.349 90.475C145.758 91.0644 146.004 91.8222 146.086 92.58C146.086 93.2536 145.677 93.9272 145.104 94.1798C144.368 94.4324 143.632 94.4324 142.896 94.264C141.341 93.843 139.787 93.3378 138.315 92.7484C137.579 92.4116 136.761 92.159 136.024 91.9064C135.288 91.5696 134.47 91.4854 133.57 91.4854C134.388 91.4854 135.206 91.738 135.943 92.0748C136.679 92.4116 137.415 92.7484 138.151 93.0852C139.624 93.843 141.178 94.4324 142.732 94.9376C143.55 95.1902 144.531 95.1902 145.349 94.9376C146.249 94.5166 146.904 93.5904 146.904 92.58C146.904 91.6538 146.577 90.7276 146.086 89.9698C145.595 89.212 145.104 88.5384 144.45 87.949L143.959 88.791C145.022 89.2962 146.249 89.5488 147.394 89.4646C148.049 89.3804 148.703 89.1278 149.112 88.6226C149.521 88.1174 149.848 87.528 149.93 86.8544C150.012 85.5914 149.603 84.3284 148.785 83.4022C148.049 82.476 147.149 81.7182 146.167 81.1288L145.84 81.9708C146.986 82.2234 148.294 81.9708 149.194 81.213C149.685 80.792 150.012 80.2868 150.176 79.6974C150.339 79.108 150.339 78.4344 150.094 77.845C149.603 76.8346 148.785 75.9926 147.803 75.4032C147.067 74.5612 146.086 73.9718 145.104 73.5508Z" fill="#263238"/>
<path d="M159.992 86.7703C159.992 86.7703 149.44 59.8263 143.141 67.8253C141.26 70.1829 136.27 82.2235 138.56 83.3181C141.587 84.7495 144.532 80.1185 146.004 76.9189C146.004 76.9189 148.213 84.7495 154.021 84.7495C156.147 84.6653 158.274 85.4231 159.992 86.7703Z" fill="#EB9481"/>
<path d="M143.714 67.1516C142.896 67.9936 142.16 68.9198 141.587 70.0144C141.014 71.0248 140.442 72.1194 139.951 73.214C138.969 75.4032 138.233 77.7608 137.661 80.0342C137.497 80.6236 137.415 81.2972 137.497 81.9708C137.497 82.3076 137.579 82.7286 137.742 82.9812C137.824 83.1496 137.988 83.318 138.07 83.4864C138.233 83.6548 138.397 83.739 138.56 83.8232C139.215 84.0758 139.951 84.16 140.605 83.9074C141.178 83.739 141.751 83.4022 142.323 82.9812C143.305 82.2234 144.041 81.213 144.695 80.1184C145.35 79.108 145.922 78.0134 146.413 76.9188L145.677 76.8346C146.004 77.6766 146.331 78.6028 146.74 79.3606C147.149 80.2026 147.722 80.9604 148.294 81.634C148.867 82.3076 149.521 82.897 150.339 83.4022C151.076 83.9074 151.894 84.2442 152.793 84.4126C151.975 84.16 151.157 83.739 150.503 83.2338C149.849 82.7286 149.194 82.055 148.703 81.3814C148.213 80.7078 147.722 79.95 147.395 79.108C146.986 78.3502 146.74 77.5082 146.495 76.6662L146.249 75.6558L145.595 76.6662C145.104 77.7608 144.532 78.7712 143.877 79.6974C143.305 80.6236 142.569 81.5498 141.669 82.2234C140.933 82.897 139.869 83.2338 138.969 82.897C138.233 82.6444 138.315 81.2972 138.56 80.2026C138.806 79.0238 139.051 77.9292 139.46 76.7504C139.787 75.5716 140.115 74.477 140.524 73.3824C141.178 71.1932 142.323 69.0882 143.714 67.1516Z" fill="#263238"/>
<path d="M87.0272 245.824C82.7736 251.213 79.1744 255.76 78.111 256.938C78.111 256.938 70.8308 265.106 70.4218 265.106C67.9678 264.685 24.4502 227.3 23.4686 225.448C22.487 223.595 27.395 220.564 30.1762 220.648C33.2846 221.238 36.393 222.08 39.4196 223.09C46.5362 225.195 54.389 227.974 54.389 227.974L59.1334 221.575L87.0272 245.824Z" fill="#EBEBEB"/>
<path d="M23.2225 225.448C24.2859 227.3 67.8035 265.359 70.2575 265.695C71.2391 265.864 76.9651 259.633 83.6727 251.971L83.8363 251.718L56.1061 226.795L55.6971 227.3C55.6971 227.3 32.7931 220.396 29.9301 220.312C27.1489 220.312 22.1591 223.595 23.2225 225.448Z" fill="#47FFE6"/>
<path d="M25.1852 224.101C32.629 230.331 62.2406 256.181 69.1936 262.917C69.2754 263.001 69.1936 263.001 69.1936 262.917C61.5862 256.938 32.22 230.837 25.1852 224.101C24.9398 224.101 25.0216 224.016 25.1852 224.101Z" fill="#263238"/>
<path d="M52.9982 224.185C56.352 226.121 59.4604 229.658 59.9512 233.699C59.9512 233.868 59.7876 233.868 59.7058 233.783C57.7426 230.5 55.3704 227.384 52.7528 224.521C52.671 224.437 52.671 224.269 52.7528 224.185C52.8346 224.185 52.9164 224.185 52.9982 224.185Z" fill="#263238"/>
<path d="M49.8888 223.68C53.2426 225.616 56.351 229.153 56.8418 233.194C56.8418 233.362 56.6782 233.362 56.5964 233.278C54.6332 229.91 52.261 226.879 49.6434 224.016C49.5616 223.932 49.5616 223.764 49.6434 223.68C49.6434 223.68 49.807 223.68 49.8888 223.68Z" fill="#263238"/>
<path d="M46.6993 223.174C50.0531 225.111 53.1615 228.647 53.6523 232.689C53.6523 232.857 53.4887 232.857 53.4069 232.773C51.4437 229.489 49.0715 226.374 46.4539 223.511C46.3721 223.427 46.3721 223.258 46.4539 223.174C46.5357 223.09 46.6175 223.09 46.6993 223.174Z" fill="#263238"/>
<path d="M52.4252 219.806C53.0796 223.258 55.2064 226.205 56.8424 229.152C57.006 229.405 57.2514 229.405 57.4968 229.237C57.5786 229.237 57.5786 229.152 57.5786 229.152C57.5786 229.237 57.6604 229.237 57.7422 229.152C59.051 225.784 59.46 222.08 58.8874 218.459C58.5602 216.354 57.006 213.828 54.552 214.417C52.098 215.007 52.0162 217.87 52.4252 219.806ZM53.6522 216.775C55.8608 213.07 57.824 217.785 57.9876 219.301C58.0694 220.311 58.1512 221.322 58.1512 222.332C58.0694 224.437 57.9058 226.542 57.5786 228.563C56.8424 227.047 56.0244 225.616 55.2882 224.1C54.3066 222.416 52.4252 218.88 53.6522 216.775Z" fill="#263238"/>
<path d="M71.0761 233.11C71.8941 230.668 69.6037 228.9 67.5587 228.31C64.1231 227.384 60.5239 227.468 57.0883 228.479C57.0065 228.479 57.0065 228.563 57.0065 228.647C56.7611 228.816 56.6793 229.068 56.8429 229.321C56.8429 229.405 56.9247 229.405 56.9247 229.405C59.6241 231.342 62.3235 233.783 65.5955 234.878C67.5587 235.467 70.3399 235.467 71.0761 233.11ZM61.8327 231.51C60.4421 230.584 59.1333 229.573 57.7427 228.731C59.7877 228.731 61.8327 228.563 63.7959 228.816C64.7775 228.9 65.7591 228.984 66.7407 229.237C68.2131 229.573 72.5485 232.099 68.7857 233.952C66.6589 234.878 63.3869 232.605 61.8327 231.51Z" fill="#263238"/>
<path d="M58.8057 220.059L84.1637 251.044C84.1637 251.044 135.043 187.474 139.624 188.4C141.914 188.821 159.338 222.417 172.998 228.311C181.506 232.015 194.594 229.068 202.937 220.985C212.017 212.228 213.735 196.146 213.735 196.146L174.471 171.139C174.471 171.139 171.362 176.864 169.481 176.022C168.254 175.517 150.258 141.079 133.653 143.69C113.448 147.058 58.8057 220.059 58.8057 220.059Z" fill="#37474F"/>
<path d="M64.123 217.364C65.0228 218.038 72.0576 225.784 73.6118 227.553C76.6384 231.173 79.665 234.71 82.6916 238.414C84.2458 240.351 87.5996 244.393 87.6814 244.645C87.6814 244.814 87.5178 244.898 87.436 244.814C84.164 241.446 81.0556 237.993 77.9472 234.457C74.8388 230.921 64.6956 218.627 63.9594 217.449C63.7958 217.449 63.9594 217.28 64.123 217.364Z" fill="#263238"/>
<path d="M139.543 180.569C140.442 181.158 141.26 181.916 141.751 182.927C145.187 187.81 148.704 192.61 152.14 197.409C155.412 201.956 158.52 206.503 161.874 210.965C164.655 214.67 167.682 218.291 171.608 220.648C175.371 223.006 179.87 223.848 184.287 223.09C188.623 222.248 192.794 220.48 196.475 217.87C197.375 217.28 198.275 216.607 199.093 215.933C199.175 215.849 199.257 216.017 199.175 216.017C192.549 221.153 184.205 225.7 175.616 223.09C171.445 221.827 167.927 218.88 164.982 215.68C161.71 211.891 158.684 207.85 155.903 203.724C152.467 198.84 148.95 194.041 145.514 189.242C143.878 186.884 142.242 184.526 140.524 182.253C140.197 181.748 139.788 181.411 139.215 181.243C138.479 181.158 137.825 181.411 137.334 181.916C136.271 182.842 135.207 183.769 134.226 184.779C126.127 192.694 87.8449 239.425 87.1087 240.519C87.0269 240.604 86.8633 240.519 86.9451 240.351C92.9165 231.089 123.428 195.136 130.872 187.221C132.753 185.2 134.798 183.348 136.925 181.579C137.498 180.653 138.561 180.316 139.543 180.569Z" fill="#263238"/>
<path d="M50.9529 208.523C40.2371 213.491 30.2575 217.87 28.9487 217.364C26.8219 216.101 1.05491 165.666 0.80951 163.645C0.56411 161.624 6.20831 160.529 8.74411 161.708C11.4435 163.476 14.0611 165.413 16.5151 167.518C22.3229 172.149 28.6215 177.706 28.6215 177.706L34.4293 175.096L50.9529 208.523Z" fill="#EBEBEB"/>
<path d="M0.236729 162.634C0.563929 164.739 26.6581 217.028 28.8667 218.375C29.6847 218.88 37.2921 215.428 46.3719 210.965L46.6173 210.797L30.1755 176.864L29.6029 177.201C29.6029 177.201 10.9525 161.792 8.33493 160.614C5.79913 159.351 -0.0904714 160.445 0.236729 162.634Z" fill="#47FFE6"/>
<path d="M2.5268 162.129C7.1076 170.802 24.94 206.334 28.8664 215.259C28.8664 215.344 28.8664 215.344 28.7846 215.259C24.0402 206.755 6.535 171.139 2.445 162.129C2.2814 162.045 2.445 161.961 2.5268 162.129Z" fill="#263238"/>
<path d="M28.2127 173.16C30.5849 176.275 32.1391 180.822 31.0757 184.695C30.9939 184.863 30.8303 184.779 30.8303 184.695C30.1759 180.822 29.1943 177.033 27.8037 173.412C27.7219 173.328 27.7219 173.16 27.8855 173.075C28.0491 172.991 28.1309 172.991 28.2127 173.16Z" fill="#263238"/>
<path d="M25.5135 171.475C27.8857 174.591 29.4399 179.138 28.3765 183.011C28.3765 183.179 28.1311 183.095 28.1311 183.011C27.4767 179.138 26.4951 175.349 25.1045 171.728C25.0227 171.644 25.0227 171.475 25.1863 171.391C25.2681 171.307 25.4317 171.307 25.5135 171.475Z" fill="#263238"/>
<path d="M22.8133 169.707C25.1855 172.823 26.7397 177.369 25.6763 181.243C25.6763 181.411 25.4309 181.327 25.4309 181.243C24.7765 177.369 23.7949 173.58 22.4043 169.96C22.3225 169.876 22.3225 169.707 22.4861 169.623C22.5679 169.539 22.7315 169.623 22.8133 169.707Z" fill="#263238"/>
<path d="M29.3574 168.865C28.703 172.317 29.521 175.854 29.93 179.306C30.0118 179.559 30.2572 179.727 30.5026 179.643C30.5844 179.643 30.5844 179.643 30.6662 179.559C30.6662 179.643 30.748 179.643 30.8298 179.559C33.2838 176.948 35.0016 173.749 35.9014 170.212C36.3922 168.107 35.9014 165.16 33.4474 164.739C30.8298 164.403 29.6846 166.844 29.3574 168.865ZM31.566 166.592C34.9198 164.066 35.0834 169.118 34.6744 170.633C34.429 171.644 34.02 172.57 33.6928 173.496C32.8748 175.433 31.8114 177.201 30.8298 179.053C30.748 177.369 30.5026 175.685 30.339 174.001C30.1754 171.981 29.6846 167.939 31.566 166.592Z" fill="#263238"/>
<path d="M41.7091 188.484C43.3451 186.547 41.8727 183.937 40.2367 182.674C37.3737 180.485 34.0199 179.138 30.5025 178.717C30.4207 178.717 30.4207 178.801 30.4207 178.801C30.1753 178.885 30.0117 179.053 30.0117 179.39C30.0117 179.474 30.0117 179.474 30.0935 179.559C31.8931 182.421 33.4473 185.789 36.0649 187.979C37.5373 189.242 40.0731 190.336 41.7091 188.484ZM33.6927 183.348C32.7929 181.916 31.8931 180.485 30.9933 179.138C32.8747 179.811 34.7561 180.653 36.6375 181.579C37.5373 182 38.3553 182.506 39.1733 183.095C40.4003 184.021 43.5087 187.979 39.3369 188.315C36.8829 188.4 34.7561 185.032 33.6927 183.348Z" fill="#263238"/>
<path d="M31.4023 173.833L51.7705 210.292C51.7705 210.292 111.321 177.875 116.311 178.885C123.018 180.232 147.068 224.858 167.845 230.247C176.924 232.605 189.031 231.342 197.865 223.932C206.291 217.028 211.935 207.092 213.734 196.146L184.941 177.959C182.078 182.337 178.97 186.463 175.698 190.505C175.698 190.505 142.732 146.047 121.301 139.9C106.904 135.69 31.4023 173.833 31.4023 173.833Z" fill="#37474F"/>
<path d="M180.278 174.759C179.542 176.78 178.642 178.717 177.988 180.737C177.661 181.664 177.333 182.59 177.088 183.6C176.761 184.442 176.843 185.368 177.333 186.042C178.07 186.8 178.806 186.295 179.215 185.537C179.624 184.779 180.033 183.769 180.442 182.927C180.851 182.085 181.342 180.906 181.751 179.895C181.996 179.39 182.241 178.885 182.487 178.38C182.487 178.296 183.059 177.369 183.141 177.033L180.278 174.759ZM183.059 177.117C182.978 177.117 182.978 177.033 183.059 177.117C183.059 176.948 183.141 176.948 183.223 176.948C183.223 176.948 183.305 176.948 183.305 177.033C183.387 177.201 183.305 177.454 183.223 177.706C183.059 178.211 182.896 178.717 182.732 179.306C182.405 180.316 182.078 181.243 181.751 182.253L180.605 185.116C180.36 185.874 180.033 186.547 179.46 187.137C178.888 187.642 178.07 187.726 177.415 187.221C177.415 187.305 177.415 187.389 177.415 187.473C177.415 187.726 177.333 187.894 177.252 188.147C177.17 188.4 177.088 188.568 177.088 188.821C177.006 189.073 177.006 188.989 176.924 189.073C176.843 189.157 176.761 189.242 176.761 189.326C176.679 189.41 176.597 189.41 176.515 189.41C176.434 189.41 176.434 189.326 176.434 189.242C176.434 189.157 176.434 188.989 176.434 188.905C176.434 188.736 176.515 188.652 176.515 188.568C176.597 188.4 176.679 188.147 176.761 187.979C176.843 187.81 176.924 187.558 177.006 187.389L177.17 187.052C176.843 186.8 176.597 186.379 176.515 186.042C176.352 185.284 176.352 184.526 176.597 183.769C176.843 182.842 177.17 182 177.497 181.158C178.233 178.969 179.133 176.864 180.278 174.928C180.36 174.928 180.442 175.012 180.524 175.096L183.059 177.117Z" fill="#263238"/>
<path d="M193.367 188.905C193.285 189.915 193.122 191.01 193.122 192.02C193.122 193.031 193.122 194.125 193.203 195.136C193.285 196.146 193.449 197.072 193.776 198.083C194.103 199.009 194.594 199.851 195.167 200.609C196.23 202.124 197.621 203.387 199.093 204.482C199.829 204.987 200.647 205.492 201.465 205.913C201.874 206.166 202.365 206.334 202.774 206.503C203.101 206.587 203.51 206.839 203.756 207.092C203.837 207.176 203.837 207.345 203.756 207.429L203.674 207.513C202.938 207.513 202.283 207.345 201.629 207.008C200.893 206.755 200.238 206.418 199.584 205.997C198.275 205.24 196.966 204.229 195.903 203.135C194.758 202.04 193.858 200.777 193.203 199.346C192.631 197.914 192.304 196.314 192.385 194.715C192.385 192.778 192.631 190.841 193.203 188.905C193.203 188.736 193.367 188.736 193.367 188.905Z" fill="#263238"/>
<path d="M38.6827 172.991C43.5907 180.99 55.697 204.735 55.697 205.071C55.697 205.24 55.4516 205.324 55.3698 205.156C52.9158 201.114 38.8463 174.507 38.3555 173.16C38.4373 172.991 38.6009 172.823 38.6827 172.991Z" fill="#263238"/>
<path d="M212.18 196.651C207.109 207.092 197.947 221.49 186.986 225.027C176.352 228.479 164.082 226.037 156.065 217.87C150.667 212.397 127.844 183.516 125.963 181.243C125.063 180.064 124 178.969 122.936 178.043C121.873 177.033 120.728 176.107 119.501 175.349C118.192 174.675 116.72 174.507 115.329 174.928C113.611 175.433 111.975 176.107 110.339 176.696C106.985 177.959 103.632 179.306 100.278 180.653C87.0262 185.958 74.02 191.936 61.4228 198.588C59.8686 199.43 58.2326 200.272 56.6784 201.198C56.5966 201.282 56.6784 201.367 56.7602 201.367C69.8482 195.052 82.9362 188.821 96.4332 183.264C99.787 181.916 103.223 180.569 106.576 179.222L111.648 177.285C113.284 176.528 115.084 175.938 116.883 175.601C118.683 175.433 120.073 176.612 121.382 177.706C122.446 178.717 123.509 179.727 124.491 180.822C126.536 183.095 148.131 210.039 154.593 217.28C162.119 225.785 174.634 229.153 185.35 226.374C198.356 223.006 208.417 207.597 212.671 196.82C212.507 196.651 212.262 196.483 212.18 196.651Z" fill="#263238"/>
<path d="M177.988 191.515C173.489 184.442 165.718 176.527 160.156 170.381C154.512 164.066 148.459 158.256 142.078 152.867C138.479 149.836 134.716 147.057 130.872 144.363C130.79 144.279 130.708 144.447 130.79 144.447C137.497 149.415 143.878 154.888 149.931 160.698C155.902 166.508 174.88 187.979 177.661 191.852C177.743 192.104 178.152 191.768 177.988 191.515Z" fill="#263238"/>
<path d="M100.851 184.19C104.941 182.421 108.949 180.822 113.121 179.474C114.839 178.885 116.884 177.959 118.438 179.222C119.174 179.811 130.545 193.62 131.608 195.893C131.608 195.978 131.526 196.146 131.444 196.062C131.363 195.978 117.702 179.811 116.72 179.727C115.739 179.811 114.839 179.98 113.939 180.401C105.759 183.095 97.8245 186.379 90.1353 190.252C88.0085 191.262 85.8817 192.357 83.7549 193.452C81.6281 194.546 79.4195 195.809 77.2109 196.735C77.1291 196.82 76.9655 196.735 76.9655 196.651C76.8837 196.567 76.9655 196.399 77.0473 196.399C78.9287 195.22 80.9737 194.209 82.9369 193.199C84.9001 192.189 86.8633 191.094 88.9083 190.084C92.7529 187.979 96.7611 185.958 100.851 184.19Z" fill="#263238"/>
<path d="M179.297 159.856L170.136 176.106C170.136 176.106 204.492 199.009 214.717 201.787C214.717 201.787 222.57 155.309 215.862 139.648C212.508 131.817 206.128 130.049 200.647 132.828C199.257 133.501 184.205 141.5 180.852 147.394C177.825 152.53 179.297 159.856 179.297 159.856Z" fill="#C7C7C7"/>
<path d="M212.344 189.41C212.344 190.168 211.772 190.757 211.036 190.757C210.299 190.757 209.727 190.168 209.727 189.41C209.727 188.652 210.299 188.063 211.036 188.063C211.69 188.063 212.344 188.736 212.344 189.41ZM198.602 188.063C197.866 188.063 197.293 188.652 197.293 189.41C197.293 190.168 197.866 190.757 198.602 190.757C199.338 190.757 199.911 190.168 199.911 189.41C199.911 188.736 199.338 188.063 198.602 188.063ZM204.819 196.735C204.492 196.735 204.246 196.82 204.001 196.988L206.128 198.083C206.128 197.325 205.555 196.735 204.819 196.735ZM211.036 171.391C210.299 171.391 209.727 171.981 209.727 172.738C209.727 173.496 210.299 174.086 211.036 174.086C211.772 174.086 212.344 173.496 212.344 172.738C212.344 171.981 211.69 171.391 211.036 171.391ZM198.602 171.391C197.866 171.391 197.293 171.981 197.293 172.738C197.293 173.496 197.866 174.086 198.602 174.086C199.338 174.086 199.911 173.496 199.911 172.738C199.911 171.981 199.338 171.391 198.602 171.391ZM186.25 171.391C185.514 171.391 184.941 171.981 184.941 172.738C184.941 173.496 185.514 174.086 186.25 174.086C186.986 174.086 187.559 173.496 187.559 172.738C187.559 171.981 186.986 171.391 186.25 171.391ZM173.817 171.391C173.08 171.391 172.508 171.981 172.508 172.738C172.508 173.496 173.08 174.086 173.817 174.086C174.553 174.086 175.125 173.496 175.125 172.738C175.207 171.981 174.553 171.391 173.817 171.391ZM217.171 179.98C216.434 180.064 215.862 180.737 215.944 181.495C216.025 182.169 216.516 182.674 217.171 182.758L217.416 180.064C217.334 179.98 217.252 179.98 217.171 179.98ZM204.819 179.98C204.083 179.98 203.51 180.569 203.51 181.327C203.51 182.085 204.083 182.674 204.819 182.674C205.555 182.674 206.128 182.085 206.128 181.327C206.128 180.569 205.555 179.98 204.819 179.98ZM192.385 179.98C191.649 179.98 191.076 180.569 191.076 181.327C191.076 182.085 191.649 182.674 192.385 182.674C193.121 182.674 193.694 182.085 193.694 181.327C193.776 180.569 193.121 179.98 192.385 179.98ZM180.033 179.98C179.297 179.98 178.725 180.569 178.725 181.327C178.725 181.495 178.725 181.664 178.806 181.748L180.197 182.674C180.851 182.59 181.342 182 181.342 181.327C181.342 180.569 180.77 179.98 180.033 179.98ZM211.036 154.635C210.299 154.635 209.727 155.225 209.727 155.983C209.727 156.74 210.299 157.33 211.036 157.33C211.772 157.33 212.344 156.74 212.344 155.983C212.344 155.225 211.69 154.635 211.036 154.635ZM198.602 154.635C197.866 154.635 197.293 155.225 197.293 155.983C197.293 156.74 197.866 157.33 198.602 157.33C199.338 157.33 199.911 156.74 199.911 155.983C199.911 155.225 199.338 154.635 198.602 154.635ZM186.25 154.635C185.514 154.635 184.941 155.225 184.941 155.983C184.941 156.74 185.514 157.33 186.25 157.33C186.986 157.33 187.559 156.74 187.559 155.983C187.559 155.225 186.986 154.635 186.25 154.635ZM217.171 163.224C216.434 163.224 215.862 163.813 215.862 164.571C215.862 165.329 216.434 165.918 217.171 165.918C217.661 165.918 218.152 165.581 218.398 165.076C218.398 164.739 218.398 164.403 218.398 164.066C218.234 163.645 217.743 163.224 217.171 163.224ZM204.819 163.224C204.083 163.224 203.51 163.813 203.51 164.571C203.51 165.329 204.083 165.918 204.819 165.918C205.555 165.918 206.128 165.329 206.128 164.571C206.128 163.813 205.555 163.224 204.819 163.224ZM192.385 163.224C191.649 163.224 191.076 163.813 191.076 164.571C191.076 165.329 191.649 165.918 192.385 165.918C193.121 165.918 193.694 165.329 193.694 164.571C193.776 163.813 193.121 163.224 192.385 163.224ZM180.033 163.224C179.297 163.224 178.725 163.813 178.725 164.571C178.725 165.329 179.297 165.918 180.033 165.918C180.77 165.918 181.342 165.329 181.342 164.571C181.342 163.813 180.77 163.224 180.033 163.224ZM211.036 137.88C210.299 137.88 209.727 138.469 209.727 139.227C209.727 139.985 210.299 140.574 211.036 140.574C211.772 140.574 212.344 139.985 212.344 139.227C212.344 138.553 211.69 137.88 211.036 137.88ZM198.602 137.88C197.866 137.88 197.293 138.469 197.293 139.227C197.293 139.985 197.866 140.574 198.602 140.574C199.338 140.574 199.911 139.985 199.911 139.227C199.911 138.553 199.338 137.88 198.602 137.88ZM217.58 146.552C217.416 146.468 217.334 146.468 217.171 146.468C216.434 146.468 215.862 147.057 215.862 147.815C215.862 148.573 216.434 149.162 217.171 149.162C217.416 149.162 217.661 149.078 217.907 148.91C217.825 148.152 217.661 147.394 217.58 146.552ZM204.819 146.552C204.083 146.552 203.51 147.142 203.51 147.899C203.51 148.657 204.083 149.247 204.819 149.247C205.555 149.247 206.128 148.657 206.128 147.899C206.128 147.142 205.555 146.552 204.819 146.552ZM192.385 146.552C191.649 146.552 191.076 147.142 191.076 147.899C191.076 148.657 191.649 149.247 192.385 149.247C193.121 149.247 193.694 148.657 193.694 147.899C193.776 147.142 193.121 146.552 192.385 146.552ZM181.015 147.057C180.933 147.142 180.851 147.31 180.77 147.394C180.442 147.984 180.115 148.657 179.87 149.247H179.952C180.688 149.247 181.26 148.657 181.26 147.899C181.342 147.563 181.26 147.226 181.015 147.057ZM203.674 131.817C204.001 132.491 204.819 132.743 205.473 132.407C205.8 132.238 205.964 131.986 206.128 131.649C205.228 131.565 204.41 131.649 203.674 131.817Z" fill="white"/>
<path d="M196.557 167.939C192.467 164.066 187.886 160.782 182.896 158.34C182.814 158.34 182.814 158.34 182.814 158.425V158.509C187.477 161.624 191.812 165.076 196.393 168.192C196.475 168.192 196.639 168.023 196.557 167.939Z" fill="#263238"/>
<path d="M187.968 162.635C187.641 162.298 187.314 162.045 186.986 161.793C186.577 161.54 186.168 161.372 185.759 161.203C184.86 160.866 183.96 160.698 182.978 160.53C182.896 160.53 182.896 160.614 182.896 160.614C182.896 160.614 182.896 160.614 182.978 160.698C183.387 160.866 183.878 160.951 184.287 161.119C184.696 161.287 185.187 161.456 185.596 161.624C186.005 161.793 186.332 161.961 186.741 162.214C187.15 162.382 187.559 162.635 187.886 162.887C187.968 162.887 188.05 162.719 187.968 162.635Z" fill="#263238"/>
<path d="M209.154 136.953C208.581 137.711 202.365 141.5 198.602 139.648C197.375 139.058 200.32 132.154 200.32 132.154L200.401 131.565L201.874 123.734L212.344 121.966L213.817 121.797C213.817 121.797 213.244 123.902 212.59 126.597C212.59 126.681 212.508 126.849 212.508 126.934C212.508 127.018 212.426 127.27 212.426 127.355C212.344 127.776 212.262 128.197 212.099 128.533C212.017 128.954 211.935 129.123 211.853 129.46C211.772 129.796 211.69 130.049 211.608 130.386C210.872 132.575 210.054 134.848 209.154 136.953Z" fill="#EB9481"/>
<path d="M212.672 126.428C209.563 129.881 205.064 131.733 200.483 131.48L201.956 123.65L212.426 121.882L213.899 121.713C213.899 121.713 213.326 123.818 212.672 126.428Z" fill="#263238"/>
<path d="M195.33 110.599C191.485 124.071 198.929 127.944 201.71 128.786C204.246 129.544 213.08 131.817 218.234 118.85C223.387 105.884 218.561 99.737 212.753 97.7162C206.945 95.6954 199.174 97.1268 195.33 110.599Z" fill="#EB9481"/>
<path d="M217.661 118.177C214.634 117.419 215.943 112.451 215.943 112.451C215.943 112.451 212.589 111.188 213.816 105.378C211.853 107.315 209.154 108.241 206.454 107.82C205.473 107.736 209.399 105.968 209.399 105.968C209.399 105.968 204.491 108.578 197.456 105.21C196.965 104.957 199.583 96.9584 206.045 95.8638C211.771 94.685 217.579 97.4636 220.442 102.684C220.442 102.684 223.55 105.884 222.978 110.178C222.487 114.472 218.806 118.514 217.661 118.177Z" fill="#C95D4C"/>
<path d="M200.483 108.241C200.81 108.325 201.137 108.325 201.464 108.325C201.792 108.41 202.201 108.41 202.446 108.241C202.61 108.073 202.691 107.904 202.61 107.652C202.446 107.231 202.037 107.062 201.628 107.062C201.219 106.978 200.728 107.062 200.401 107.315C200.156 107.483 200.074 107.82 200.237 108.073C200.237 108.157 200.401 108.241 200.483 108.241Z" fill="#263238"/>
<path d="M209.073 111.02C208.827 110.851 208.5 110.767 208.255 110.599C207.927 110.515 207.682 110.262 207.518 109.925C207.437 109.673 207.518 109.504 207.682 109.336C208.091 109.167 208.5 109.167 208.909 109.42C209.318 109.588 209.645 109.925 209.809 110.346C209.891 110.599 209.809 110.936 209.482 111.02C209.318 111.104 209.154 111.104 209.073 111.02Z" fill="#263238"/>
<path d="M206.373 113.883C206.373 113.883 206.455 113.967 206.373 113.967C206.046 114.893 205.882 115.988 206.536 116.493L206.373 113.883ZM206.536 116.661C205.637 116.156 205.882 114.725 206.373 113.967L206.536 116.661Z" fill="#263238"/>
<path d="M207.436 113.209C208.909 113.546 208.09 116.577 206.782 116.24C205.473 115.903 206.209 112.956 207.436 113.209Z" fill="#263238"/>
<path d="M207.927 113.546C208.172 113.798 208.336 114.135 208.581 114.304C208.908 114.388 209.317 114.219 209.563 113.967C209.563 113.967 209.645 113.967 209.563 113.967C209.399 114.556 209.072 114.977 208.418 114.977C207.763 114.977 207.6 114.304 207.6 113.714C207.763 113.546 207.845 113.462 207.927 113.546Z" fill="#263238"/>
<path d="M201.219 112.115C201.219 112.115 201.137 112.114 201.137 112.199C200.892 113.125 200.565 114.135 199.665 114.304C199.665 114.304 199.665 114.304 199.665 114.388C200.647 114.472 201.219 113.041 201.219 112.115Z" fill="#263238"/>
<path d="M200.729 110.936C199.338 110.43 198.438 113.377 199.747 113.883C200.974 114.388 201.874 111.357 200.729 110.936Z" fill="#263238"/>
<path d="M200.074 110.936C199.829 111.02 199.502 111.188 199.174 111.188C198.929 111.104 198.684 110.683 198.602 110.346C198.438 110.936 198.438 111.525 198.929 111.862C199.42 112.199 199.911 111.778 200.156 111.188C200.156 111.104 200.156 110.936 200.074 110.936Z" fill="#263238"/>
<path d="M204 121.376C203.755 121.545 203.427 121.797 203.1 121.713C202.773 121.629 202.446 121.461 202.2 121.208C202.2 121.208 202.119 121.208 202.2 121.208C202.364 121.629 202.773 121.966 203.182 121.966C203.591 121.966 203.918 121.713 204.082 121.292C204.082 121.461 204 121.376 204 121.376Z" fill="#263238"/>
<path d="M200.729 118.935C200.974 119.608 201.383 120.113 201.874 120.534C202.201 120.787 202.528 120.871 202.855 120.871C203.673 120.871 203.837 120.198 203.837 119.608C203.837 119.271 203.837 118.935 203.755 118.598C202.855 119.103 201.792 119.187 200.729 118.935Z" fill="#263238"/>
<path d="M201.874 120.534C202.201 120.787 202.528 120.871 202.856 120.871C203.674 120.871 203.837 120.198 203.837 119.608C203.101 119.44 202.283 119.777 201.874 120.534Z" fill="#FF99BA"/>
<path d="M201.055 116.746C201.055 116.746 200.483 118.093 200.319 118.682C200.319 118.766 200.401 118.851 200.646 118.851C201.71 119.356 202.937 119.272 203.837 118.598C203.918 118.598 203.837 118.43 203.755 118.514C202.773 118.851 201.792 118.851 200.81 118.514C200.81 118.345 201.792 116.325 201.792 116.24C201.301 116.156 200.81 116.072 200.237 116.156C201.383 113.378 202.855 110.852 203.918 107.989C203.918 107.905 203.918 107.905 203.837 107.905H203.755C202.037 110.599 200.565 113.462 199.419 116.493C199.338 116.83 200.728 116.746 201.055 116.746Z" fill="#263238"/>
<path d="M215.943 119.271C215.943 119.271 219.706 115.567 221.424 117.082C223.142 118.514 219.706 124.323 217.334 124.66C216.107 124.997 214.88 124.155 214.553 122.892V122.808L215.943 119.271Z" fill="#EB9481"/>
<path d="M220.36 118.682C220.36 118.682 220.36 118.766 220.36 118.682C218.806 119.187 217.415 120.282 216.679 121.797C217.17 121.208 217.906 121.208 218.479 121.629C218.56 121.713 218.56 121.713 218.642 121.797L220.36 118.682ZM218.642 121.882C218.151 121.545 217.497 121.629 217.006 122.05C216.597 122.387 216.27 122.724 216.025 123.145C215.943 123.313 215.697 123.145 215.779 122.976C216.106 120.955 218.233 118.345 220.442 118.598L218.642 121.882Z" fill="#263238"/>
<path d="M139.46 265.695L131.525 202.461L249.236 188.063L227.722 254.497L227.15 254.581L139.46 265.695ZM133.652 204.145L141.096 263.59L226.495 252.813L246.782 190.252L133.652 204.145Z" fill="#EBEBEB"/>
<path d="M159.693 200.049L157.9 200.21L163.063 261.191L164.856 261.03L159.693 200.049Z" fill="#EBEBEB"/>
<path d="M189.354 196.142L185.879 258.176L187.675 258.283L191.15 196.249L189.354 196.142Z" fill="#EBEBEB"/>
<path d="M219.324 192.297L207.731 255.506L209.5 255.85L221.093 192.64L219.324 192.297Z" fill="#EBEBEB"/>
<path d="M240.934 209.853L134.451 222.185L134.652 224.026L241.135 211.694L240.934 209.853Z" fill="#EBEBEB"/>
<path d="M233.018 234.504L136.689 244.872L136.877 246.715L233.205 236.347L233.018 234.504Z" fill="#EBEBEB"/>
<path d="M215.371 281.946L159.338 282.367L167.109 223.511L206.782 223.174L215.371 281.946Z" fill="#455A64"/>
<path d="M206.781 223.174L200.974 282.03L215.37 281.946L206.781 223.174Z" fill="#263238"/>
<path d="M177.497 227.721L175.452 227.384C175.452 227.384 176.352 221.659 177.334 215.933C178.397 209.786 184.123 206.671 189.031 207.26C192.712 207.681 196.884 210.46 196.556 216.775C196.229 223.511 195.82 226.711 195.82 226.795L193.857 226.542C193.857 226.542 194.184 223.258 194.593 216.607C194.839 211.807 191.812 209.702 188.867 209.281C184.45 208.692 180.278 211.723 179.379 216.27C178.397 221.995 177.497 227.637 177.497 227.721Z" fill="#263238"/>
<path d="M201.792 281.609C202.937 280.767 204.164 280.009 205.309 279.167C206.455 278.409 207.682 277.652 208.909 276.894L209.072 276.81L209.236 276.894C210.217 277.652 211.117 278.325 212.099 279.083C213.08 279.841 213.98 280.599 214.88 281.441C213.898 280.851 212.835 280.178 211.853 279.504C210.872 278.83 209.89 278.157 208.909 277.399H209.236C208.009 278.157 206.782 278.83 205.555 279.588C204.328 280.346 203.019 280.935 201.792 281.609Z" fill="white"/>
<path d="M209.072 277.146C208.827 273.442 208.581 269.653 208.418 265.864C208.254 262.075 208.09 258.37 207.927 254.581C207.763 250.792 207.681 247.087 207.518 243.298L207.354 237.657C207.354 235.804 207.272 233.868 207.272 232.015C207.436 233.868 207.518 235.804 207.681 237.657L208.009 243.298C208.172 247.087 208.336 250.792 208.499 254.581C208.663 258.37 208.745 262.075 208.908 265.864C208.908 269.653 208.99 273.442 209.072 277.146Z" fill="white"/>
<path d="M179.215 227.384C179.297 228.9 178.152 230.247 176.598 230.247C175.125 230.331 173.817 229.152 173.817 227.553C173.735 226.037 174.88 224.69 176.352 224.69C177.907 224.69 179.134 225.869 179.215 227.384Z" fill="#263238"/>
<path d="M197.375 226.542C197.456 228.058 196.311 229.405 194.757 229.405C193.285 229.489 191.976 228.31 191.976 226.711C191.894 225.195 193.039 223.848 194.593 223.848C195.984 223.848 197.293 225.027 197.375 226.542Z" fill="#263238"/>
<path d="M206.291 297.607L142.405 286.324L162.855 220.985L208.091 228.984L206.291 297.607Z" fill="#05BFB5"/>
<path opacity="0.1" d="M208.091 228.984L189.85 294.66L206.291 297.607L208.091 228.984Z" fill="black"/>
<path d="M174.798 227.889L172.835 227.132C172.835 227.047 174.962 221.659 177.089 216.186C179.461 210.292 185.759 208.523 190.586 210.207C194.185 211.47 197.702 215.091 196.066 221.322C194.267 227.974 193.285 231.005 193.203 231.173L191.24 230.5C191.24 230.5 192.222 227.384 194.021 220.817C195.33 216.101 192.712 213.323 189.849 212.312C185.596 210.713 180.77 212.818 178.97 217.112C176.925 222.416 174.88 227.805 174.798 227.889Z" fill="#263238"/>
<path d="M190.831 294.323C192.303 293.565 193.858 292.976 195.33 292.302C196.802 291.629 198.357 291.039 199.911 290.534L200.156 290.45L200.32 290.618C201.301 291.629 202.201 292.723 203.101 293.734C204.001 294.744 204.901 295.839 205.8 296.934C204.819 296.007 203.755 295.081 202.774 294.071C201.792 293.06 200.811 292.05 199.829 291.124L200.156 291.208C198.602 291.797 197.13 292.387 195.575 292.892C193.939 293.397 192.385 293.902 190.831 294.323Z" fill="white"/>
<path d="M199.992 290.871C200.401 286.577 200.974 282.283 201.465 277.904C201.955 273.61 202.528 269.316 203.101 265.022C203.673 260.727 204.246 256.433 204.9 252.139L205.882 245.74C206.209 243.635 206.536 241.446 206.863 239.341C206.7 241.53 206.373 243.635 206.209 245.824L205.473 252.307C204.982 256.602 204.409 260.896 203.837 265.19C203.264 269.484 202.692 273.778 202.037 278.073C201.383 282.367 200.728 286.577 199.992 290.871Z" fill="white"/>
<path d="M176.597 227.974C176.352 229.489 174.879 230.584 173.407 230.247C171.934 229.994 170.871 228.479 171.198 226.963C171.444 225.448 172.916 224.353 174.388 224.69C175.861 224.942 176.842 226.458 176.597 227.974Z" fill="#263238"/>
<path d="M194.839 231.173C194.594 232.689 193.121 233.784 191.649 233.447C190.176 233.194 189.113 231.678 189.44 230.163C189.686 228.647 191.158 227.553 192.63 227.889C194.103 228.142 195.084 229.658 194.839 231.173Z" fill="#263238"/>
<path d="M218.152 140.995C229.277 152.867 239.42 173.412 237.784 180.485C235.821 188.821 218.888 204.313 209.154 210.376C206.618 211.976 194.593 187.642 197.293 185.789C202.446 182.337 214.962 174.675 216.516 171.896C217.007 170.886 210.872 154.551 208.908 143.942C207.436 136.532 211.526 134.006 218.152 140.995Z" fill="#EB9481"/>
<path d="M175.044 208.355C175.617 209.786 177.089 210.628 178.561 210.544C178.316 211.807 178.561 213.07 179.216 214.165C180.361 216.101 183.797 215.007 183.797 215.007C183.878 216.354 184.287 217.701 185.024 218.712C186.332 220.396 189.932 219.806 189.932 219.806C190.668 220.985 191.731 221.911 193.04 222.416C196.557 223.427 200.729 219.554 203.429 217.196C206.128 214.838 211.772 209.534 212.917 207.85L198.93 184.611C198.93 184.611 182.651 193.031 179.87 196.399C177.58 199.177 174.062 205.661 175.044 208.355Z" fill="#EB9481"/>
<path d="M178.479 210.039C180.279 206.503 182.978 203.64 185.514 200.693C185.596 200.609 185.678 200.693 185.596 200.777C183.06 203.724 181.097 207.176 178.643 210.207C178.643 210.292 178.561 210.292 178.479 210.207C178.398 210.207 178.398 210.123 178.479 210.039Z" fill="#263238"/>
<path d="M183.632 214.67C184.123 213.912 184.695 213.239 185.35 212.565C186.004 211.891 186.659 211.218 187.395 210.46C188.785 209.029 190.094 207.766 191.567 206.503C191.648 206.418 191.73 206.503 191.648 206.587C190.34 207.934 188.949 209.281 187.64 210.797L185.677 212.902C185.104 213.575 184.45 214.249 183.796 214.838C183.714 214.923 183.632 214.923 183.632 214.838C183.632 214.838 183.55 214.754 183.632 214.67Z" fill="#263238"/>
<path d="M189.931 219.722C190.34 219.048 190.912 218.459 191.567 217.954L193.448 216.101C194.675 214.838 195.984 213.66 197.129 212.397H197.211V212.481C195.984 213.744 194.757 215.091 193.53 216.354C192.957 216.943 192.303 217.617 191.73 218.206C191.321 218.88 190.667 219.385 189.931 219.722Z" fill="#263238"/>
<path d="M235.739 166.508L214.88 172.57C214.88 172.57 209.072 152.699 208.009 142.847C207.109 134.764 211.69 132.238 219.052 140.574C226.005 148.405 235.739 166.508 235.739 166.508Z" fill="#C7C7C7"/>
<path d="M231.159 163.477C225.923 165.497 220.525 167.097 215.126 168.444C215.044 168.444 215.044 168.36 215.126 168.36C216.598 168.023 224.533 165.161 231.159 163.392C231.159 163.308 231.24 163.392 231.159 163.477Z" fill="#263238"/>
<path d="M216.107 172.149C215.698 172.149 215.371 172.233 214.962 172.317C214.062 168.781 213.08 165.16 212.18 161.624C211.69 159.856 211.281 158.172 210.79 156.404C210.381 154.635 209.972 152.783 209.399 150.931L216.107 172.149ZM209.317 150.931C209.563 152.615 209.808 154.214 210.217 155.814C210.135 155.562 210.054 155.309 209.89 155.056C209.645 154.467 209.399 153.878 209.154 153.288C209.154 153.204 208.99 153.204 208.99 153.288C209.154 153.878 209.317 154.467 209.481 155.056C209.645 155.646 209.808 156.235 210.054 156.74C210.217 157.33 210.463 157.835 210.708 158.34L210.79 158.509C211.035 159.519 211.199 160.614 211.444 161.54C212.344 165.076 214.553 172.402 214.634 172.402C215.125 172.317 215.534 172.149 216.025 172.065C216.107 172.065 216.025 172.065 216.025 172.065L209.317 150.931Z" fill="#263238"/>
<path d="M224.696 155.983C224.696 156.74 224.123 157.33 223.387 157.33C222.651 157.33 222.078 156.74 222.078 155.983C222.078 155.225 222.651 154.635 223.387 154.635C224.123 154.635 224.696 155.225 224.696 155.983ZM211.035 154.635C210.79 154.635 210.545 154.72 210.299 154.888C210.463 155.73 210.708 156.572 210.872 157.33C210.954 157.33 210.954 157.33 211.035 157.33C211.772 157.33 212.344 156.74 212.344 155.983C212.344 155.225 211.772 154.635 211.035 154.635ZM229.522 163.224C228.786 163.224 228.213 163.813 228.213 164.571C228.213 165.329 228.786 165.918 229.522 165.918C230.258 165.918 230.831 165.329 230.831 164.571C230.913 163.813 230.258 163.224 229.522 163.224ZM217.17 163.224C216.434 163.224 215.862 163.813 215.862 164.571C215.862 165.329 216.434 165.918 217.17 165.918C217.907 165.918 218.479 165.329 218.479 164.571C218.479 163.813 217.907 163.224 217.17 163.224ZM211.035 137.88C210.299 137.88 209.727 138.469 209.727 139.227C209.727 139.985 210.299 140.574 211.035 140.574C211.772 140.574 212.344 139.985 212.344 139.227C212.344 138.553 211.69 137.88 211.035 137.88ZM217.17 146.552C216.434 146.552 215.862 147.142 215.862 147.899C215.862 148.657 216.434 149.247 217.17 149.247C217.907 149.247 218.479 148.657 218.479 147.899C218.479 147.142 217.907 146.552 217.17 146.552Z" fill="white"/>
<path d="M228.378 328.34C230.423 329.014 286.783 328.256 288.991 326.825C289.809 326.319 290.218 317.815 290.382 307.543V307.206C290.382 305.101 290.464 302.912 290.464 300.722C290.464 300.386 290.464 300.133 290.464 299.796L253.654 299.88V301.059L253.899 307.206V307.879C253.899 307.879 232.386 318.152 230.259 319.92C227.969 321.857 226.414 327.667 228.378 328.34Z" fill="#EBEBEB"/>
<path d="M228.377 328.34C229.604 328.761 251.445 328.593 268.623 328.088C279.339 327.751 288.173 327.33 288.991 326.74C289.809 326.151 290.136 317.984 290.3 307.88C290.3 307.711 290.3 307.627 290.3 307.459C290.3 307.29 290.3 307.206 290.3 307.122L253.817 307.206V307.88C253.817 307.88 232.303 318.152 230.177 319.92C228.05 321.857 226.414 327.667 228.377 328.34Z" fill="#048F88"/>
<path d="M229.032 326.067C238.521 325.73 276.967 325.14 286.374 325.561C286.455 325.561 286.455 325.646 286.374 325.646C276.967 326.235 238.521 326.488 229.032 326.319C228.868 326.235 228.868 326.067 229.032 326.067Z" fill="#263238"/>
<path d="M249.809 307.459C253.572 306.701 258.153 307.206 261.016 309.9C261.097 309.984 261.016 310.153 260.852 310.153C257.253 308.974 253.572 308.301 249.809 307.964C249.645 307.964 249.564 307.795 249.645 307.711C249.645 307.543 249.727 307.459 249.809 307.459Z" fill="#263238"/>
<path d="M247.191 309.142C250.954 308.385 255.534 308.89 258.398 311.584C258.479 311.668 258.398 311.837 258.234 311.837C254.635 310.658 250.954 309.984 247.191 309.648C247.027 309.648 246.945 309.479 247.027 309.311C247.027 309.227 247.109 309.142 247.191 309.142Z" fill="#263238"/>
<path d="M244.491 310.911C248.254 310.153 252.835 310.658 255.698 313.352C255.78 313.437 255.698 313.605 255.534 313.605C251.935 312.426 248.254 311.753 244.491 311.416C244.328 311.416 244.246 311.332 244.246 311.163C244.246 310.995 244.328 310.911 244.491 310.911Z" fill="#263238"/>
<path d="M246.618 304.596C249.318 306.701 252.753 307.543 255.862 308.637C256.189 308.722 256.434 308.469 256.434 308.132C256.516 308.132 256.516 308.048 256.516 307.964C255.371 304.596 253.326 301.565 250.626 299.207C249.072 297.86 246.291 297.018 244.819 299.123C243.428 301.228 245.064 303.417 246.618 304.596ZM245.637 301.48C244.901 297.27 249.4 299.375 250.463 300.47C251.199 301.144 251.853 301.901 252.508 302.659C253.735 304.259 254.962 305.943 256.025 307.711C254.553 307.038 252.999 306.532 251.444 305.943C249.727 305.185 246.046 303.838 245.637 301.48Z" fill="#263238"/>
<path d="M268.951 301.986C267.969 299.628 265.106 299.796 263.306 300.723C260.198 302.407 257.498 304.848 255.617 307.88C255.535 307.88 255.535 307.964 255.617 308.048C255.535 308.301 255.699 308.553 255.944 308.637C256.026 308.637 256.026 308.637 256.108 308.637C259.38 308.301 262.979 308.301 266.006 306.869C267.805 306.027 269.85 304.175 268.951 301.986ZM261.016 306.953C259.38 307.206 257.826 307.29 256.19 307.627C257.662 306.196 259.134 304.848 260.77 303.585C261.588 302.996 262.406 302.407 263.306 301.901C264.615 301.144 269.36 300.133 267.805 304.091C266.824 306.28 262.897 306.701 261.016 306.953Z" fill="#263238"/>
<path d="M233.694 318.32C235.821 318.236 237.948 319.078 239.42 320.594C240.811 321.941 241.547 323.878 241.629 325.814C241.629 325.898 241.547 325.898 241.547 325.814C240.811 321.857 237.621 318.826 233.694 318.405C233.694 318.489 233.694 318.405 233.694 318.32C233.694 318.405 233.694 318.32 233.694 318.32Z" fill="#263238"/>
<path d="M283.919 316.636C288.173 316.636 288.255 323.457 284.001 323.457C279.666 323.541 279.666 316.636 283.919 316.636Z" fill="#263238"/>
<path d="M268.623 328.088C279.339 327.751 288.173 327.33 288.991 326.74C289.809 326.151 290.137 317.984 290.3 307.88C285.965 312.005 275.003 322.025 268.623 328.088Z" fill="#263238"/>
<path d="M301.834 102.263C301.834 102.263 293.327 200.44 291.936 207.934C291.609 209.618 291.446 218.964 291.282 230.837C290.955 256.854 291.2 303.754 291.2 303.754H251.445C251.445 303.754 252.591 222.417 254.39 207.429C256.19 192.441 267.396 102.179 267.396 102.179H301.834V102.263Z" fill="#455A64"/>
<path d="M253.244 296.681C259.461 296.512 257.661 296.512 263.878 296.428C266.904 296.428 286.864 296.26 289.727 296.681C289.727 296.681 289.808 296.681 289.808 296.765C289.808 296.765 289.808 296.849 289.727 296.849C286.864 297.355 266.904 297.186 263.878 297.102C257.661 297.018 259.461 297.018 253.244 296.849C253.162 296.849 253.162 296.765 253.162 296.765C253.162 296.765 253.162 296.681 253.244 296.681Z" fill="#263238"/>
<path d="M283.673 250.203C283.755 244.224 283.755 238.33 283.837 232.352C283.837 226.627 283.837 220.817 284.164 215.091C284.737 203.472 287.027 192.02 288.663 180.485C290.299 168.95 291.69 157.414 292.917 145.879C294.307 132.912 295.534 119.861 296.843 106.894C296.843 106.81 297.007 106.81 297.007 106.894C295.125 130.049 292.999 153.288 289.89 176.359C289.154 182.085 288.254 187.81 287.354 193.536C286.455 199.346 285.473 205.071 285.064 210.965C284.655 216.775 284.573 222.417 284.491 228.142C284.41 234.12 284.41 240.014 284.328 245.908C284.246 259.128 284.082 279.42 283.919 292.639C283.919 292.892 283.51 292.892 283.51 292.639C283.51 280.851 283.592 261.991 283.673 250.203Z" fill="#263238"/>
<path d="M310.259 102.263C310.259 102.263 293.408 200.44 292.018 207.934C291.691 209.618 291.527 218.964 291.363 230.837L272.386 102.263H310.259Z" fill="#263238"/>
<path d="M274.594 331.792C276.639 332.297 332.917 327.414 334.881 325.814C335.699 325.225 335.453 316.72 334.881 306.532C334.881 306.448 334.881 306.28 334.881 306.195C334.799 304.09 334.635 301.901 334.472 299.712L334.39 298.786L297.743 301.564L297.825 302.743L298.48 308.89L298.561 309.563C298.561 309.563 277.866 321.351 275.821 323.288C273.858 325.309 272.631 331.287 274.594 331.792Z" fill="#EBEBEB"/>
<path d="M274.594 331.792C276.639 332.297 332.918 327.414 334.881 325.814C335.699 325.225 335.453 316.721 334.881 306.532C334.881 306.448 334.881 306.28 334.881 306.196L298.562 308.89L298.643 309.564C298.643 309.564 277.948 321.352 275.903 323.288C273.858 325.309 272.631 331.287 274.594 331.792Z" fill="#048F88"/>
<path d="M275.085 329.519C284.573 328.508 322.856 325.141 332.263 324.804C332.345 324.804 332.345 324.888 332.263 324.888C322.938 326.151 284.573 329.182 275.085 329.687C274.921 329.687 274.839 329.519 275.085 329.519Z" fill="#263238"/>
<path d="M294.553 309.395C298.234 308.385 302.815 308.553 305.923 311.079C306.005 311.163 305.923 311.332 305.76 311.332C302.079 310.49 298.398 309.985 294.635 309.9C294.471 309.9 294.39 309.816 294.39 309.648C294.39 309.564 294.471 309.395 294.553 309.395Z" fill="#263238"/>
<path d="M292.017 311.332C295.698 310.321 300.279 310.49 303.387 313.016C303.469 313.1 303.387 313.268 303.224 313.268C299.543 312.426 295.862 311.921 292.099 311.837C291.935 311.837 291.853 311.753 291.853 311.669C291.772 311.416 291.853 311.332 292.017 311.332Z" fill="#263238"/>
<path d="M289.482 313.184C293.163 312.174 297.744 312.342 300.852 314.868C300.934 314.952 300.852 315.121 300.688 315.121C297.007 314.279 293.326 313.774 289.564 313.689C289.4 313.689 289.318 313.605 289.318 313.521C289.236 313.353 289.318 313.268 289.482 313.184Z" fill="#263238"/>
<path d="M291.118 306.785C293.899 308.637 297.417 309.227 300.607 310.153C300.934 310.237 301.18 309.9 301.18 309.648C301.261 309.648 301.261 309.564 301.261 309.564C299.871 306.28 297.662 303.333 294.799 301.228C293.163 300.049 290.3 299.291 288.991 301.48C287.683 303.669 289.482 305.69 291.118 306.785ZM289.973 303.754C288.991 299.544 293.572 301.396 294.717 302.406C295.454 303.08 296.19 303.754 296.844 304.511C298.235 306.027 299.544 307.627 300.689 309.311C299.135 308.806 297.58 308.385 296.026 307.879C294.227 307.122 290.464 306.027 289.973 303.754Z" fill="#263238"/>
<path d="M313.286 302.491C312.222 300.133 309.359 300.638 307.56 301.649C304.533 303.501 302.079 306.196 300.361 309.311C300.361 309.395 300.361 309.395 300.443 309.479C300.361 309.732 300.525 309.984 300.77 310.069C300.852 310.069 300.852 310.069 300.934 310.069C304.206 309.479 307.723 309.227 310.668 307.627C312.386 306.701 314.267 304.68 313.286 302.491ZM305.678 308.132C304.124 308.469 302.488 308.722 300.934 309.142C302.324 307.627 303.715 306.111 305.187 304.764C305.924 304.091 306.742 303.501 307.478 302.912C308.787 302.07 313.449 300.723 312.14 304.764C311.404 306.953 307.56 307.711 305.678 308.132Z" fill="#263238"/>
<path d="M278.356 321.773C280.483 321.52 282.61 322.109 284.246 323.541C285.718 324.804 286.618 326.572 286.864 328.508C286.864 328.593 286.782 328.593 286.782 328.508C285.718 324.635 282.283 321.857 278.356 321.857C278.356 321.857 278.356 321.773 278.356 321.773Z" fill="#263238"/>
<path d="M328.173 315.542C332.427 315.121 333.081 321.941 328.828 322.362C324.574 322.783 324.001 315.963 328.173 315.542Z" fill="#263238"/>
<path d="M297.007 306.111L336.762 304.343C336.762 304.343 325.883 214.502 325.719 209.029C325.228 194.715 315.985 102.263 315.985 102.263H267.396C267.396 102.263 270.422 123.65 275.657 137.122C279.175 138.385 282.529 139.985 285.801 141.921C285.801 141.921 290.381 203.051 290.545 210.713C290.872 225.7 297.007 306.111 297.007 306.111Z" fill="#455A64"/>
<path d="M298.071 298.533C304.288 298.112 302.488 298.112 308.705 297.776C311.732 297.607 331.691 296.597 334.554 296.933C334.636 296.933 334.636 297.018 334.554 297.018C331.773 297.607 311.813 298.281 308.705 298.449C302.488 298.618 304.288 298.533 298.071 298.618C297.989 298.618 297.989 298.618 297.989 298.533C297.907 298.618 297.907 298.618 298.071 298.533C297.989 298.533 297.989 298.533 298.071 298.533Z" fill="#263238"/>
<path d="M312.386 107.652C314.185 130.975 316.067 154.215 318.112 177.454C320.157 200.693 322.611 224.101 325.555 247.34C327.191 260.307 329.073 278.578 330.954 291.545C330.954 291.629 330.872 291.629 330.791 291.545C326.782 268.558 323.838 240.014 321.302 216.775C318.766 193.536 316.721 170.297 314.921 147.058C313.94 133.922 312.958 120.703 311.977 107.568C312.058 107.484 312.386 107.484 312.386 107.652Z" fill="#263238"/>
<path d="M273.94 136.112C278.03 137.627 282.039 139.564 285.801 141.837C285.965 141.921 285.883 142.174 285.72 142.09C281.629 140.322 277.621 138.638 273.695 136.617C273.531 136.533 273.531 136.364 273.531 136.28C273.613 136.112 273.777 136.112 273.94 136.112Z" fill="#263238"/>
<path d="M272.631 107.82C272.631 107.652 272.877 107.652 272.877 107.82C272.877 112.704 273.122 116.998 273.531 121.629C273.695 123.734 275.413 135.522 278.93 134.596C279.502 134.428 279.83 133.838 279.911 132.912C279.911 131.733 279.748 130.47 279.421 129.291C279.012 126.85 278.684 124.324 278.521 121.882C278.112 117.251 278.112 112.62 278.685 107.989C278.685 107.905 278.766 107.905 278.848 107.905L278.93 107.989C278.848 114.388 279.175 120.787 279.993 127.186C280.402 130.218 281.956 134.849 278.848 135.354C275.74 135.859 273.613 128.113 273.286 126.008C272.386 120.029 272.141 113.883 272.631 107.82Z" fill="#263238"/>
<path d="M278.93 134.933C279.257 135.691 279.503 136.533 279.748 137.375C279.993 138.048 280.075 138.722 280.075 139.395C280.075 139.564 279.912 139.564 279.83 139.48C279.421 138.89 279.175 138.217 279.012 137.543C278.766 136.785 278.439 136.027 278.194 135.27C278.112 135.017 278.194 134.849 278.439 134.764C278.603 134.596 278.848 134.764 278.93 134.933Z" fill="#263238"/>
<path d="M281.875 204.145L225.842 201.366L236.803 143.016L276.558 145.037L281.875 204.145Z" fill="#05BFB5"/>
<path d="M276.557 145.037L267.478 203.471L281.874 204.145L276.557 145.037Z" fill="#FDE05D"/>
<path d="M276.557 145.037L267.478 203.471L281.874 204.145L276.557 145.037Z" fill="#048F88"/>
<path d="M246.946 147.815L244.901 147.394C244.901 147.31 246.128 141.753 247.437 136.111C248.828 129.965 254.717 127.27 259.625 128.112C263.306 128.786 267.315 131.733 266.578 138.048C265.842 144.784 265.351 147.899 265.27 148.068L263.225 147.731C263.225 147.731 263.797 144.531 264.533 137.88C265.024 133.08 262.161 130.807 259.216 130.302C254.799 129.46 250.546 132.238 249.4 136.701C248.255 142.174 247.028 147.731 246.946 147.815Z" fill="#263238"/>
<path d="M268.296 203.051C269.523 202.293 270.75 201.535 271.977 200.861C273.204 200.188 274.431 199.514 275.74 198.841L275.903 198.756L276.067 198.841C276.967 199.598 277.866 200.356 278.766 201.198C279.666 202.04 280.566 202.798 281.384 203.64C280.402 202.966 279.421 202.209 278.521 201.535C277.539 200.777 276.64 200.019 275.74 199.262H276.067C274.84 199.935 273.531 200.609 272.304 201.198C270.913 201.872 269.605 202.461 268.296 203.051Z" fill="white"/>
<path d="M275.821 199.093C275.739 195.304 275.739 191.599 275.739 187.81C275.739 184.021 275.821 180.317 275.821 176.528C275.821 172.739 275.985 169.034 276.066 165.245L276.23 159.603C276.312 157.751 276.394 155.814 276.475 153.962C276.475 155.814 276.557 157.751 276.557 159.603V165.245C276.557 169.034 276.475 172.739 276.475 176.528C276.475 180.317 276.312 184.021 276.23 187.81C276.066 191.515 275.985 195.304 275.821 199.093Z" fill="white"/>
<path d="M248.663 147.647C248.663 149.163 247.436 150.426 245.964 150.426C244.492 150.426 243.265 149.163 243.265 147.647C243.265 146.131 244.492 144.868 245.964 144.868C247.518 144.868 248.745 146.131 248.663 147.647Z" fill="#263238"/>
<path d="M266.905 147.9C266.823 149.415 265.596 150.678 264.123 150.594C262.651 150.51 261.424 149.247 261.506 147.731C261.588 146.215 262.815 144.952 264.287 145.037C265.759 145.037 266.905 146.3 266.905 147.9C266.905 147.815 266.905 147.815 266.905 147.9Z" fill="#263238"/>
<path d="M293.572 201.114L235.494 206.924L238.194 145.205L279.339 141.079L293.572 201.114Z" fill="#37CCC4"/>
<path d="M279.339 141.079L278.603 202.63L293.572 201.114L279.339 141.079Z" fill="#048F88"/>
<path d="M250.217 148.236L248.336 148.068C248.336 147.984 248.909 142.763 249.563 137.543C250.299 132.322 254.798 128.618 259.87 129.039C263.224 129.291 267.232 131.565 267.15 137.374C267.15 143.605 266.986 146.468 266.986 146.637L265.105 146.552C265.105 146.552 265.269 143.521 265.269 137.459C265.269 132.996 262.406 131.228 259.706 131.059C255.616 130.723 251.935 133.67 251.363 137.88C250.79 143.016 250.217 148.152 250.217 148.236Z" fill="#263238"/>
<path d="M279.339 202.04C280.484 201.03 281.629 200.104 282.774 199.177C283.92 198.251 285.147 197.409 286.292 196.483L286.455 196.399L286.619 196.483C287.601 197.157 288.746 197.83 289.727 198.504C290.709 199.177 291.772 199.935 292.754 200.693C291.609 200.104 290.545 199.514 289.482 198.925C288.419 198.335 287.355 197.662 286.292 197.072H286.619C285.392 197.999 284.247 198.841 283.02 199.683C281.875 200.525 280.648 201.282 279.339 202.04Z" fill="white"/>
<path d="M286.537 196.82C285.883 192.947 285.392 189.073 284.819 185.2C284.247 181.327 283.838 177.454 283.265 173.581C282.692 169.707 282.283 165.834 281.874 161.961L281.22 156.151C281.056 154.215 280.811 152.278 280.647 150.341C280.975 152.278 281.22 154.215 281.547 156.151L282.365 161.961C282.938 165.834 283.347 169.707 283.919 173.581C284.492 177.454 284.901 181.327 285.31 185.2C285.719 188.989 286.128 192.947 286.537 196.82Z" fill="white"/>
<path d="M251.69 147.899C251.854 149.331 250.872 150.594 249.482 150.678C248.091 150.846 246.864 149.836 246.782 148.405C246.619 146.973 247.6 145.71 248.991 145.626C250.382 145.458 251.609 146.468 251.69 147.899Z" fill="#263238"/>
<path d="M268.296 146.216C268.459 147.647 267.396 148.826 266.087 148.994C264.697 149.163 263.551 148.068 263.388 146.721C263.224 145.289 264.288 144.111 265.596 143.942C266.987 143.774 268.214 144.868 268.296 146.216Z" fill="#263238"/>
<path d="M281.138 50.5643C276.884 58.9001 261.179 88.8752 249.89 89.8856C243.101 90.475 219.215 80.5395 213.816 76.9189C207.518 72.7089 222.242 56.6267 226.414 58.0581C231.649 59.7421 246.046 66.8991 249.318 66.6465C252.181 66.3939 259.706 56.2057 274.512 44.3335C282.201 38.1869 284.819 43.4073 281.138 50.5643Z" fill="#AD6359"/>
<path d="M214.471 77.3398C212.263 76.4978 202.447 71.6142 200.074 69.5934C197.62 67.5726 191.076 61.3418 192.385 59.321C193.694 57.216 195.739 58.9 195.739 58.9C195.739 58.9 193.367 55.7846 194.839 53.848C196.312 51.9114 199.42 54.6058 199.42 54.6058C199.42 54.6058 197.211 51.2378 198.847 49.3854C200.483 47.533 203.183 50.8168 203.183 50.8168C203.183 50.8168 201.056 47.8698 202.937 46.8594C205.31 45.7648 208.663 51.6588 211.526 53.6796C212.181 54.1006 225.269 61.847 225.269 61.847L214.471 77.3398Z" fill="#AD6359"/>
<path d="M202.937 50.48C205.473 54.8584 207.272 56.2898 211.608 58.5632V58.6474H211.526C207.109 56.795 204.573 55.2794 202.692 50.48C202.61 50.3958 202.773 50.3116 202.937 50.48Z" fill="#263238"/>
<path d="M199.257 54.1848C202.283 58.479 204.247 60.0788 208.582 62.7732C208.664 62.7732 208.582 62.9416 208.5 62.8574C204.001 60.584 201.465 58.9842 199.093 54.269C198.93 54.1848 199.093 54.0164 199.257 54.1848Z" fill="#263238"/>
<path d="M195.903 58.9843C199.093 62.9417 201.138 64.7941 205.719 66.8991C205.801 66.8991 205.801 66.9833 205.801 66.9833C205.801 67.0675 205.719 67.0675 205.719 67.0675C201.547 65.8887 198.03 63.0259 195.903 59.0685C195.658 58.8159 195.739 58.7317 195.903 58.9843Z" fill="#263238"/>
<path d="M229.686 61.0052C228.623 58.1424 227.396 55.3638 225.923 52.6694C224.369 50.3118 215.535 43.5758 213.98 45.4282C212.017 47.87 216.434 52.7536 218.888 54.9428C218.888 54.9428 214.389 60.5842 216.762 64.7942C219.134 69.0042 229.686 61.0052 229.686 61.0052Z" fill="#AD6359"/>
<path d="M213.654 46.3543C213.408 49.8907 216.844 52.5009 219.052 54.6901C219.134 54.7743 219.134 55.0269 219.052 55.1111C219.052 55.1111 218.971 55.1111 218.971 55.1953C217.253 57.7213 215.453 61.7629 216.517 64.7941V64.8783H216.435C214.881 61.7629 216.271 57.5529 218.398 55.0269C216.026 52.6693 212.754 49.9749 213.654 46.3543C213.654 46.2701 213.654 46.3543 213.654 46.3543Z" fill="#263238"/>
<path d="M256.107 58.1423L272.386 70.7723C272.386 70.7723 280.157 59.3211 282.938 48.8803C285.719 38.4395 277.294 40.2919 271.568 44.9229C265.76 49.5539 256.107 58.1423 256.107 58.1423Z" fill="#47FFE6"/>
<path d="M273.776 67.2358C268.95 63.8678 264.369 60.0788 259.952 56.1214C259.87 56.1214 259.952 55.953 260.034 56.0372C261.179 57.0476 268.377 62.3522 273.858 67.1516C273.94 67.2358 273.858 67.32 273.776 67.2358Z" fill="#263238"/>
<path d="M282.856 48.8803C280.075 59.4052 272.304 70.7722 272.304 70.7722L264.778 64.9625C268.868 57.9739 275.494 46.7753 278.766 41.3023C282.202 40.7971 284.492 42.6495 282.856 48.8803Z" fill="#263238"/>
<path d="M262.16 115.482C263.142 116.409 319.093 115.903 319.339 115.482C320.075 114.472 311.486 77.2557 305.105 63.1943C296.844 45.0913 292.508 43.6599 289.891 42.6495C286.537 41.3865 277.866 41.8917 276.394 42.5653C274.758 43.3231 270.668 51.7431 268.704 58.4791C264.86 71.8669 261.342 114.64 262.16 115.482Z" fill="#47FFDE"/>
<path d="M317.785 106.136H262.406C262.406 105.631 262.488 105.126 262.488 104.621H317.376C317.539 105.21 317.703 105.715 317.785 106.136Z" fill="#263238"/>
<path d="M315.249 95.4428H263.388C263.388 94.9376 263.47 94.4324 263.551 93.9272H315.003C314.922 94.4324 315.085 95.0218 315.249 95.4428Z" fill="#263238"/>
<path d="M316.885 102.179H262.733C262.815 100.832 262.979 99.4004 263.142 97.8848H315.903C316.231 99.4004 316.558 100.832 316.885 102.179Z" fill="#263238"/>
<path d="M298.643 54.9426C303.224 72.0352 308.295 92.4958 305.269 99.4844C300.77 110.178 285.637 120.113 279.011 123.818C276.23 125.418 261.424 104.957 264.369 103.273C270.667 99.8212 284.573 92.6642 285.555 90.8118C286.537 88.9594 287.191 70.9406 287.764 56.795C288.582 39.7866 296.025 44.9228 298.643 54.9426Z" fill="#AD6359"/>
<path d="M267.805 101.253C267.805 101.253 259.543 106.305 254.308 109.841C251.363 111.862 246.619 115.651 245.228 118.177C243.02 121.882 235.903 138.806 239.829 140.658C243.429 142.342 247.764 127.018 247.764 127.018C247.764 127.018 242.038 142.09 246.782 143.353C251.527 144.616 254.063 126.597 254.063 126.597C254.063 126.597 248.582 142.258 253.572 142.679C257.335 143.016 260.688 126.849 260.688 126.849C260.688 126.849 256.026 140.321 259.952 140.827C264.206 141.416 268.132 126.681 268.132 126.681C278.275 126.344 283.183 123.145 286.128 119.608C285.965 119.524 273.613 106.305 267.805 101.253Z" fill="#AD6359"/>
<path d="M249.236 121.545C248.499 123.313 247.763 125.081 247.191 126.85C246.618 128.702 246.127 130.47 245.718 132.323C245.146 134.764 244.818 137.206 244.818 139.648C245.391 135.354 246.373 131.06 247.763 126.934C248.336 125.165 248.745 123.313 249.399 121.461C249.317 121.545 249.317 121.545 249.236 121.545Z" fill="#263238"/>
<path d="M255.617 123.65C254.144 125.839 251.772 132.912 251.281 137.374C251.281 137.543 251.363 137.543 251.363 137.374C252.099 135.017 254.88 125.923 255.617 123.65C255.698 123.566 255.698 123.566 255.617 123.65Z" fill="#263238"/>
<path d="M261.424 124.324C259.788 127.692 258.725 131.312 258.397 135.017C258.397 135.185 258.479 135.101 258.561 134.933C259.543 131.312 260.197 128.534 261.588 124.324C261.588 124.324 261.424 124.239 261.424 124.324Z" fill="#263238"/>
<path d="M284.9 75.0665L305.187 72.2037C305.187 72.2037 302.733 58.4791 297.579 49.0487C292.344 39.6183 287.682 47.1121 286.782 54.5217C285.882 62.0155 284.9 75.0665 284.9 75.0665Z" fill="#47FFE6"/>
<path d="M303.387 68.4988C297.661 69.6776 291.854 70.6038 286.046 71.0248C285.964 71.0248 285.964 70.9406 286.046 70.9406C287.6 70.7722 296.271 69.0882 303.387 68.4988C303.469 68.3304 303.469 68.4146 303.387 68.4988Z" fill="#263238"/>
<path d="M285.719 67.4043C285.964 64.8783 286.292 61.2577 286.374 58.8159L285.719 67.4043ZM286.374 58.8159C286.128 60.1631 285.964 61.5945 285.801 63.0259C285.801 62.9417 285.801 62.8575 285.801 62.7733C285.719 62.0155 285.637 61.3419 285.474 60.5841C285.474 61.3419 285.474 62.0997 285.556 62.7733C285.556 63.1943 285.637 63.6995 285.719 64.1205C285.637 64.8783 285.474 66.6465 285.392 67.4043C285.31 68.5831 284.574 75.3191 284.738 75.3191C284.819 75.3191 286.783 74.9823 287.192 74.8981C287.192 74.8981 287.273 74.8981 287.273 74.8139C287.273 74.8139 287.273 74.7297 287.192 74.7297C286.864 74.8139 285.31 74.9823 285.147 75.0665C285.228 73.8035 285.392 72.5405 285.556 71.1933C285.719 69.9303 285.637 68.6673 285.801 67.4043L286.374 58.8159Z" fill="#263238"/>
<path d="M302.57 58.6476C302.57 59.3212 302.651 59.9106 302.733 60.5842C302.733 60.8368 302.815 61.0052 302.815 61.2578C302.324 59.8264 301.833 58.3108 301.179 56.9636C301.179 56.9636 301.097 56.9636 301.179 56.9636C302.079 59.4054 302.733 61.9314 303.387 64.4574C303.715 65.6362 303.96 66.8992 304.287 68.1622C304.451 68.8358 304.533 69.4252 304.696 70.0988L305.187 72.2038C304.86 72.2038 303.633 72.4565 303.224 72.5407C303.142 72.5407 303.142 72.6248 303.224 72.6248C303.551 72.6248 305.351 72.3722 305.351 72.3722C305.187 71.6986 305.105 70.8566 305.023 70.2672C304.942 69.5936 304.778 69.0042 304.614 68.4148C304.369 67.0676 304.042 65.8046 303.715 64.4574C303.551 63.6996 303.306 63.026 303.142 62.3524C303.142 61.763 303.06 61.1736 302.979 60.6684C302.897 60.1632 302.815 59.4054 302.733 58.7318C302.733 58.4792 302.57 58.5634 302.57 58.6476Z" fill="#263238"/>
<path d="M277.948 51.7432C281.057 52.6694 286.783 48.0384 289.073 44.1652C289.237 43.9126 288.991 40.9656 288.828 37.345C288.746 35.1558 288.746 32.7982 288.828 30.5248C288.828 30.1038 275.167 33.0508 275.167 33.0508C275.74 35.8294 276.067 38.7764 275.985 41.6392C275.985 41.976 275.903 42.2286 275.821 42.5654V42.7338C275.576 44.4178 274.922 50.817 277.948 51.7432Z" fill="#AD6359"/>
<path d="M288.092 30.5247C287.274 34.2295 284.492 43.1547 277.294 42.8179C276.803 42.8179 276.394 42.7337 275.903 42.6495C275.903 42.5653 275.903 42.5653 275.903 42.4811C275.985 42.2285 276.067 41.8917 276.067 41.5549C276.149 38.6921 275.822 35.8293 275.249 32.9665C275.249 33.1349 285.147 30.9457 288.092 30.5247Z" fill="#263238"/>
<path d="M289.727 12.8428C291.527 17.6422 290.136 32.0404 286.946 35.4084C282.365 40.3762 274.349 41.4708 270.095 35.7452C266.005 30.188 268.132 11.4114 271.731 8.29597C277.048 3.58077 287.028 5.76997 289.727 12.8428Z" fill="#AD6359"/>
<path d="M278.929 22.5256L279.011 22.6098C278.929 23.536 278.929 24.7148 279.747 25.1358C279.747 25.1358 279.747 25.22 279.747 25.1358C278.684 24.9674 278.684 23.4518 278.929 22.5256Z" fill="#263238"/>
<path d="M279.829 21.5996C281.383 21.5996 281.138 24.715 279.747 24.715C278.357 24.715 278.602 21.5996 279.829 21.5996Z" fill="#263238"/>
<path d="M273.449 22.2732C273.449 22.2732 273.367 22.2732 273.449 22.2732C273.367 23.3678 273.122 24.4624 272.304 24.715V24.7992C273.367 24.715 273.531 23.1994 273.449 22.2732Z" fill="#263238"/>
<path d="M272.631 21.1785C271.158 21.0101 270.831 24.1255 272.222 24.2939C273.612 24.5465 273.939 21.3469 272.631 21.1785Z" fill="#263238"/>
<path d="M281.138 20.2523C280.729 20.0839 280.402 19.9155 279.993 19.7471C279.584 19.6629 279.175 19.4103 278.93 18.9893C278.766 18.7367 278.848 18.3999 279.093 18.2315C279.584 17.8947 280.239 17.8947 280.729 18.1473C281.302 18.3157 281.711 18.7367 282.038 19.2419C282.202 19.5787 282.038 19.9997 281.711 20.1681C281.466 20.3365 281.302 20.3365 281.138 20.2523Z" fill="#263238"/>
<path d="M271.568 19.5787C271.977 19.4945 272.386 19.4103 272.795 19.3261C273.204 19.3261 273.695 19.1577 274.022 18.8209C274.185 18.5683 274.185 18.2315 274.022 17.9789C273.613 17.5579 273.04 17.3895 272.468 17.5579C271.895 17.6421 271.322 17.8947 270.995 18.3999C270.75 18.7367 270.832 19.1577 271.159 19.4103C271.241 19.4945 271.404 19.5787 271.568 19.5787Z" fill="#263238"/>
<path d="M278.847 31.7036C278.602 31.872 278.357 32.2088 278.029 32.2088C277.702 32.2088 277.293 32.0404 277.048 31.872C277.293 32.293 277.784 32.5456 278.193 32.4614C278.602 32.3772 278.929 32.0404 279.011 31.6194L278.847 31.7036Z" fill="#263238"/>
<path d="M278.03 28.7565C277.539 29.5143 276.721 30.0195 275.821 30.1037C275.412 30.1879 275.003 30.1879 274.676 30.1037C274.594 30.1037 274.512 30.1037 274.43 30.1037L274.267 30.0195C274.185 30.0195 274.103 29.9353 274.103 29.7669V29.6827V29.5985C274.103 28.8407 274.267 27.7461 274.267 27.7461C274.021 27.8303 272.631 28.4197 272.631 27.9987C272.876 24.6307 273.531 21.2627 274.43 18.0631C274.43 17.979 274.594 17.979 274.594 18.0631C274.349 21.1785 273.612 24.2097 273.285 27.3251C273.776 27.1567 274.267 26.9883 274.84 26.9041C274.921 26.9041 274.512 29.0933 274.594 29.4301C275.821 29.5985 277.048 29.3459 277.948 28.5881C278.03 28.5881 278.112 28.6723 278.03 28.7565Z" fill="#263238"/>
<path d="M275.085 29.767C275.494 30.2722 275.985 30.6932 276.557 31.03C276.885 31.1984 277.212 31.1984 277.539 31.1142C278.275 30.9458 278.357 30.188 278.193 29.5986C278.112 29.2618 278.03 28.925 277.866 28.6724C277.13 29.2618 276.148 29.6828 275.085 29.767Z" fill="#263238"/>
<path d="M276.558 31.03C276.885 31.1984 277.212 31.1984 277.539 31.1142C278.275 30.9458 278.357 30.188 278.194 29.5986C277.457 29.5986 276.721 30.188 276.558 31.03Z" fill="#FF99BA"/>
<path opacity="0.2" d="M290.381 23.1993C289.4 22.6941 287.6 19.4103 286.864 18.0631C286.046 16.7159 286.209 10.2325 286.291 8.2959C287.845 9.4747 289.073 10.9903 289.727 12.8427C290.545 14.9477 290.709 18.9893 290.381 23.1993Z" fill="#263238"/>
<path d="M273.94 12.9271C274.922 14.3585 276.558 15.032 278.275 14.9478C279.993 14.7794 281.465 13.7691 282.283 12.1693C282.283 12.0851 282.365 12.1693 282.365 12.1693C281.711 13.9375 280.157 15.1162 278.275 15.2846C276.476 15.3688 274.758 14.5269 273.776 13.0113C273.776 12.9271 273.858 12.8429 273.94 12.9271C273.858 12.8429 273.94 12.9271 273.94 12.9271Z" fill="#263238"/>
<path d="M279.665 0.886332C282.283 1.05473 284.573 2.57033 285.882 4.92793C286.373 6.10673 286.536 7.36974 286.209 8.63274H286.127C286.373 6.35933 285.473 4.17013 283.673 2.90713C281.71 1.39153 279.256 0.970533 276.884 1.64413C275.739 1.98093 274.757 2.65453 274.103 3.66493C274.021 3.74913 273.857 3.66493 273.857 3.58073C274.757 1.72833 277.129 0.717931 279.665 0.886332Z" fill="#263238"/>
<path d="M262.978 6.10681C263.551 4.67541 264.533 3.58081 265.841 2.82301C267.641 1.81261 269.604 2.14942 271.486 2.48621V2.57041C269.85 2.14941 268.132 2.23361 266.578 2.82301C265.269 3.41241 264.205 4.42281 263.551 5.68581C262.079 8.63281 263.224 12.3376 266.169 13.769C267.477 14.4426 268.95 14.611 270.259 14.19C270.34 14.19 270.34 14.2742 270.259 14.2742C267.232 15.1162 264.124 13.6006 262.897 10.6536C262.406 9.22221 262.406 7.62241 262.978 6.10681Z" fill="#263238"/>
<path d="M290.381 15.7896C290.381 15.7896 293.326 10.7376 291.281 7.62223C290.136 5.85403 285.882 5.76983 285.882 5.76983C284.819 4.00163 283.183 2.65443 281.219 2.14923C277.784 1.13883 273.448 2.99123 273.448 2.99123C273.448 2.99123 270.258 0.802031 266.986 2.48603C262.487 4.75943 262.651 11.6638 266.904 14.1056C269.931 15.8738 274.266 13.2636 274.266 13.2636C274.675 13.3478 278.602 16.1264 281.956 12.59C281.956 12.59 284.328 15.0318 286.7 13.6004C287.436 15.0318 288.909 15.8738 290.381 15.7896Z" fill="#263238"/>
<path d="M287.683 24.6307C287.683 24.6307 290.546 19.8313 292.591 20.8417C294.636 21.8521 292.754 28.6723 290.382 29.6827C289.237 30.3563 287.765 29.8511 287.11 28.6723C287.11 28.6723 287.11 28.5881 287.028 28.5881L287.683 24.6307Z" fill="#AD6359"/>
<path d="M292.018 22.8625C290.545 23.7045 289.482 25.2201 289.073 26.9883C289.4 26.3147 290.218 25.9779 290.873 26.3147C290.954 26.3989 291.036 26.3989 291.118 26.4831V26.5673C290.545 26.3989 289.891 26.6515 289.482 27.2409C289.237 27.6619 288.991 28.1671 288.746 28.6723C288.664 28.8407 288.419 28.7565 288.419 28.5881C288.255 26.3147 289.727 23.1151 292.018 22.8625Z" fill="#263238"/>
</svg>
