<svg viewBox="0 0 45 14" fill="none" xmlns="http://www.w3.org/2000/svg">
<path d="M12.717 0.00146484L9.37515 9.96851C9.37515 9.96851 8.52632 5.75237 8.44233 5.22296C6.53979 0.882108 3.73242 1.1239 3.73242 1.1239L7.04119 14.0001V13.9976H11.0639L16.6265 0.00146484H12.717Z" fill="#1565C0"/>
<path d="M15.9033 14.0001H19.557L21.7662 0.00146484H18.0667L15.9033 14.0001Z" fill="#1565C0"/>
<path d="M41.7614 0.00146484H37.9168L31.9229 14.0001H35.5523L36.3006 12.0009H40.8769L41.2663 14.0001H44.5916L41.7614 0.00146484ZM37.3136 9.32711L39.3027 4.03689L40.3437 9.32711H37.3136Z" fill="#1565C0"/>
<path d="M26.9491 4.08124C26.9491 3.31004 27.5828 2.7361 29.4001 2.7361C30.5811 2.7361 31.9339 3.59384 31.9339 3.59384L32.5269 0.655392C32.5269 0.655392 30.7987 6.99063e-07 29.1023 6.99063e-07C25.2603 6.99063e-07 23.2789 1.83764 23.2789 4.16396C23.2789 8.3712 28.3426 7.79471 28.3426 9.95559C28.3426 10.3259 28.0486 11.1824 25.9399 11.1824C23.8248 11.1824 22.4288 10.4074 22.4288 10.4074L21.7988 13.2275C21.7988 13.2275 23.1516 13.9987 25.7655 13.9987C28.3858 13.9987 32.0204 12.0388 32.0204 9.22384C32.0204 5.83744 26.9491 5.5931 26.9491 4.08124Z" fill="#1565C0"/>
<path d="M8.93327 7.56717L7.70393 1.52484C7.70393 1.52484 7.14781 0.215331 5.70213 0.215331C4.25645 0.215331 0.0517576 0.215331 0.0517576 0.215331C0.0517576 0.215331 7.25598 2.34313 8.93327 7.56717Z" fill="#FFC107"/>
</svg>
